<?xml version="1.0" encoding="UTF-8"?>
<svg version="1.1" xmlns="http://www.w3.org/2000/svg" width="1108" height="391">
<path d="M0 0 C365.64 0 731.28 0 1108 0 C1108 129.03 1108 258.06 1108 391 C742.36 391 376.72 391 0 391 C0 261.97 0 132.94 0 0 Z " fill="#2F3442" transform="translate(0,0)"/>
<path d="M0 0 C1 3 1 3 0.1796875 4.953125 C-0.46613281 6.09007812 -0.46613281 6.09007812 -1.125 7.25 C-9.91599586 24.1520252 -15.18766311 46.02247697 -15.1328125 65.0234375 C-15.13424759 66.14185532 -15.13424759 66.14185532 -15.13571167 67.28286743 C-15.1363882 68.85101405 -15.13457089 70.41916355 -15.13037109 71.98730469 C-15.12503061 74.36139359 -15.13032623 76.73529201 -15.13671875 79.109375 C-15.14126079 88.45038305 -15.0576207 97.45087772 -12.609375 106.5390625 C-11.18166799 112.30480236 -10.13849816 118.17088941 -9 124 C-7.89785156 123.98839844 -6.79570312 123.97679687 -5.66015625 123.96484375 C33.84984808 123.66612457 67.41550266 134.19744361 98 160 C99.08328871 160.85422326 100.16661307 161.70840131 101.25 162.5625 C104.87360628 165.77433284 107.91892064 169.27089247 111 173 C111.40911621 173.4861377 111.81823242 173.97227539 112.23974609 174.47314453 C125.48951191 190.29238561 137.58026929 210.59124349 142 231 C141.59375 233.328125 141.59375 233.328125 141 235 C140.40574219 234.20078125 139.81148438 233.4015625 139.19921875 232.578125 C133.21742329 224.61949205 126.8985582 217.18394791 120 210 C119.20408447 209.16686279 119.20408447 209.16686279 118.39208984 208.31689453 C97.29659535 186.65980942 68.37926127 172.16544116 39 166 C38.50371094 166.96679688 38.00742188 167.93359375 37.49609375 168.9296875 C19.74930785 203.11944976 -9.18431606 228.36132224 -46.03515625 240.39160156 C-60.52969067 244.87972032 -75.05132193 247.38629603 -90.25 247.3125 C-91.42296631 247.30903564 -92.59593262 247.30557129 -93.80444336 247.30200195 C-106.69657196 247.14157051 -118.78445297 245.2319217 -131 241 C-131 240.67 -131 240.34 -131 240 C-129.05673828 239.65388672 -129.05673828 239.65388672 -127.07421875 239.30078125 C-85.91224567 231.82175418 -50.80965382 217.07760576 -21 187 C-22.33005674 183.30697012 -24.08651468 180.01519442 -26.0715332 176.6340332 C-38.99708085 154.59874594 -45.66021504 130.45042417 -45.5 104.9375 C-45.49823761 104.17986359 -45.49647522 103.42222717 -45.49465942 102.64163208 C-45.28651785 62.25845849 -27.65834004 28.45541035 0 0 Z " fill="#DFDFE0" transform="translate(170,36)"/>
<path d="M0 0 C0.91813477 -0.00555908 1.83626953 -0.01111816 2.78222656 -0.0168457 C20.18186288 0.16550448 34.82632565 6.15704115 47.6875 17.875 C48.7703125 19.0815625 48.7703125 19.0815625 49.875 20.3125 C50.33003906 20.76367188 50.78507813 21.21484375 51.25390625 21.6796875 C61.10136131 32.01565861 65.84649716 46.61578956 66.3125 60.625 C65.90720859 77.15751198 59.67748797 92.13846499 48.265625 104.09375 C33.55537679 117.74639867 15.54156383 122.89389767 -4.15625 122.58984375 C-20.46187069 121.96053696 -35.5428526 114.61681478 -47.125 103.3125 C-53.58578368 96.04788632 -58.0419962 88.52265001 -61.125 79.3125 C-61.36992188 78.61253906 -61.61484375 77.91257812 -61.8671875 77.19140625 C-66.16985141 62.07314198 -63.31728338 43.90189663 -56.046875 30.296875 C-46.70829627 15.79550478 -31.77038984 4.67608911 -14.8671875 0.8125 C-9.90118679 0.14898425 -5.00606702 0.02550702 0 0 Z " fill="#DFDFE0" transform="translate(888.125,204.6875)"/>
<path d="M0 0 C12.82106396 9.84882828 21.67181564 23.94055904 24.09765625 40 C24.80903482 49.72542203 24.1803859 58.67174015 21.09765625 68 C20.83082031 68.84949219 20.56398438 69.69898438 20.2890625 70.57421875 C16.26796773 81.95838483 8.40297722 90.56479216 -0.90234375 98 C-1.80146484 98.72123047 -1.80146484 98.72123047 -2.71875 99.45703125 C-16.98384674 109.5096162 -35.71503199 111.4073972 -52.5625 109.609375 C-66.70882673 107.07570454 -79.00306901 100.35842477 -88.90234375 90 C-89.54558594 89.37609375 -90.18882812 88.7521875 -90.8515625 88.109375 C-101.00711614 77.62338036 -104.96959364 62.62835908 -105.21484375 48.375 C-104.76853583 32.1922056 -99.84150332 17.9256224 -88.3046875 6.171875 C-63.64138515 -16.12535444 -27.65438926 -19.05659125 0 0 Z " fill="#DFDFE0" transform="translate(626.90234375,217)"/>
<path d="M0 0 C73.47157702 0 73.47157702 0 85.875 11.125 C94.16807313 20.21079335 96.57620274 30.87792128 96.34765625 42.73828125 C95.8775386 51.46594654 92.33767668 59.96411745 86 66 C81.15000449 70.04554914 75.50107172 74 69 74 C75.55032384 83.19672974 82.48591803 92.04909966 89.50097656 100.89208984 C90.98164327 102.75995618 92.45960818 104.62993786 93.9375 106.5 C94.38585205 107.06307861 94.8342041 107.62615723 95.29614258 108.20629883 C98.0524534 111.6949904 100.5523388 115.29054117 103 119 C76.14225297 121.98231591 76.14225297 121.98231591 68.36816406 117.47363281 C64.02917126 113.30844801 61.36391332 108.14185879 58.61181641 102.85058594 C55.67644322 97.65921707 51.8787783 93.10547627 48.1875 88.4375 C46.82263109 86.66859104 45.46160609 84.89670564 44.10546875 83.12109375 C43.52949951 82.3727124 42.95353027 81.62433105 42.36010742 80.85327148 C41 79 41 79 40 77 C33.07 76.505 33.07 76.505 26 76 C26 90.19 26 104.38 26 119 C17.42 119 8.84 119 0 119 C0 79.73 0 40.46 0 0 Z " fill="#DDDDDE" transform="translate(566,51)"/>
<path d="M0 0 C9.9 0 19.8 0 30 0 C32.64 3.96 35.28 7.92 38 12 C39.92559768 14.76010638 41.85765117 17.51109718 43.8125 20.25 C49.62815816 28.44129257 55.33016405 36.70730686 61 45 C69.02503529 34.63432942 76.43343433 23.84103348 83.87939453 13.05615234 C86.90584316 8.69452629 89.95561306 4.3491242 93 0 C102.57 0 112.14 0 122 0 C122 39.27 122 78.54 122 119 C113.75 119 105.5 119 97 119 C96.67 91.61 96.34 64.22 96 36 C92.37 41.28 88.74 46.56 85 52 C82.60911916 55.4203888 80.21516777 58.83796958 77.8125 62.25 C72.76830872 69.43226412 67.80658076 76.65578343 63 84 C60.57428997 83.62328478 59.30658524 83.32839211 57.60644531 81.50732422 C57.18459961 80.8629541 56.76275391 80.21858398 56.328125 79.5546875 C55.83618652 78.81814941 55.34424805 78.08161133 54.83740234 77.32275391 C54.31355957 76.51499512 53.7897168 75.70723633 53.25 74.875 C52.10288881 73.15015886 50.95438539 71.42624304 49.8046875 69.703125 C49.19463867 68.78337891 48.58458984 67.86363281 47.95605469 66.91601562 C43.82967668 60.76456044 39.54510333 54.72129243 35.29394531 48.65576172 C34.64780273 47.73037598 34.00166016 46.80499023 33.3359375 45.8515625 C32.47814697 44.62687256 32.47814697 44.62687256 31.60302734 43.37744141 C29.98257789 40.97416136 28.49129338 38.48548897 27 36 C26.67 63.39 26.34 90.78 26 119 C17.42 119 8.84 119 0 119 C0 79.73 0 40.46 0 0 Z " fill="#DEDEDF" transform="translate(378,206)"/>
<path d="M0 0 C9.9 0 19.8 0 30 0 C36.96384951 7.84468709 36.96384951 7.84468709 38.19384766 11.46826172 C39.92537822 16.02277417 42.28297947 19.75968635 45.04296875 23.75390625 C45.89339476 25.04035607 46.74095638 26.32870387 47.58569336 27.61889648 C48.45295169 28.93343795 49.32022078 30.24797232 50.1875 31.5625 C51.56603678 33.65644829 52.94389368 35.75084277 54.32167053 37.84529114 C55.23793184 39.238148 56.15438293 40.63088004 57.07102966 42.02348328 C61.80614802 49.21917639 66.5095336 56.43539289 71.20581055 63.65649414 C74.76782177 69.12875855 78.36619826 74.57513011 82 80 C82.02803016 78.12509378 82.04683729 76.25005032 82.0625 74.375 C82.07410156 73.33085937 82.08570313 72.28671875 82.09765625 71.2109375 C82.07120497 67.86799997 81.79292389 64.57950757 81.5 61.25 C80.61261276 49.3997977 80.89568568 37.50026735 80.9375 25.625 C80.94252455 23.13541757 80.94708577 20.64583415 80.95117188 18.15625 C80.96124532 12.10412227 80.9808342 6.0521328 81 0 C89.25 0 97.5 0 106 0 C106 39.27 106 78.54 106 119 C96.43 119 86.86 119 77 119 C67.64816584 107.76384105 67.64816584 107.76384105 65.265625 102.5703125 C62.12708496 96.10446239 58.38924508 90.26269306 54.375 84.3125 C53.12680962 82.4058665 51.88198268 80.49702662 50.640625 78.5859375 C50.03541016 77.65749023 49.43019531 76.72904297 48.80664062 75.77246094 C40.83447355 63.53841644 32.87780202 51.29507086 25 39 C24.97262185 41.47924388 24.95298196 43.95817516 24.9375 46.4375 C24.92912109 47.12521484 24.92074219 47.81292969 24.91210938 48.52148438 C24.89557977 52.0753493 25.05397257 55.42819643 25.5 58.96679688 C26.18712443 64.94470675 26.12447658 70.89991607 26.09765625 76.91015625 C26.0962413 78.11820419 26.09482635 79.32625214 26.09336853 80.57090759 C26.08780395 84.40146437 26.07525803 88.23196111 26.0625 92.0625 C26.05748042 94.67122311 26.05291832 97.27994714 26.04882812 99.88867188 C26.03870017 106.25915591 26.01911784 112.62951133 26 119 C17.42 119 8.84 119 0 119 C0 79.73 0 40.46 0 0 Z " fill="#DEDEDF" transform="translate(974,206)"/>
<path d="M0 0 C8.58 0 17.16 0 26 0 C26 39.27 26 78.54 26 119 C16.1 119 6.2 119 -4 119 C-11.16921322 111.13474666 -11.16921322 111.13474666 -12.66015625 107.234375 C-15.20965271 101.2379776 -18.73873056 96.07245444 -22.375 90.6875 C-23.66491228 88.71840411 -24.95138135 86.7470483 -26.234375 84.7734375 C-27.18086914 83.32275879 -27.18086914 83.32275879 -28.14648438 81.84277344 C-32.55571279 75.08025293 -36.95228232 68.30949635 -41.35009766 61.53955078 C-44.33672863 56.9424902 -47.32472422 52.34631658 -50.3125 47.75 C-52.2083456 44.83334131 -54.10417486 41.91667199 -56 39 C-55.9285376 40.15846436 -55.8570752 41.31692871 -55.78344727 42.51049805 C-54.90468396 57.93968083 -54.87900788 73.34181163 -54.93133545 88.79211426 C-54.94177108 92.21231433 -54.94623107 95.63252268 -54.95117188 99.05273438 C-54.96119468 105.70186409 -54.98078902 112.35086551 -55 119 C-63.25 119 -71.5 119 -80 119 C-80 80.06 -80 41.12 -80 1 C-70.43 1 -60.86 1 -51 1 C-46.93983553 6.80023496 -42.92972462 12.54497848 -39.125 18.5 C-34.36742524 25.89746923 -29.56690627 33.26603336 -24.75 40.625 C-23.29551346 42.84761735 -21.84108672 45.07027382 -20.38671875 47.29296875 C-20.02483963 47.84600174 -19.66296051 48.39903473 -19.29011536 48.96882629 C-14.73360013 55.93359247 -10.18929205 62.9063176 -5.64550781 69.87939453 C-5.0625293 70.77384277 -4.47955078 71.66829102 -3.87890625 72.58984375 C-3.3691626 73.37222412 -2.85941895 74.15460449 -2.33422852 74.96069336 C-1.23149502 76.64617056 -0.11725689 78.32411467 1 80 C0.9285376 78.68700928 0.8570752 77.37401855 0.78344727 76.02124023 C-0.04633252 59.69572093 -0.11743744 43.40586987 -0.0625 27.0625 C-0.05746838 24.42122482 -0.05290845 21.7799487 -0.04882812 19.13867188 C-0.03883188 12.75907125 -0.01923499 6.3796057 0 0 Z " fill="#DEDEDF" transform="translate(872,51)"/>
<path d="M0 0 C10.56 0 21.12 0 32 0 C34.71495346 6.10864529 37.32711609 12.19725303 39.7734375 18.41015625 C40.13016541 19.3116188 40.48689331 20.21308136 40.85443115 21.14186096 C42.0300707 24.11457609 43.20276215 27.08844197 44.375 30.0625 C45.20161733 32.15740622 46.0282784 34.25229519 46.85498047 36.34716797 C48.16815494 39.67553607 49.48089659 43.0040727 50.79263306 46.33300781 C53.45263557 53.08286421 56.11990228 59.82977432 58.79508781 66.5736227 C60.8327707 71.71079956 62.86624908 76.84962763 64.89680672 81.98962498 C66.13017414 85.11120247 67.36553111 88.23195917 68.60565186 91.3508606 C69.99524254 94.84893426 71.37736878 98.34987097 72.7578125 101.8515625 C73.38148712 103.41409508 73.38148712 103.41409508 74.01776123 105.00819397 C74.39749084 105.97567062 74.77722046 106.94314728 75.16845703 107.93994141 C75.49975616 108.77667389 75.8310553 109.61340637 76.1723938 110.47549438 C77 113 77 113 78 119 C69.42 119 60.84 119 52 119 C46.11764706 104.88235294 46.11764706 104.88235294 44.1875 99.9375 C43.76855469 98.87402344 43.34960938 97.81054688 42.91796875 96.71484375 C42 94 42 94 42 91 C16.755 91.495 16.755 91.495 -9 92 C-12.3 100.91 -15.6 109.82 -19 119 C-27.91 119 -36.82 119 -46 119 C-42.62512803 107.75042677 -42.62512803 107.75042677 -41.14086914 103.99243164 C-40.80451447 103.13490799 -40.46815979 102.27738434 -40.12161255 101.39387512 C-39.76308197 100.49174789 -39.40455139 99.58962067 -39.03515625 98.66015625 C-38.64939423 97.67975876 -38.2636322 96.69936127 -37.86618042 95.68925476 C-36.60202736 92.4788477 -35.33228886 89.27068165 -34.0625 86.0625 C-33.17675352 83.81624283 -32.29142497 81.56982082 -31.40649414 79.32324219 C-29.55539483 74.62456113 -27.70246928 69.92660563 -25.84863281 65.22900391 C-22.99963706 58.00479088 -20.16590422 50.77465389 -17.3359375 43.54296875 C-16.88014816 42.3785878 -16.42435883 41.21420685 -15.95475769 40.01454163 C-14.18046882 35.48165333 -12.40630788 30.94871549 -10.6333313 26.41531372 C-9.41155821 23.29208608 -8.18835979 20.16942017 -6.96484375 17.046875 C-6.60631317 16.12927902 -6.24778259 15.21168304 -5.87838745 14.26628113 C-5.54203278 13.40851578 -5.2056781 12.55075043 -4.85913086 11.66699219 C-4.42666298 10.562034 -4.42666298 10.562034 -3.98545837 9.43475342 C-2.70459238 6.27014196 -1.34483976 3.13795943 0 0 Z " fill="#DEDEE0" transform="translate(417,51)"/>
<path d="M0 0 C1.32499512 0.01135986 1.32499512 0.01135986 2.67675781 0.02294922 C14.55354488 0.32348853 23.15152788 5.0277429 31.3125 13.5625 C38.70017453 22.87299393 40.32224692 32.96100422 39.36425781 44.48095703 C38.20423937 53.96706705 33.31794088 62.23719206 25.91796875 68.22265625 C15.46978421 75.46696819 4.76967628 77.81171625 -7.875 76.4375 C-18.79284233 73.95341823 -26.14471467 68.03915368 -33.25 59.625 C-39.00318745 48.33990154 -40.61438766 38.04274192 -37.3125 25.75 C-33.78463523 15.46141877 -27.34904602 8.68424572 -17.875 3.4375 C-11.92843123 0.56785771 -6.55734749 -0.07856845 0 0 Z " fill="#303543" transform="translate(585.875,227.5625)"/>
<path d="M0 0 C8.42351356 5.89645949 14.03094599 13.42394463 16.640625 23.46484375 C18.58613664 37.18915953 15.67465664 47.28534873 8.25 58.6875 C-0.03959667 67.20736324 -10.68456299 71.11465379 -22.4375 71.5625 C-33.93261001 71.18638188 -42.71882298 67.36560904 -50.91015625 59.3203125 C-59.02701545 50.30832303 -61.65731928 40.50722398 -61.34375 28.4609375 C-60.32594547 18.21349647 -55.58557588 10.20236589 -48.12109375 3.25 C-46.15268116 1.65936356 -44.16385151 0.31106289 -42 -1 C-41.33097656 -1.41378906 -40.66195312 -1.82757813 -39.97265625 -2.25390625 C-28.29592039 -8.14357794 -10.85757518 -6.92414225 0 0 Z " fill="#303543" transform="translate(911,233)"/>
<path d="M0 0 C31.68 0 63.36 0 96 0 C96 7.59 96 15.18 96 23 C84.45 23 72.9 23 61 23 C61 54.35 61 85.7 61 118 C52.42 118 43.84 118 35 118 C35 86.32 35 54.64 35 22 C23.45 22 11.9 22 0 22 C0 14.74 0 7.48 0 0 Z " fill="#DDDDDE" transform="translate(663,207)"/>
<path d="M0 0 C-2.15771233 2.15771233 -4.31470079 3.17420615 -7.05175781 4.46020508 C-21.82343201 11.42334825 -34.35481217 20.61709117 -46 32 C-46.71414062 32.66386719 -47.42828125 33.32773438 -48.1640625 34.01171875 C-63.28014101 48.37500451 -73.28578495 66.86054843 -81 86 C-81.25797363 86.63373535 -81.51594727 87.2674707 -81.78173828 87.92041016 C-88.34379058 104.43867974 -89.26636266 121.54369289 -89.25 139.125 C-89.24910873 140.18470001 -89.24910873 140.18470001 -89.24819946 141.26580811 C-89.22682225 147.918667 -89.11893488 154.46959714 -88.23828125 161.07421875 C-87.72775568 166.09891442 -88.84773451 168.59009053 -91.9375 172.6875 C-92.77678396 173.85811521 -93.60856749 175.03413667 -94.43359375 176.21484375 C-94.8601123 176.82183105 -95.28663086 177.42881836 -95.72607422 178.05419922 C-97.95671698 181.46129442 -99.72157334 185.09207628 -101.5 188.75 C-101.83765381 189.44182373 -102.17530762 190.13364746 -102.52319336 190.84643555 C-103.3546297 192.56147426 -104.17796435 194.28043564 -105 196 C-105.495 196.99 -105.495 196.99 -106 198 C-106.66 198 -107.32 198 -108 198 C-115.08662132 178.58957846 -119.2323598 161.22064694 -119.25 140.4375 C-119.25067474 139.72279541 -119.25134949 139.00809082 -119.25204468 138.27172852 C-119.23645189 127.88081266 -118.85215911 118.07991974 -116 108 C-115.82839355 107.36320312 -115.65678711 106.72640625 -115.47998047 106.0703125 C-105.21818421 68.36119167 -80.99389055 35.51164627 -47.00585938 15.84619141 C-39.44956731 11.69324425 -31.57239719 8.29832447 -23.5625 5.125 C-22.84143066 4.83850586 -22.12036133 4.55201172 -21.37744141 4.25683594 C-14.43278174 1.6028869 -7.4942197 -0.38431896 0 0 Z " fill="#DDDDDF" transform="translate(148,53)"/>
<path d="M0 0 C1.63984529 0.00031732 3.27971127 0.01165397 4.91943359 0.03173828 C6.21365738 0.03598312 6.21365738 0.03598312 7.5340271 0.04031372 C10.29544829 0.05152746 13.05654759 0.07663394 15.81787109 0.10205078 C17.68765808 0.11207905 19.55745015 0.12120517 21.42724609 0.12939453 C26.01591218 0.15147066 30.60433702 0.18600844 35.19287109 0.22705078 C33.7239713 3.28398255 32.16260386 5.58198001 29.88037109 8.10205078 C27.6396958 10.59480205 25.46799998 13.10508831 23.38037109 15.72705078 C22.65849609 16.55205078 21.93662109 17.37705078 21.19287109 18.22705078 C20.53287109 18.22705078 19.87287109 18.22705078 19.19287109 18.22705078 C18.86287109 19.21705078 18.53287109 20.20705078 18.19287109 21.22705078 C16.26826921 22.91034173 14.36195708 24.45273592 12.31787109 25.97705078 C11.72852783 26.42097168 11.13918457 26.86489258 10.53198242 27.32226562 C0.35883665 34.90311674 -10.34558949 40.85577585 -21.80712891 46.22705078 C-22.93248047 46.76458984 -24.05783203 47.30212891 -25.21728516 47.85595703 C-55.26162773 61.06718918 -94.92780867 63.99398972 -125.88232422 51.97924805 C-126.51750977 51.73102295 -127.15269531 51.48279785 -127.80712891 51.22705078 C-128.96212891 50.80166016 -130.11712891 50.37626953 -131.30712891 49.93798828 C-154.98361811 40.90075691 -173.17380354 26.24370931 -190.80712891 8.22705078 C-190.47712891 7.56705078 -190.14712891 6.90705078 -189.80712891 6.22705078 C-188.90994141 6.85611328 -188.01275391 7.48517578 -187.08837891 8.13330078 C-153.18217752 31.54352146 -113.89560744 40.4840446 -72.94335938 33.625 C-48.6503958 29.09956793 -20.73501029 1.23660123 0 0 Z " fill="#DDDEDF" transform="translate(253.80712890625,280.77294921875)"/>
<path d="M0 0 C34.47650921 0.16148248 66.97166003 22.00552209 90.42578125 45.421875 C118.24508974 74.87180015 129.00315638 112.92169997 128.13623047 152.60644531 C127.575377 166.57752635 124.33700209 179.76614382 120 193 C119.67 193 119.34 193 119 193 C119.01047363 192.175 119.02094727 191.35 119.03173828 190.5 C119.50082188 147.93808568 111.60642081 110.03904512 83 77 C82.57170898 76.50322754 82.14341797 76.00645508 81.70214844 75.49462891 C67.57430431 59.22228759 50.39954389 47.43526448 30.8046875 38.65625 C29.85106323 38.22505859 29.85106323 38.22505859 28.87817383 37.78515625 C27.0664854 37.02779371 25.18990065 36.43182459 23.31640625 35.84375 C18.59238433 33.21743864 17.27441774 29.78926272 15.0625 25 C11.7159822 18.1827571 8.28597342 12.11918328 3.59375 6.12890625 C2.11179471 4.14933362 1.02257491 2.24455193 0 0 Z " fill="#DEDEDF" transform="translate(190,51)"/>
<path d="M0 0 C8.58 0 17.16 0 26 0 C26 39.27 26 78.54 26 119 C17.42 119 8.84 119 0 119 C0 79.73 0 40.46 0 0 Z " fill="#DBDBDC" transform="translate(740,51)"/>
<path d="M0 0 C8.58 0 17.16 0 26 0 C26 39.27 26 78.54 26 119 C17.42 119 8.84 119 0 119 C0 79.73 0 40.46 0 0 Z " fill="#DBDBDC" transform="translate(514,51)"/>
<path d="M0 0 C8.25 0 16.5 0 25 0 C25 38.94 25 77.88 25 118 C16.75 118 8.5 118 0 118 C0 79.06 0 40.12 0 0 Z " fill="#E0E0E1" transform="translate(778,207)"/>
<path d="M0 0 C4.69789335 -0.13847502 9.38859829 -0.25764748 14.08691406 -0.32958984 C15.68156025 -0.35959836 17.27604366 -0.40042047 18.87011719 -0.45263672 C34.83319212 -0.96209656 34.83319212 -0.96209656 40.66992188 4.31005859 C44.56612236 9.2604073 44.58904325 13.90678212 44 20 C42.52096129 24.89931573 40.03720218 27.37433025 35.77734375 29.95922852 C29.57030593 32.28523082 22.53778868 31.49661413 16 31.3125 C14.44665051 31.28738325 12.89326187 31.26457603 11.33984375 31.24414062 C7.55812865 31.19369085 3.78191501 31.09582555 0 31 C0 20.77 0 10.54 0 0 Z " fill="#2F3442" transform="translate(592,75)"/>
<path d="M0 0 C0.66 0 1.32 0 2 0 C4.14264513 5.49679653 6.27871384 10.99608517 8.40869141 16.49780273 C9.13442048 18.36959926 9.86195118 20.24069828 10.59130859 22.11108398 C11.63852219 24.79750742 12.67926038 27.48636125 13.71875 30.17578125 C14.04685669 31.01337479 14.37496338 31.85096832 14.7130127 32.71394348 C15.16347961 33.88481758 15.16347961 33.88481758 15.62304688 35.0793457 C15.88952026 35.76551468 16.15599365 36.45168365 16.43054199 37.15864563 C17 39 17 39 17 42 C6.44 42 -4.12 42 -15 42 C-13.16685394 35.88951315 -11.34320139 29.95872677 -9.08203125 24.0234375 C-8.81992355 23.32731354 -8.55781586 22.63118958 -8.2877655 21.91397095 C-7.46581155 19.73311513 -6.63925722 17.55403879 -5.8125 15.375 C-5.24773854 13.87902262 -4.68328305 12.38292968 -4.11914062 10.88671875 C-2.7496153 7.25647161 -1.37596702 3.62781019 0 0 Z " fill="#333845" transform="translate(432,77)"/>
<path d="M0 0 C0.33 0.99 0.66 1.98 1 3 C-1.6234008 5.91488977 -4.71816394 7.88503898 -8 10 C-6.34908222 5.70761377 -3.26245434 3.1206085 0 0 Z " fill="#AAACB1" transform="translate(170,36)"/>
<path d="M0 0 C-2.46278801 2.46278801 -4.70676982 2.99771255 -8 4 C-8 3.34 -8 2.68 -8 2 C-8.99 1.67 -9.98 1.34 -11 1 C-7.26562152 0.12132271 -3.83225427 -0.08912219 0 0 Z " fill="#BABBBF" transform="translate(148,53)"/>
</svg>
