<?xml version="1.0" encoding="UTF-8"?>
<svg version="1.1" xmlns="http://www.w3.org/2000/svg" width="500" height="189">
<path d="M0 0 C165 0 330 0 500 0 C500 62.37 500 124.74 500 189 C335 189 170 189 0 189 C0 126.63 0 64.26 0 0 Z " fill="#FEFDFD" transform="translate(0,0)"/>
<path d="M0 0 C1.28183167 -0.01606293 2.56366333 -0.03212585 3.88433838 -0.04867554 C5.29104957 -0.06016364 6.69776818 -0.07077207 8.10449219 -0.08056641 C9.16618244 -0.08855192 9.16618244 -0.08855192 10.24932098 -0.09669876 C13.99742042 -0.12342893 17.7454866 -0.1428021 21.49365234 -0.15722656 C24.59193519 -0.17055496 27.6895577 -0.19838549 30.78759766 -0.23925781 C34.5312106 -0.28864636 38.27422551 -0.31335522 42.01815033 -0.32045364 C43.44229407 -0.32715587 44.866425 -0.34235149 46.29038239 -0.36634445 C58.8261669 -0.56547351 58.8261669 -0.56547351 62.60693359 2.38574219 C64.79806056 5.06648042 66.65523255 7.61078983 68.34667969 10.63037109 C68.94327393 11.68087646 69.53986816 12.73138184 70.15454102 13.8137207 C71.08109497 15.48640015 71.08109497 15.48640015 72.02636719 17.19287109 C73.01253992 18.93801551 73.99871799 20.683157 74.98548889 22.42796326 C75.98321082 24.19644478 76.97548158 25.96788197 77.96630859 27.74023438 C80.33396527 31.96473611 82.73233767 36.17111385 85.13720703 40.37451172 C86.16738175 42.17516397 87.19515706 43.97719165 88.22021484 45.78076172 C88.67831543 46.58578125 89.13641602 47.39080078 89.60839844 48.22021484 C90.00518799 48.91880615 90.40197754 49.61739746 90.81079102 50.3371582 C91.78289003 51.99127161 92.83711337 53.59649036 93.90136719 55.19287109 C94.66805738 60.55970245 93.97429706 63.51307828 91.29199219 68.21240234 C90.74671875 69.17936035 90.20144531 70.14631836 89.63964844 71.14257812 C89.06601562 72.1491748 88.49238281 73.15577148 87.90136719 74.19287109 C86.80040708 76.18525584 85.70146434 78.17875662 84.60449219 80.17333984 C81.07506972 86.5350149 77.50222824 92.87138223 73.90136719 99.19287109 C73.40991211 100.05928223 72.91845703 100.92569336 72.41210938 101.81835938 C71.13920471 104.04069579 69.8400822 106.2444791 68.52636719 108.44287109 C68.1709082 109.06701904 67.81544922 109.69116699 67.44921875 110.33422852 C64.50288216 115.14519061 61.06107912 118.04757 55.90136719 120.19287109 C51.48504656 120.88425907 47.14122844 120.8473166 42.67871094 120.78662109 C41.41926163 120.78666138 40.15981232 120.78670166 38.86219788 120.78674316 C36.20795282 120.78139702 33.55594087 120.76655661 30.90209961 120.73486328 C27.51728281 120.69514614 24.13357808 120.69082764 20.74857235 120.69832611 C17.49602595 120.70214968 14.24368751 120.68129766 10.99121094 120.66162109 C9.78375717 120.66141968 8.57630341 120.66121826 7.33226013 120.66101074 C-0.29296521 120.55409688 -5.97611517 120.27677956 -11.62597656 114.69677734 C-15.07036733 110.12997818 -17.82672141 105.08693896 -20.66113281 100.13037109 C-21.26594482 99.08284668 -21.87075684 98.03532227 -22.49389648 96.95605469 C-24.36840291 93.70521376 -26.23430735 90.4495595 -28.09863281 87.19287109 C-29.28085137 85.13423536 -30.46314058 83.07564019 -31.64550781 81.01708984 C-42.19051472 62.62693084 -42.19051472 62.62693084 -41.09863281 55.19287109 C-39.60360337 51.43772614 -37.57394305 48.07611307 -35.47363281 44.63037109 C-34.60532837 43.15600586 -34.60532837 43.15600586 -33.71948242 41.65185547 C-32.49077211 39.56725077 -31.25449137 37.48709237 -30.01123047 35.41113281 C-28.08015489 32.16177894 -26.19859881 28.88814701 -24.32910156 25.60302734 C-23.10677365 23.46612075 -21.88412659 21.32939667 -20.66113281 19.19287109 C-20.09507324 18.19698975 -19.52901367 17.2011084 -18.94580078 16.17504883 C-9.6356338 0.10945104 -9.6356338 0.10945104 0 0 Z " fill="#FB8419" transform="translate(344.0986328125,15.80712890625)"/>
<path d="M0 0 C1.30119781 0.00007553 2.60239563 0.00015106 3.94302368 0.00022888 C5.36875445 0.00533592 6.79448484 0.01055192 8.22021484 0.01586914 C9.67467195 0.01773392 11.12912969 0.01915754 12.58358765 0.02015686 C16.4140801 0.02397734 20.24453472 0.03380363 24.07501221 0.04486084 C27.98278288 0.05508504 31.89055966 0.05965665 35.79833984 0.06469727 C43.46762794 0.07542631 51.13688484 0.09249711 58.80615234 0.11352539 C58.80615234 0.44352539 58.80615234 0.77352539 58.80615234 1.11352539 C57.61119141 1.08258789 57.61119141 1.08258789 56.39208984 1.05102539 C55.33248047 1.07165039 54.27287109 1.09227539 53.18115234 1.11352539 C52.13701172 1.11352539 51.09287109 1.11352539 50.01708984 1.11352539 C45.12483 2.63714889 43.47147823 5.9029491 40.80615234 10.11352539 C40.24347656 10.98412598 39.68080078 11.85472656 39.10107422 12.75170898 C37.31268427 15.57671008 35.58543146 18.43201966 33.86865234 21.30102539 C32.96663086 22.75798828 32.96663086 22.75798828 32.04638672 24.24438477 C31.48371094 25.18475586 30.92103516 26.12512695 30.34130859 27.09399414 C29.82963135 27.93857178 29.3179541 28.78314941 28.79077148 29.65332031 C27.58479272 32.66662257 27.82410827 34.05417507 28.80615234 37.11352539 C29.65098254 39.09777937 29.65098254 39.09777937 30.73974609 40.97680664 C31.13693848 41.69151123 31.53413086 42.40621582 31.94335938 43.14257812 C32.37245605 43.89611572 32.80155273 44.64965332 33.24365234 45.42602539 C33.68306152 46.20985596 34.1224707 46.99368652 34.57519531 47.80126953 C38.09748657 54.02248363 41.83781782 60.09488904 45.75708008 66.07373047 C48.80615234 70.7979823 48.80615234 70.7979823 48.80615234 74.11352539 C47.97716179 74.10900108 47.97716179 74.10900108 47.13142395 74.10438538 C41.37191012 74.07979656 35.61405451 74.10395249 29.85473633 74.15625 C27.70633884 74.16937865 25.5578283 74.17013417 23.40942383 74.15820312 C20.31787829 74.14319215 17.22947194 74.17286916 14.13818359 74.21118164 C12.70041313 74.18979881 12.70041313 74.18979881 11.2335968 74.16798401 C6.2543662 74.19290951 6.2543662 74.19290951 2.1151123 76.62698364 C0.82243997 78.4062069 -0.21091583 80.14895055 -1.19384766 82.11352539 C-1.75330078 83.09836914 -2.31275391 84.08321289 -2.88916016 85.09790039 C-3.84763281 86.95199504 -4.80596461 88.80616252 -5.76416016 90.66040039 C-7.06724778 92.89629937 -8.34225314 94.34730699 -10.19384766 96.11352539 C-10.7845478 98.05955813 -10.7845478 98.05955813 -11.19384766 100.11352539 C-11.54447266 100.75290039 -11.89509766 101.39227539 -12.25634766 102.05102539 C-13.3844869 104.53293172 -13.34362402 106.41755078 -13.19384766 109.11352539 C-13.85384766 109.11352539 -14.51384766 109.11352539 -15.19384766 109.11352539 C-16.42382812 107.42724609 -16.42382812 107.42724609 -17.81103516 105.03930664 C-18.33020508 104.15339844 -18.849375 103.26749023 -19.38427734 102.35473633 C-19.94018555 101.38826172 -20.49609375 100.42178711 -21.06884766 99.42602539 C-21.92591309 97.95504395 -21.92591309 97.95504395 -22.80029297 96.4543457 C-24.60731845 93.34594399 -26.4021771 90.23079985 -28.19384766 87.11352539 C-29.06928223 85.593479 -29.06928223 85.593479 -29.96240234 84.04272461 C-42.29481937 62.60947292 -42.29481937 62.60947292 -41.19384766 55.11352539 C-39.69881822 51.35838044 -37.66915789 47.99676737 -35.56884766 44.55102539 C-34.70054321 43.07666016 -34.70054321 43.07666016 -33.81469727 41.57250977 C-32.58598696 39.48790507 -31.34970621 37.40774667 -30.10644531 35.33178711 C-28.17536973 32.08243323 -26.29381365 28.80880131 -24.42431641 25.52368164 C-23.2019885 23.38677504 -21.97934144 21.25005097 -20.75634766 19.11352539 C-20.19028809 18.11764404 -19.62422852 17.1217627 -19.04101562 16.09570312 C-9.70254764 -0.01873079 -9.70254764 -0.01873079 0 0 Z " fill="#FB8719" transform="translate(344.19384765625,15.886474609375)"/>
<path d="M0 0 C0.33 0 0.66 0 1 0 C1.14151489 0.83204956 1.14151489 0.83204956 1.28588867 1.6809082 C2.41012266 7.51568877 4.31686103 12.08523899 7.3125 17.1875 C7.73966309 17.93781494 8.16682617 18.68812988 8.60693359 19.46118164 C11.2010587 23.99052593 13.87355368 28.47254236 16.55078125 32.953125 C17.1439917 33.94803955 17.73720215 34.9429541 18.34838867 35.96801758 C19.51949984 37.92544854 20.69789496 39.87854258 21.8840332 41.8269043 C22.41988037 42.71804932 22.95572754 43.60919434 23.5078125 44.52734375 C23.98879395 45.31874756 24.46977539 46.11015137 24.96533203 46.92553711 C26 49 26 49 26 52 C25.03126968 53.35622245 24.02323436 54.68441297 23 56 C21.68 58.31 20.36 60.62 19 63 C0.85 63 -17.3 63 -36 63 C-34.55780429 59.39451073 -33.21152631 56.46431304 -31.26953125 53.17578125 C-30.72095459 52.24185547 -30.17237793 51.30792969 -29.60717773 50.34570312 C-29.01493408 49.34474609 -28.42269043 48.34378906 -27.8125 47.3125 C-26.54881234 45.16315233 -25.28581652 43.01339778 -24.0234375 40.86328125 C-23.36569336 39.7438916 -22.70794922 38.62450195 -22.03027344 37.47119141 C-19.97440714 33.96327188 -17.94126235 30.44251521 -15.9140625 26.91796875 C-15.57998886 26.33727127 -15.24591522 25.75657379 -14.90171814 25.15827942 C-13.28716917 22.35049318 -11.67466125 19.54154757 -10.0637207 16.73168945 C-6.81608373 11.08372163 -3.57073566 5.45110471 0 0 Z " fill="#FDE2AD" transform="translate(302,73)"/>
<path d="M0 0 C2.92158421 2.7267858 4.95604818 5.32938547 6.8828125 8.82421875 C7.40568848 9.76281738 7.92856445 10.70141602 8.46728516 11.66845703 C9.01433105 12.66474121 9.56137695 13.66102539 10.125 14.6875 C11.28004334 16.76239093 12.43630543 18.83660385 13.59375 20.91015625 C14.45226562 22.45147217 14.45226562 22.45147217 15.328125 24.02392578 C17.70599864 28.25673532 20.15360523 32.44627477 22.625 36.625 C23.02605957 37.30393311 23.42711914 37.98286621 23.84033203 38.68237305 C25.45122504 41.40330771 27.06983236 44.10920919 28.7734375 46.7734375 C30 49 30 49 30 52 C10.2 52 -9.6 52 -30 52 C-28.6630757 48.65768926 -27.4583622 45.86214866 -25.70703125 42.796875 C-25.01927612 41.5907959 -25.01927612 41.5907959 -24.31762695 40.36035156 C-23.82093506 39.49893555 -23.32424316 38.63751953 -22.8125 37.75 C-22.29582764 36.84991211 -21.77915527 35.94982422 -21.24682617 35.02246094 C-16.84321221 27.38718875 -12.34233487 19.8107913 -7.8125 12.25 C-7.15290283 11.14881836 -6.49330566 10.04763672 -5.8137207 8.91308594 C-1.12863372 1.12863372 -1.12863372 1.12863372 0 0 Z " fill="#0DC1B5" transform="translate(444,84)"/>
<path d="M0 0 C4.228125 -0.020625 8.45625 -0.04125 12.8125 -0.0625 C14.8076062 -0.07615601 14.8076062 -0.07615601 16.84301758 -0.09008789 C17.89126709 -0.09258545 18.9395166 -0.09508301 20.01953125 -0.09765625 C21.09307861 -0.10289307 22.16662598 -0.10812988 23.27270508 -0.11352539 C26 0 26 0 29 1 C29 1.66 29 2.32 29 3 C29.598125 3.226875 30.19625 3.45375 30.8125 3.6875 C33.68011113 5.40806668 34.62059949 6.96531888 36 10 C36.789691 15.30221097 35.07410192 17.77310986 32 22 C31.76806826 24.22468387 31.76806826 24.22468387 33.9375 26 C34.9584375 26.99 34.9584375 26.99 36 28 C37.74451903 31.48903806 37.57578672 35.19341001 37 39 C35.02026429 42.76149784 32.06415402 45.64528199 28 47 C18.78778719 48.5353688 9.33928382 48 0 48 C0 32.16 0 16.32 0 0 Z " fill="#575757" transform="translate(132,88)"/>
<path d="M0 0 C3.96 0 7.92 0 12 0 C16.33383119 10.55795046 20.27641107 21.21215547 24 32 C26.05936951 27.23157894 28.06624123 22.44594631 30 17.625 C30.39191528 16.64926025 30.39191528 16.64926025 30.79174805 15.65380859 C32.24216599 12.00898298 33.59898833 8.35520335 34.8125 4.625 C36 1 36 1 37 0 C40.63 0 44.26 0 48 0 C48 15.84 48 31.68 48 48 C45.36 48 42.72 48 40 48 C39.67 37.44 39.34 26.88 39 16 C38.01 19.3 37.02 22.6 36 26 C35.20611402 28.05732648 34.37885339 30.10251046 33.5 32.125 C32.00176025 35.62239701 30.55440755 39.11316756 29.25 42.6875 C28 46 28 46 27 47 C24.66702567 47.04092937 22.33294775 47.04241723 20 47 C18.72817133 43.35451313 17.45772143 39.70854717 16.1875 36.0625 C15.83107422 35.04091797 15.47464844 34.01933594 15.10742188 32.96679688 C14.75615234 31.95810547 14.40488281 30.94941406 14.04296875 29.91015625 C13.72352295 28.99371338 13.40407715 28.07727051 13.07495117 27.13305664 C11.69039125 23.09761319 10.34914084 19.04742252 9 15 C8.67 25.56 8.34 36.12 8 47 C5.36 47 2.72 47 0 47 C0 31.49 0 15.98 0 0 Z " fill="#525252" transform="translate(74,88)"/>
<path d="M0 0 C6.249375 -0.0928125 6.249375 -0.0928125 12.625 -0.1875 C13.92775879 -0.21481201 15.23051758 -0.24212402 16.57275391 -0.27026367 C27.31180586 -0.34757687 27.31180586 -0.34757687 32 3 C36.36462716 7.83647874 37.45371827 10.96270459 37.42578125 17.37890625 C36.73692183 21.61949953 34.33605365 24.38992694 31 27 C30.34 27 29.68 27 29 27 C29.7669334 29.04313484 30.53873202 31.08444372 31.3125 33.125 C31.74175781 34.26195312 32.17101562 35.39890625 32.61328125 36.5703125 C33.9534472 40.02154369 33.9534472 40.02154369 35.66796875 43.3046875 C37 46 37 46 37 48 C33.7 48 30.4 48 27 48 C25.82887054 45.37690901 24.66294036 42.75171858 23.5 40.125 C23.16613281 39.37863281 22.83226562 38.63226563 22.48828125 37.86328125 C22.17246094 37.14785156 21.85664063 36.43242188 21.53125 35.6953125 C21.23798828 35.03547363 20.94472656 34.37563477 20.64257812 33.69580078 C20 32 20 32 20 30 C16.37 30 12.74 30 9 30 C9 35.94 9 41.88 9 48 C6.03 48 3.06 48 0 48 C0 32.16 0 16.32 0 0 Z " fill="#555555" transform="translate(218,88)"/>
<path d="M0 0 C3.3 0 6.6 0 10 0 C14.08778649 11.43003327 14.08778649 11.43003327 16.00146484 16.79663086 C16.22845062 17.43316086 16.4554364 18.06969086 16.68930054 18.72550964 C17.14670564 20.00822468 17.60408272 21.29094971 18.06143188 22.57368469 C19.36644728 26.23167521 20.67936621 29.88668466 22 33.5390625 C22.54169383 35.04686524 23.08336305 36.55467682 23.625 38.0625 C23.8720166 38.73853271 24.1190332 39.41456543 24.37353516 40.11108398 C25.3704743 42.89966102 26 45.00961701 26 48 C23.03 48 20.06 48 17 48 C16.01 45.36 15.02 42.72 14 40 C7.73 40 1.46 40 -5 40 C-5.99 42.64 -6.98 45.28 -8 48 C-10.97 48 -13.94 48 -17 48 C-14.83673478 39.4410417 -12.05630637 31.17580636 -9.0625 22.875 C-8.63259766 21.66457031 -8.20269531 20.45414063 -7.75976562 19.20703125 C-5.41677095 12.67224488 -2.91919928 6.29896829 0 0 Z " fill="#575757" transform="translate(42,88)"/>
<path d="M0 0 C11.55 0 23.1 0 35 0 C35 2.64 35 5.28 35 8 C26.42 8 17.84 8 9 8 C9 11.63 9 15.26 9 19 C16.59 19 24.18 19 32 19 C32 21.64 32 24.28 32 27 C24.41 27 16.82 27 9 27 C9 31.29 9 35.58 9 40 C17.58 40 26.16 40 35 40 C35 42.64 35 45.28 35 48 C23.45 48 11.9 48 0 48 C0 32.16 0 16.32 0 0 Z " fill="#5B5B5B" transform="translate(175,88)"/>
<path d="M0 0 C3.06332953 3.64083551 5.4826963 7.36684166 7.8203125 11.5078125 C8.33741287 12.41876175 8.33741287 12.41876175 8.86495972 13.34811401 C9.9557785 15.27143475 11.04063084 17.19803691 12.125 19.125 C13.21764554 21.05843845 14.31152955 22.99116603 15.40646362 24.92330933 C16.39581392 26.67040297 17.38183328 28.41938163 18.36767578 30.16845703 C19.51142439 32.15248281 20.72968578 34.09452867 22 36 C22 36.99 22 37.98 22 39 C7.48 39 -7.04 39 -22 39 C-20.6045897 35.51147424 -19.29855298 32.58462119 -17.4609375 29.375 C-16.7189209 28.07598755 -16.7189209 28.07598755 -15.96191406 26.75073242 C-15.43823242 25.84299072 -14.91455078 24.93524902 -14.375 24 C-13.84100586 23.06969971 -13.30701172 22.13939941 -12.75683594 21.1809082 C-8.63813219 14.03509342 -4.40037019 6.97588098 0 0 Z " fill="#FEF9F4" transform="translate(370,50)"/>
<path d="M0 0 C13.48539786 -0.40864842 13.48539786 -0.40864842 18 3 C19.43735246 5.87470493 19.38172649 7.81894588 19 11 C16.16742659 13.98785626 14.57789749 14.93642492 10.44921875 15.390625 C5.22460938 15.1953125 5.22460938 15.1953125 0 15 C0 10.05 0 5.1 0 0 Z " fill="#F2F2F2" transform="translate(227,95)"/>
<path d="M0 0 C1.65 0 3.3 0 5 0 C6.65 3.63 8.3 7.26 10 11 C11.32 7.37 12.64 3.74 14 0 C15.65 0 17.3 0 19 0 C19 6.27 19 12.54 19 19 C17.68 19 16.36 19 15 19 C14.67 16.69 14.34 14.38 14 12 C13.34 13.98 12.68 15.96 12 18 C10.68 18 9.36 18 8 18 C7.01 15.69 6.02 13.38 5 11 C4.67 13.64 4.34 16.28 4 19 C2.68 19 1.36 19 0 19 C0 12.73 0 6.46 0 0 Z " fill="#FF9C44" transform="translate(159,150)"/>
<path d="M0 0 C2.41734542 -0.08117951 4.83194949 -0.14056926 7.25 -0.1875 C7.93191406 -0.21263672 8.61382812 -0.23777344 9.31640625 -0.26367188 C12.42774351 -0.30898261 14.66913085 -0.1691109 17.4609375 1.2578125 C19.3185194 3.36055749 19.48891541 4.29228441 19.375 7.0625 C19 11 19 11 17 13 C14.0906442 13.14517744 11.280054 13.18630796 8.375 13.125 C7.57320312 13.11597656 6.77140625 13.10695312 5.9453125 13.09765625 C3.96341477 13.07406223 1.98167019 13.03819065 0 13 C0 8.71 0 4.42 0 0 Z " fill="#F2F2F2" transform="translate(141,115)"/>
<path d="M0 0 C-0.61538462 7.50769231 -0.61538462 7.50769231 -2.5625 10 C-3.2740625 10.495 -3.2740625 10.495 -4 11 C-3.34 11.391875 -2.68 11.78375 -2 12.1875 C0 14 0 14 0.4375 16.5625 C0.293125 17.366875 0.14875 18.17125 0 19 C-4.04192978 21.69461986 -6.2051496 21.23200889 -11 21 C-13.10131385 18.89868615 -12.18514741 14.45853678 -12.1875 11.5625 C-12.19974609 10.77294922 -12.21199219 9.98339844 -12.22460938 9.16992188 C-12.22987279 7.11192565 -12.12206285 5.05437991 -12 3 C-8.73945494 -0.26054506 -4.45674419 0 0 0 Z " fill="#FF861E" transform="translate(151,154)"/>
<path d="M0 0 C1.32 0 2.64 0 4 0 C4 6.27 4 12.54 4 19 C-3.51953125 19.390625 -3.51953125 19.390625 -6 19 C-8.62902705 16.38237871 -8.97813873 15.20768207 -9.375 11.4375 C-9 8 -9 8 -7.875 6.0625 C-5.214973 4.55515137 -2.99793795 4.80013747 0 5 C0 3.35 0 1.7 0 0 Z " fill="#FFA75B" transform="translate(52,150)"/>
<path d="M0 0 C2.24940295 -0.08119503 4.49964871 -0.13927819 6.75 -0.1875 C8.00296875 -0.22230469 9.2559375 -0.25710937 10.546875 -0.29296875 C14.1557938 0.0132178 15.52276326 0.4185231 18 3 C18.5 5.5 18.5 5.5 18 8 C15.52276326 10.5814769 14.1557938 10.9867822 10.546875 11.29296875 C9.29390625 11.25816406 8.0409375 11.22335938 6.75 11.1875 C5.48671875 11.16042969 4.2234375 11.13335937 2.921875 11.10546875 C1.95765625 11.07066406 0.9934375 11.03585938 0 11 C0 7.37 0 3.74 0 0 Z " fill="#FBFBFB" transform="translate(141,96)"/>
<path d="M0 0 C1.60875 -0.04125 3.2175 -0.0825 4.875 -0.125 C5.77992188 -0.14820313 6.68484375 -0.17140625 7.6171875 -0.1953125 C10 0 10 0 12 2 C12.30078125 4.05859375 12.30078125 4.05859375 12.3125 6.4375 C12.32925781 7.21996094 12.34601563 8.00242188 12.36328125 8.80859375 C12 11 12 11 10.6796875 12.8046875 C9 14 9 14 5.8125 13.6875 C4.884375 13.460625 3.95625 13.23375 3 13 C3 14.98 3 16.96 3 19 C2.01 19 1.02 19 0 19 C0 12.73 0 6.46 0 0 Z " fill="#FF8114" transform="translate(352,155)"/>
<path d="M0 0 C2.29296875 0.00390625 2.29296875 0.00390625 5 1 C6.38303225 3.70906317 7.37660974 6.08044186 8.3125 8.9375 C8.57611328 9.67935547 8.83972656 10.42121094 9.11132812 11.18554688 C11 16.59646916 11 16.59646916 11 19 C9.68 19 8.36 19 7 19 C6.67 18.01 6.34 17.02 6 16 C3.69 16 1.38 16 -1 16 C-1.33 16.99 -1.66 17.98 -2 19 C-3.32 19 -4.64 19 -6 19 C-5.72736328 18.19949219 -5.72736328 18.19949219 -5.44921875 17.3828125 C-3.5063945 11.62408217 -1.71615568 5.83006078 0 0 Z " fill="#FF871E" transform="translate(31,150)"/>
<path d="M0 0 C2.79192205 -0.05380578 5.5828141 -0.09357669 8.375 -0.125 C9.1690625 -0.14175781 9.963125 -0.15851563 10.78125 -0.17578125 C12.85492015 -0.19335473 14.92883241 -0.10335168 17 0 C19 2 19 2 19.1953125 4.8203125 C19.17210937 5.91085938 19.14890625 7.00140625 19.125 8.125 C19.10695313 9.22070312 19.08890625 10.31640625 19.0703125 11.4453125 C19.04710937 12.28835937 19.02390625 13.13140625 19 14 C18.01 14 17.02 14 16 14 C16 10.37 16 6.74 16 3 C14.68 3.33 13.36 3.66 12 4 C11.67 7.3 11.34 10.6 11 14 C10.01 14 9.02 14 8 14 C7.67 10.7 7.34 7.4 7 4 C6.01 4 5.02 4 4 4 C3.67 7.3 3.34 10.6 3 14 C2.01 14 1.02 14 0 14 C0 9.38 0 4.76 0 0 Z " fill="#FF851C" transform="translate(329,155)"/>
<path d="M0 0 C1.875 1 1.875 1 3 3 C3.58606955 7.46529184 3.54014875 10.18977687 1 14 C-2.4375 14.4375 -2.4375 14.4375 -6 14 C-7.9375 12.4375 -7.9375 12.4375 -9 10 C-9.62376238 4.07425743 -9.62376238 4.07425743 -7.875 1.0625 C-5.11019567 -0.50422245 -3.11811483 -0.38976435 0 0 Z " fill="#FF841A" transform="translate(299,155)"/>
<path d="M0 0 C2.6541779 3.15611413 3.92267064 6.15170576 5.1875 10.0625 C5.53167969 11.10535156 5.87585937 12.14820312 6.23046875 13.22265625 C7 16 7 16 7 19 C2.71 19 -1.58 19 -6 19 C-4.70024676 12.28460827 -2.70071112 6.27980887 0 0 Z " fill="#EEEEEE" transform="translate(46,100)"/>
<path d="M0 0 C6.46585021 -0.36599152 6.46585021 -0.36599152 8.6875 1.15625 C10.47420141 3.66614008 10.50787073 5.63380241 10.6875 8.6875 C10.78611328 10.17830078 10.78611328 10.17830078 10.88671875 11.69921875 C10.92410156 12.45847656 10.96148437 13.21773437 11 14 C9.39620659 14.05416188 7.79188594 14.09286638 6.1875 14.125 C5.29417969 14.14820313 4.40085937 14.17140625 3.48046875 14.1953125 C1 14 1 14 -2 12 C-2.25 9.4375 -2.25 9.4375 -2 7 C-1 6 -1 6 2.5625 5.9375 C3.696875 5.958125 4.83125 5.97875 6 6 C6 5.01 6 4.02 6 3 C3.69 3.33 1.38 3.66 -1 4 C-0.67 2.68 -0.34 1.36 0 0 Z " fill="#FF8F2F" transform="translate(74,155)"/>
<path d="M0 0 C3.5 0.5 3.5 0.5 5.4375 2.25 C6.5 4.5 6.5 4.5 6.5 8.5 C3.53 8.5 0.56 8.5 -2.5 8.5 C-2.5 9.49 -2.5 10.48 -2.5 11.5 C0.14 11.17 2.78 10.84 5.5 10.5 C4.5 13.5 4.5 13.5 2.5 14.5 C-2.71653972 14.94396083 -2.71653972 14.94396083 -5.375 13.4375 C-7.14796631 10.38405803 -6.86343372 7.95262038 -6.5 4.5 C-4.89393218 0.81549148 -4.02265822 0.57466546 0 0 Z " fill="#FF8E2C" transform="translate(212.5,154.5)"/>
<path d="M0 0 C3.375 -0.1875 3.375 -0.1875 7 0 C9.18994248 3.28491373 9.35277339 4.83095639 9.625 8.6875 C9.69976562 9.68136719 9.77453125 10.67523438 9.8515625 11.69921875 C9.90054688 12.45847656 9.94953125 13.21773437 10 14 C8.20866022 14.05391993 6.41686101 14.09275571 4.625 14.125 C3.62726563 14.14820313 2.62953125 14.17140625 1.6015625 14.1953125 C-1 14 -1 14 -3 12 C-2.625 9.375 -2.625 9.375 -2 7 C1.465 6.505 1.465 6.505 5 6 C5 5.01 5 4.02 5 3 C2.69 3.33 0.38 3.66 -2 4 C-1.34 2.68 -0.68 1.36 0 0 Z " fill="#FF8923" transform="translate(184,155)"/>
<path d="M0 0 C1.60875 -0.04125 3.2175 -0.0825 4.875 -0.125 C5.77992187 -0.14820313 6.68484375 -0.17140625 7.6171875 -0.1953125 C10 0 10 0 12 2 C12.1953125 4.8203125 12.1953125 4.8203125 12.125 8.125 C12.10695313 9.22070312 12.08890625 10.31640625 12.0703125 11.4453125 C12.04710938 12.28835937 12.02390625 13.13140625 12 14 C11.01 14 10.02 14 9 14 C8.67 10.7 8.34 7.4 8 4 C7.01 4 6.02 4 5 4 C4.67 7.3 4.34 10.6 4 14 C2.68 14 1.36 14 0 14 C0 9.38 0 4.76 0 0 Z " fill="#FF861D" transform="translate(87,155)"/>
<path d="M0 0 C1.60875 -0.061875 3.2175 -0.12375 4.875 -0.1875 C5.77992188 -0.22230469 6.68484375 -0.25710937 7.6171875 -0.29296875 C8.79667969 -0.14794922 8.79667969 -0.14794922 10 0 C12.28062828 3.42094242 12.21925007 4.68187222 12.125 8.6875 C12.10695312 9.68136719 12.08890625 10.67523438 12.0703125 11.69921875 C12.03550781 12.83810547 12.03550781 12.83810547 12 14 C10.68 14 9.36 14 8 14 C8 10.37 8 6.74 8 3 C6.02 3.99 6.02 3.99 4 5 C3.30367785 6.95365445 3.30367785 6.95365445 3.25 9.125 C3.1675 10.40375 3.085 11.6825 3 13 C2.01 13 1.02 13 0 13 C0 8.71 0 4.42 0 0 Z " fill="#FF9030" transform="translate(124,155)"/>
<path d="M0 0 C3.375 -0.125 3.375 -0.125 7 0 C9.68092691 2.68092691 9.38670257 4.39167363 9.625 8.125 C9.69976562 9.22070312 9.77453125 10.31640625 9.8515625 11.4453125 C9.92503906 12.70988281 9.92503906 12.70988281 10 14 C8.20866022 14.05391993 6.41686101 14.09275571 4.625 14.125 C3.62726563 14.14820313 2.62953125 14.17140625 1.6015625 14.1953125 C-1 14 -1 14 -3 12 C-3 10.68 -3 9.36 -3 8 C-2.01 8 -1.02 8 0 8 C0 8.99 0 9.98 0 11 C1.65 10.67 3.3 10.34 5 10 C5.33 9.01 5.66 8.02 6 7 C5.01 6.67 4.02 6.34 3 6 C3.99 6 4.98 6 6 6 C5.67 5.01 5.34 4.02 5 3 C2.69 3.33 0.38 3.66 -2 4 C-1.34 2.68 -0.68 1.36 0 0 Z " fill="#FF8216" transform="translate(241,155)"/>
<path d="M0 0 C1.98 0 3.96 0 6 0 C6 0.99 6 1.98 6 3 C4.68 3 3.36 3 2 3 C2 3.66 2 4.32 2 5 C2.99 5 3.98 5 5 5 C5 5.99 5 6.98 5 8 C4.01 8 3.02 8 2 8 C2 11.63 2 15.26 2 19 C0.68 19 -0.64 19 -2 19 C-2 15.37 -2 11.74 -2 8 C-2.66 8 -3.32 8 -4 8 C-4 7.01 -4 6.02 -4 5 C-3.01 5 -2.02 5 -1 5 C-0.67 3.35 -0.34 1.7 0 0 Z " fill="#FF9131" transform="translate(283,150)"/>
<path d="M0 0 C1.134375 0.020625 2.26875 0.04125 3.4375 0.0625 C4.0975 1.3825 4.7575 2.7025 5.4375 4.0625 C4.1175 4.0625 2.7975 4.0625 1.4375 4.0625 C1.4375 3.4025 1.4375 2.7425 1.4375 2.0625 C0.4475 2.3925 -0.5425 2.7225 -1.5625 3.0625 C-1.5625 3.7225 -1.5625 4.3825 -1.5625 5.0625 C0.7475 5.7225 3.0575 6.3825 5.4375 7.0625 C5.625 9.4375 5.625 9.4375 5.4375 12.0625 C1.5871895 14.62937367 -0.14819763 13.89538724 -4.5625 13.0625 C-4.8925 11.7425 -5.2225 10.4225 -5.5625 9.0625 C-4.5725 9.0625 -3.5825 9.0625 -2.5625 9.0625 C-2.5625 9.7225 -2.5625 10.3825 -2.5625 11.0625 C-0.9125 11.0625 0.7375 11.0625 2.4375 11.0625 C2.4375 10.0725 2.4375 9.0825 2.4375 8.0625 C1.48875 8.10375 0.54 8.145 -0.4375 8.1875 C-3.5625 8.0625 -3.5625 8.0625 -5.5625 6.0625 C-4.83351201 0.08479846 -4.83351201 0.08479846 0 0 Z " fill="#FF8C28" transform="translate(266.5625,154.9375)"/>
<path d="M0 0 C0.66 1.65 1.32 3.3 2 5 C-0.31 4.67 -2.62 4.34 -5 4 C-5 5.98 -5 7.96 -5 10 C-1.535 9.505 -1.535 9.505 2 9 C1.625 10.9375 1.625 10.9375 1 13 C-1.82883747 14.41441874 -3.87376745 14.31900332 -7 14 C-9.57271448 11.77031412 -9.95311909 10.37504726 -10.375 7 C-9.50895779 0.07166228 -6.56849589 -0.49573554 0 0 Z " fill="#FF9132" transform="translate(391,155)"/>
<path d="M0 0 C0.66 0 1.32 0 2 0 C2 5.61 2 11.22 2 17 C-3.93734336 18.03258145 -3.93734336 18.03258145 -7 18 C-9.56158182 15.98178402 -9.86960418 14.65197912 -10.5 11.5 C-9.79247354 7.96236769 -7.90597733 6.9615347 -5 5 C-5.33 7.97 -5.66 10.94 -6 14 C-4.68 14 -3.36 14 -2 14 C-2.04125 12.80375 -2.0825 11.6075 -2.125 10.375 C-2.13851708 6.57670047 -1.42009753 3.55024382 0 0 Z " fill="#FF8821" transform="translate(53,151)"/>
<path d="M0 0 C0.99 0 1.98 0 3 0 C3.99 2.64 4.98 5.28 6 8 C6.99 5.36 7.98 2.72 9 0 C10.32 0 11.64 0 13 0 C11.45730076 4.72065967 9.92205381 9.41664092 8 14 C6.68 14 5.36 14 4 14 C3.32739649 12.23141309 2.66211605 10.46003984 2 8.6875 C1.62875 7.70136719 1.2575 6.71523437 0.875 5.69921875 C0 3 0 3 0 0 Z " fill="#FF851C" transform="translate(58,155)"/>
<path d="M0 0 C3.375 -0.125 3.375 -0.125 7 0 C9.68092691 2.68092691 9.38670257 4.39167363 9.625 8.125 C9.69976562 9.22070312 9.77453125 10.31640625 9.8515625 11.4453125 C9.92503906 12.70988281 9.92503906 12.70988281 10 14 C8.18757948 14.02687279 6.37504767 14.04633715 4.5625 14.0625 C3.55316406 14.07410156 2.54382813 14.08570313 1.50390625 14.09765625 C-1 14 -1 14 -2 13 C-2.04063832 11.33382885 -2.042721 9.66611905 -2 8 C-1.34 8 -0.68 8 0 8 C0 8.99 0 9.98 0 11 C1.65 10.67 3.3 10.34 5 10 C5 7.69 5 5.38 5 3 C4.01 2.67 3.02 2.34 2 2 C2 2.66 2 3.32 2 4 C1.01 4 0.02 4 -1 4 C-0.67 2.68 -0.34 1.36 0 0 Z " fill="#FF8720" transform="translate(369,155)"/>
<path d="M0 0 C0.99 0 1.98 0 3 0 C3 1.32 3 2.64 3 4 C3.99 4 4.98 4 6 4 C6 4.99 6 5.98 6 7 C5.01 7 4.02 7 3 7 C3 9.64 3 12.28 3 15 C3.99 15 4.98 15 6 15 C6 15.99 6 16.98 6 18 C3.625 18.125 3.625 18.125 1 18 C-1 16 -1 16 -1.1953125 13.8359375 C-1.17210937 13.02382812 -1.14890625 12.21171875 -1.125 11.375 C-1.10695312 10.55773437 -1.08890625 9.74046875 -1.0703125 8.8984375 C-1.04710937 8.27195313 -1.02390625 7.64546875 -1 7 C-1.66 7 -2.32 7 -3 7 C-3 6.01 -3 5.02 -3 4 C-2.01 4 -1.02 4 0 4 C0 2.68 0 1.36 0 0 Z " fill="#FF8E2B" transform="translate(198,151)"/>
<path d="M0 0 C1.875 1.375 1.875 1.375 3 3 C3 3.66 3 4.32 3 5 C1.68 5 0.36 5 -1 5 C-1 4.34 -1 3.68 -1 3 C-2.32 3.33 -3.64 3.66 -5 4 C-5 5.98 -5 7.96 -5 10 C-3.68 10.33 -2.36 10.66 -1 11 C-1 10.34 -1 9.68 -1 9 C0.32 9 1.64 9 3 9 C2.375 10.9375 2.375 10.9375 1 13 C-1.875 14 -1.875 14 -5 14 C-7.375 12.5 -7.375 12.5 -9 10 C-9.42841969 6.51143969 -9.66830867 4.15097604 -7.875 1.0625 C-5.11019567 -0.50422245 -3.11811483 -0.38976435 0 0 Z " fill="#FF8114" transform="translate(111,155)"/>
<path d="M0 0 C0.99 0 1.98 0 3 0 C3 1.32 3 2.64 3 4 C4.32 4 5.64 4 7 4 C7 4.99 7 5.98 7 7 C5.68 7 4.36 7 3 7 C3 9.64 3 12.28 3 15 C4.32 15 5.64 15 7 15 C7 15.99 7 16.98 7 18 C4.625 18.125 4.625 18.125 2 18 C0 16 0 16 -0.1953125 13.8359375 C-0.17210937 13.02382812 -0.14890625 12.21171875 -0.125 11.375 C-0.10695313 10.55773437 -0.08890625 9.74046875 -0.0703125 8.8984375 C-0.03550781 7.95871094 -0.03550781 7.95871094 0 7 C-0.99 7 -1.98 7 -3 7 C-3 6.01 -3 5.02 -3 4 C-2.01 4 -1.02 4 0 4 C0 2.68 0 1.36 0 0 Z " fill="#FF861E" transform="translate(397,151)"/>
<path d="M0 0 C1.32 0 2.64 0 4 0 C4 6.27 4 12.54 4 19 C2.68 19 1.36 19 0 19 C0 12.73 0 6.46 0 0 Z " fill="#FF8013" transform="translate(116,150)"/>
<path d="M0 0 C1.32 0 2.64 0 4 0 C4 6.27 4 12.54 4 19 C2.68 19 1.36 19 0 19 C0 12.73 0 6.46 0 0 Z " fill="#FF9130" transform="translate(321,150)"/>
<path d="M0 0 C2.97 0 5.94 0 9 0 C9 1.32 9 2.64 9 4 C7.35 4 5.7 4 4 4 C4 7.3 4 10.6 4 14 C2.68 14 1.36 14 0 14 C0 9.38 0 4.76 0 0 Z " fill="#FF9437" transform="translate(221,155)"/>
<path d="M0 0 C2.64 0 5.28 0 8 0 C8 1.32 8 2.64 8 4 C6.68 4 5.36 4 4 4 C4 7.3 4 10.6 4 14 C2.68 14 1.36 14 0 14 C0 9.38 0 4.76 0 0 Z " fill="#FF9130" transform="translate(305,155)"/>
<path d="M0 0 C1.32 0 2.64 0 4 0 C3.67 6.27 3.34 12.54 3 19 C2.01 19 1.02 19 0 19 C0 12.73 0 6.46 0 0 Z " fill="#FF8214" transform="translate(232,150)"/>
<path d="M0 0 C-0.48828125 6.0546875 -0.48828125 6.0546875 -1 8 C-4 10 -4 10 -6.6875 9.625 C-7.450625 9.41875 -8.21375 9.2125 -9 9 C-9 7.35 -9 5.7 -9 4 C-7.68 3.67 -6.36 3.34 -5 3 C-6.98 3 -8.96 3 -11 3 C-10.67 2.34 -10.34 1.68 -10 1 C-6.61964088 0.37400757 -3.43830115 0 0 0 Z " fill="#FF8317" transform="translate(151,154)"/>
<path d="M0 0 C0.99 0 1.98 0 3 0 C3 5.28 3 10.56 3 16 C3.66 16 4.32 16 5 16 C5 16.99 5 17.98 5 19 C3.35 18.67 1.7 18.34 0 18 C0 12.06 0 6.12 0 0 Z " fill="#FF8216" transform="translate(254,150)"/>
<path d="M0 0 C2.5654594 2.5654594 2.54046087 4.47686668 3 8 C1.02 8.33 -0.96 8.66 -3 9 C-3.33 10.65 -3.66 12.3 -4 14 C-5.32 14 -6.64 14 -8 14 C-7.25 10.625 -7.25 10.625 -6 7 C-4 5.875 -4 5.875 -2 5 C-0.71745356 2.46229997 -0.71745356 2.46229997 0 0 Z " fill="#FF8D2C" transform="translate(33,155)"/>
<path d="M0 0 C2.1519437 3.22791555 2.20086443 4.28400809 2 8 C4.64 7.67 7.28 7.34 10 7 C9 10 9 10 7 11 C1.78346028 11.44396083 1.78346028 11.44396083 -0.875 9.9375 C-2.58196395 6.99772876 -2.18799766 4.32129197 -2 1 C-1.34 0.67 -0.68 0.34 0 0 Z " fill="#FF8C28" transform="translate(208,158)"/>
<path d="M0 0 C0.33 0.66 0.66 1.32 1 2 C1.99 2 2.98 2 4 2 C4 1.34 4 0.68 4 0 C5.32 0.33 6.64 0.66 8 1 C8.04241723 3.33294775 8.04092937 5.66702567 8 8 C7 9 7 9 4.4375 9.0625 C3.633125 9.041875 2.82875 9.02125 2 9 C2 8.01 2 7.02 2 6 C1.34 5.67 0.68 5.34 0 5 C0 3.33333333 0 1.66666667 0 0 Z " fill="#FFB474" transform="translate(367,157)"/>
<path d="M0 0 C2.97 0 5.94 0 9 0 C7 3 7 3 4 4 C3.67 7.3 3.34 10.6 3 14 C2.01 14 1.02 14 0 14 C0 9.38 0 4.76 0 0 Z " fill="#FF8820" transform="translate(329,155)"/>
<path d="M0 0 C3.3 0 6.6 0 10 0 C8.7934375 0.9590625 8.7934375 0.9590625 7.5625 1.9375 C4.28309034 4.57702485 3.89018318 4.9883514 3.4375 9.0625 C3.2209375 11.0115625 3.2209375 11.0115625 3 13 C2.01 13 1.02 13 0 13 C0 8.71 0 4.42 0 0 Z " fill="#FF8215" transform="translate(124,155)"/>
<path d="M0 0 C0.99 0 1.98 0 3 0 C4.04976964 3.14930893 4.10131595 5.38814456 4.0625 8.6875 C4.05347656 9.68136719 4.04445313 10.67523438 4.03515625 11.69921875 C4.02355469 12.45847656 4.01195313 13.21773437 4 14 C2.68 14 1.36 14 0 14 C0 9.38 0 4.76 0 0 Z " fill="#FF8E2D" transform="translate(87,155)"/>
<path d="M0 0 C0.04241723 2.33294775 0.04092937 4.66702567 0 7 C-1 8 -1 8 -3.5625 8.0625 C-4.366875 8.041875 -5.17125 8.02125 -6 8 C-6 7.01 -6 6.02 -6 5 C-6.66 4.67 -7.32 4.34 -8 4 C-8 3.01 -8 2.02 -8 1 C-4.93251126 -0.86240388 -3.40254489 -1.2151946 0 0 Z " fill="#FFB87B" transform="translate(247,158)"/>
<path d="M0 0 C0.33 0.66 0.66 1.32 1 2 C1.66 2 2.32 2 3 2 C3 5.3 3 8.6 3 12 C2.34 12 1.68 12 1 12 C0.67 12.66 0.34 13.32 0 14 C0 13.01 0 12.02 0 11 C-0.99 11 -1.98 11 -3 11 C-3 8.36 -3 5.72 -3 3 C-2.01 3 -1.02 3 0 3 C0 2.01 0 1.02 0 0 Z " fill="#FFF4EC" transform="translate(204,155)"/>
<path d="M0 0 C1.32 0 2.64 0 4 0 C4 5.61 4 11.22 4 17 C3.34 17 2.68 17 2 17 C2 13.37 2 9.74 2 6 C1.01 6 0.02 6 -1 6 C-0.67 4.02 -0.34 2.04 0 0 Z " fill="#FF7B09" transform="translate(173,151)"/>
<path d="M0 0 C1.32 0 2.64 0 4 0 C4.33 1.98 4.66 3.96 5 6 C4.01 6 3.02 6 2 6 C2 9.63 2 13.26 2 17 C1.34 17 0.68 17 0 17 C0 11.39 0 5.78 0 0 Z " fill="#FF7906" transform="translate(160,151)"/>
<path d="M0 0 C0.66 0 1.32 0 2 0 C2 5.61 2 11.22 2 17 C1.01 16.67 0.02 16.34 -1 16 C-1.85330338 10.16524985 -2.48351814 5.55139349 0 0 Z " fill="#FF7A06" transform="translate(53,151)"/>
<path d="M0 0 C0.99 0 1.98 0 3 0 C3 0.66 3 1.32 3 2 C6.465 1.505 6.465 1.505 10 1 C10 1.99 10 2.98 10 4 C7.69 4.33 5.38 4.66 3 5 C3 6.98 3 8.96 3 11 C2.34 11 1.68 11 1 11 C0.67 9.35 0.34 7.7 0 6 C-0.99 6.495 -0.99 6.495 -2 7 C-1.34 4.69 -0.68 2.38 0 0 Z " fill="#FFEFE3" transform="translate(70,157)"/>
<path d="M0 0 C1.67542976 0.28604898 3.34385343 0.61781233 5 1 C5 2.98 5 4.96 5 7 C3.34385343 7.38218767 1.67542976 7.71395102 0 8 C-1 7 -1 7 -1.125 4 C-1 1 -1 1 0 0 Z " fill="#FFEDDF" transform="translate(294,158)"/>
<path d="M0 0 C1.67542976 0.28604898 3.34385343 0.61781233 5 1 C5 2.98 5 4.96 5 7 C3.34385343 7.38218767 1.67542976 7.71395102 0 8 C-1 7 -1 7 -1.125 4 C-1 1 -1 1 0 0 Z " fill="#FFEEE0" transform="translate(47,158)"/>
<path d="M0 0 C1.67542976 0.28604898 3.34385343 0.61781233 5 1 C5 2.98 5 4.96 5 7 C3.35 7.33 1.7 7.66 0 8 C-0.38063221 5.6739143 -0.71269945 3.33944736 -1 1 C-0.67 0.67 -0.34 0.34 0 0 Z " fill="#FFF0E4" transform="translate(356,158)"/>
<path d="M0 0 C1.65 0 3.3 0 5 0 C6.32229189 2.64458379 6.09677194 4.67761301 6.0625 7.625 C6.05347656 8.62789062 6.04445313 9.63078125 6.03515625 10.6640625 C6.02355469 11.43492187 6.01195312 12.20578125 6 13 C5.01 13 4.02 13 3 13 C2.95101563 12.14535156 2.90203125 11.29070312 2.8515625 10.41015625 C2.77679688 9.30542969 2.70203125 8.20070312 2.625 7.0625 C2.55539062 5.96035156 2.48578125 4.85820312 2.4140625 3.72265625 C2.27742188 2.82417969 2.14078125 1.92570313 2 1 C1.34 0.67 0.68 0.34 0 0 Z " fill="#FF7E0C" transform="translate(334,156)"/>
<path d="M0 0 C1.98 0 3.96 0 6 0 C6 1.98 6 3.96 6 6 C3.36 6 0.72 6 -2 6 C-2.33 5.34 -2.66 4.68 -3 4 C-2.01 4 -1.02 4 0 4 C0 2.68 0 1.36 0 0 Z " fill="#FF9A43" transform="translate(142,169)"/>
<path d="M0 0 C3.375 -0.125 3.375 -0.125 7 0 C9 2 9 2 9.1953125 4.1640625 C9.17210937 4.97617188 9.14890625 5.78828125 9.125 6.625 C9.10695312 7.44226563 9.08890625 8.25953125 9.0703125 9.1015625 C9.03550781 10.04128906 9.03550781 10.04128906 9 11 C8.67 11 8.34 11 8 11 C7.67 8.36 7.34 5.72 7 3 C3.80097361 2.91113816 1.07322544 3.08941469 -2 4 C-1.34 2.68 -0.68 1.36 0 0 Z " fill="#FF8D29" transform="translate(241,155)"/>
<path d="M0 0 C1.32 0 2.64 0 4 0 C4 1.65 4 3.3 4 5 C3.01 5 2.02 5 1 5 C1 9.62 1 14.24 1 19 C0.67 19 0.34 19 0 19 C0 12.73 0 6.46 0 0 Z " fill="#FFBC83" transform="translate(116,150)"/>
<path d="M0 0 C2.875 -0.125 2.875 -0.125 6 0 C8 2 8 2 8 5 C7.34 5 6.68 5 6 5 C5.67 6.32 5.34 7.64 5 9 C4.9071875 7.824375 4.9071875 7.824375 4.8125 6.625 C4.544375 5.75875 4.27625 4.8925 4 4 C1.52363988 2.62533375 1.52363988 2.62533375 -1 2 C-0.67 1.34 -0.34 0.68 0 0 Z " fill="#FF8F2E" transform="translate(356,155)"/>
<path d="M0 0 C-0.375 1.9375 -0.375 1.9375 -1 4 C-3.70879335 5.35439668 -6.00933268 5.06501451 -9 5 C-9.33 4.34 -9.66 3.68 -10 3 C-9.34 3 -8.68 3 -8 3 C-7.67 2.34 -7.34 1.68 -7 1 C-4.51587793 0.17195931 -2.64779693 0 0 0 Z " fill="#FF9232" transform="translate(393,164)"/>
<path d="M0 0 C2.475 0.495 2.475 0.495 5 1 C5 1.99 5 2.98 5 4 C5.99 4 6.98 4 8 4 C8.33 3.01 8.66 2.02 9 1 C9 2.32 9 3.64 9 5 C6.03 5 3.06 5 0 5 C0 3.35 0 1.7 0 0 Z " fill="#FFB97C" transform="translate(210,158)"/>
<path d="M0 0 C1.32 0 2.64 0 4 0 C4 1.32 4 2.64 4 4 C4.66 4.33 5.32 4.66 6 5 C3.36 5.33 0.72 5.66 -2 6 C-1.34 5.67 -0.68 5.34 0 5 C-0.2784375 4.0409375 -0.2784375 4.0409375 -0.5625 3.0625 C-0.7790625 2.0415625 -0.7790625 2.0415625 -1 1 C-0.67 0.67 -0.34 0.34 0 0 Z " fill="#FFB87B" transform="translate(185,163)"/>
<path d="M0 0 C1.65 0 3.3 0 5 0 C5.33 1.65 5.66 3.3 6 5 C4.02 5.33 2.04 5.66 0 6 C0 4.02 0 2.04 0 0 Z " fill="#FFBA7F" transform="translate(75,163)"/>
<path d="M0 0 C5.5 -0.36666667 5.5 -0.36666667 7.875 1.375 C9 3 9 3 9 5 C7.68 5 6.36 5 5 5 C5 4.34 5 3.68 5 3 C2.03 2.505 2.03 2.505 -1 2 C-0.67 1.34 -0.34 0.68 0 0 Z " fill="#FF9030" transform="translate(105,155)"/>
<path d="M0 0 C0.99 0 1.98 0 3 0 C3 0.66 3 1.32 3 2 C4.65 2 6.3 2 8 2 C8 2.99 8 3.98 8 5 C5.69 4.67 3.38 4.34 1 4 C0.67 2.68 0.34 1.36 0 0 Z " fill="#FF9030" transform="translate(261,164)"/>
<path d="M0 0 C1.32 0 2.64 0 4 0 C3.34 2.31 2.68 4.62 2 7 C1.01 7 0.02 7 -1 7 C-1.33 6.34 -1.66 5.68 -2 5 C-1.0625 2.375 -1.0625 2.375 0 0 Z " fill="#FF963C" transform="translate(67,155)"/>
<path d="M0 0 C0.99 0 1.98 0 3 0 C3.33 0.99 3.66 1.98 4 3 C4.99 3.33 5.98 3.66 7 4 C7 4.66 7 5.32 7 6 C4.625 6.125 4.625 6.125 2 6 C1.34 5.34 0.68 4.68 0 4 C0 2.68 0 1.36 0 0 Z " fill="#FF8923" transform="translate(238,163)"/>
<path d="M0 0 C0 0.99 0 1.98 0 3 C-2.31 3 -4.62 3 -7 3 C-7.33 2.34 -7.66 1.68 -8 1 C-4.93251126 -0.86240388 -3.40254489 -1.2151946 0 0 Z " fill="#FFD4AF" transform="translate(247,158)"/>
<path d="M0 0 C0.33 0.66 0.66 1.32 1 2 C1.99 2 2.98 2 4 2 C4 1.34 4 0.68 4 0 C5.32 0.33 6.64 0.66 8 1 C8 1.99 8 2.98 8 4 C2.25 4.125 2.25 4.125 0 3 C0 2.01 0 1.02 0 0 Z " fill="#FFD4AF" transform="translate(367,157)"/>
<path d="M0 0 C1.32 0 2.64 0 4 0 C3.375 1.9375 3.375 1.9375 2 4 C-1.125 4.75 -1.125 4.75 -4 5 C-4.33 4.34 -4.66 3.68 -5 3 C-3.35 3 -1.7 3 0 3 C0 2.01 0 1.02 0 0 Z " fill="#FF8B25" transform="translate(110,164)"/>
<path d="M0 0 C1.98 0.495 1.98 0.495 4 1 C4 2.32 4 3.64 4 5 C2.35 4.67 0.7 4.34 -1 4 C-0.67 2.68 -0.34 1.36 0 0 Z " fill="#FFE0C5" transform="translate(143,157)"/>
<path d="M0 0 C0.99 0 1.98 0 3 0 C3 4 3 4 1.6875 5.75 C0 7 0 7 -3 7 C-3 6.01 -3 5.02 -3 4 C-2.01 4 -1.02 4 0 4 C0 2.68 0 1.36 0 0 Z " fill="#FF9030" transform="translate(397,151)"/>
<path d="M0 0 C2 2 2 2 2 5 C-2.455 4.01 -2.455 4.01 -7 3 C-3 1 -3 1 0 0 Z " fill="#FF8C28" transform="translate(377,164)"/>
<path d="M0 0 C2.64 0 5.28 0 8 0 C8 0.66 8 1.32 8 2 C5.36 2.33 2.72 2.66 0 3 C0 2.01 0 1.02 0 0 Z " fill="#FFDFC4" transform="translate(210,163)"/>
<path d="M0 0 C2.64 0 5.28 0 8 0 C8 0.99 8 1.98 8 3 C5.69 3.33 3.38 3.66 1 4 C0.67 2.68 0.34 1.36 0 0 Z " fill="#FFDABB" transform="translate(181,158)"/>
<path d="M0 0 C1.32 0 2.64 0 4 0 C4 1.98 4 3.96 4 6 C2.68 5.67 1.36 5.34 0 5 C0 3.35 0 1.7 0 0 Z " fill="#FFB87A" transform="translate(232,150)"/>
<path d="M0 0 C0 3.38023517 -0.87455622 5.83468937 -2 9 C-2.66 9 -3.32 9 -4 9 C-4.25 6.75 -4.25 6.75 -4 4 C-2 1.6875 -2 1.6875 0 0 Z " fill="#FF7905" transform="translate(47,156)"/>
<path d="M0 0 C0.99 0 1.98 0 3 0 C3 0.66 3 1.32 3 2 C4.32 2.33 5.64 2.66 7 3 C4.69 3.33 2.38 3.66 0 4 C0 2.68 0 1.36 0 0 Z " fill="#FFD5B2" transform="translate(265,157)"/>
<path d="M0 0 C1.32 0 2.64 0 4 0 C4 1.65 4 3.3 4 5 C2.68 5.33 1.36 5.66 0 6 C0 4.02 0 2.04 0 0 Z " fill="#FF7F0F" transform="translate(268,162)"/>
<path d="M0 0 C2 2 2 2 2.125 4.625 C2.08375 5.40875 2.0425 6.1925 2 7 C0.68 7 -0.64 7 -2 7 C-1.34 4.69 -0.68 2.38 0 0 Z " fill="#FFE5CF" transform="translate(33,155)"/>
<path d="M0 0 C2.64 0 5.28 0 8 0 C8 0.99 8 1.98 8 3 C2.25 3.125 2.25 3.125 0 2 C0 1.34 0 0.68 0 0 Z " fill="#FFDABB" transform="translate(72,158)"/>
<path d="M0 0 C-0.33 1.65 -0.66 3.3 -1 5 C-1.33 4.01 -1.66 3.02 -2 2 C-6.455 2.495 -6.455 2.495 -11 3 C-10.67 2.34 -10.34 1.68 -10 1 C-6.61964088 0.37400757 -3.43830115 0 0 0 Z " fill="#FF9B44" transform="translate(151,154)"/>
<path d="M0 0 C1.98 0 3.96 0 6 0 C6 0.99 6 1.98 6 3 C4.02 3 2.04 3 0 3 C0 2.01 0 1.02 0 0 Z " fill="#FFEBDB" transform="translate(142,169)"/>
<path d="M0 0 C0.66 0.33 1.32 0.66 2 1 C2 2.65 2 4.3 2 6 C0.68 5.67 -0.64 5.34 -2 5 C-2 3.68 -2 2.36 -2 1 C-1.34 0.67 -0.68 0.34 0 0 Z " fill="#FF7906" transform="translate(74,162)"/>
<path d="M0 0 C0.1875 2.875 0.1875 2.875 0 6 C-0.99 6.66 -1.98 7.32 -3 8 C-3.6875 5.6875 -3.6875 5.6875 -4 3 C-1.72413793 0 -1.72413793 0 0 0 Z " fill="#FF7A04" transform="translate(378,158)"/>
<path d="M0 0 C0.33 0 0.66 0 1 0 C1.33 2.64 1.66 5.28 2 8 C1.01 7.67 0.02 7.34 -1 7 C-1.04254356 5.00045254 -1.04080783 2.99958364 -1 1 C-0.67 0.67 -0.34 0.34 0 0 Z " fill="#FF7803" transform="translate(383,159)"/>
<path d="M0 0 C0 1.32 0 2.64 0 4 C-1.65 3.67 -3.3 3.34 -5 3 C-5 2.34 -5 1.68 -5 1 C-3 0 -3 0 0 0 Z " fill="#FF9233" transform="translate(313,155)"/>
</svg>
