<?xml version="1.0" encoding="UTF-8"?>
<svg version="1.1" xmlns="http://www.w3.org/2000/svg" width="744" height="153">
<path d="M0 0 C245.52 0 491.04 0 744 0 C744 50.49 744 100.98 744 153 C498.48 153 252.96 153 0 153 C0 102.51 0 52.02 0 0 Z " fill="#FDFDFD" transform="translate(0,0)"/>
<path d="M0 0 C12.90352042 8.61570463 22.9666387 22.05365794 26.953125 37.1796875 C28.0253313 43.2555232 27.67290205 49.53714484 27.515625 55.6796875 C28.10730469 55.47472656 28.69898437 55.26976562 29.30859375 55.05859375 C30.09878906 54.78917969 30.88898438 54.51976562 31.703125 54.2421875 C32.48042969 53.97535156 33.25773437 53.70851562 34.05859375 53.43359375 C42.05440513 50.98018899 50.96634784 50.25007106 58.79296875 53.625 C62.71023814 56.0233282 65.06481417 59.327255 66.515625 63.6796875 C67.58218451 73.69011038 65.53372878 80.17182067 59.671875 88.20703125 C50.87429309 98.85932726 38.03524087 106.7580756 24.515625 109.6796875 C19.17488815 110.16477241 13.86131229 109.9920978 8.515625 109.6796875 C8.7321875 110.18113281 8.94875 110.68257813 9.171875 111.19921875 C11.39030368 117.22800409 11.90265276 123.00328906 12.015625 129.3671875 C12.04591797 130.17454346 12.07621094 130.98189941 12.10742188 131.8137207 C12.11225512 137.69759213 10.67006791 141.45264556 6.515625 145.6796875 C0.44347056 149.60128724 -6.4356161 149.70343582 -13.484375 148.6796875 C-17.25874747 147.18478155 -20.28532277 145.15867814 -23.484375 142.6796875 C-24.19335938 142.14988281 -24.90234375 141.62007812 -25.6328125 141.07421875 C-36.1251405 132.61201551 -44.03042724 118.94224486 -46.484375 105.6796875 C-47.43714675 96.59171081 -46.88657004 89.25466621 -41.484375 81.6796875 C-37.55415396 77.64603959 -32.78610149 74.96562133 -27.09375 74.47265625 C-20.97640794 74.66968721 -17.46133151 76.50638558 -13.11328125 80.7578125 C-11.0384056 83.20586723 -9.64911866 85.69503188 -8.484375 88.6796875 C-8.154375 87.5040625 -7.824375 86.3284375 -7.484375 85.1171875 C-5.07540391 78.62794959 0.36028088 74.51637852 6.515625 71.6796875 C5.484375 71.4528125 4.453125 71.2259375 3.390625 70.9921875 C-1.8290668 69.44522239 -5.17747529 66.8848606 -7.93359375 62.234375 C-11.28616114 55.64451473 -13.39937467 50.14769953 -12.484375 42.6796875 C-11.046875 40.0546875 -11.046875 40.0546875 -8.484375 38.6796875 C-1.92847728 37.94542696 2.66211591 40.60608103 7.86328125 44.3046875 C8.40855469 44.7584375 8.95382813 45.2121875 9.515625 45.6796875 C9.515625 46.0096875 9.515625 46.3396875 9.515625 46.6796875 C6.050625 47.1746875 6.050625 47.1746875 2.515625 47.6796875 C1.41463007 51.08276275 1.43461562 52.47311359 2.765625 55.8671875 C4.37373382 58.88366629 4.37373382 58.88366629 7.515625 60.6796875 C10.7149255 60.51972247 12.0600874 60.1677635 14.265625 57.8046875 C17.69468785 51.97528066 17.22110673 45.21063227 16.515625 38.6796875 C14.15120773 31.66119988 9.724543 27.12649889 3.2421875 23.6796875 C-1.39890538 21.97751017 -5.63900235 21.78732485 -10.484375 22.6796875 C-14.32610696 24.60055348 -15.66889872 26.70007138 -17.234375 30.5546875 C-18.33937232 33.88840823 -19.04804817 37.18907286 -19.484375 40.6796875 C-22.82920996 39.61542183 -24.95494464 38.6000057 -26.73828125 35.5 C-28.74866848 30.61869079 -30.11963868 25.96836407 -30.484375 20.6796875 C-30.55914062 19.75027344 -30.63390625 18.82085938 -30.7109375 17.86328125 C-30.99865456 11.81365154 -30.77789291 7.26340907 -27.08984375 2.3046875 C-19.38738008 -5.49148011 -9.1158967 -5.0739425 0 0 Z " fill="#058167" transform="translate(85.484375,3.3203125)"/>
<path d="M0 0 C22.44 0 44.88 0 68 0 C66.03761331 1.3082578 64.03721846 2.56162256 62 3.75 C58.44929998 6.41302501 57.35878918 7.77265588 56 12 C55.34346658 19.30523696 56.13152332 25.95728022 58 33 C58.19916016 34.11955078 58.19916016 34.11955078 58.40234375 35.26171875 C58.81174668 37.70245449 58.81174668 37.70245449 60 41 C62.50539498 42.25985516 62.50539498 42.25985516 65 43 C65.17015625 42.26394531 65.3403125 41.52789062 65.515625 40.76953125 C67.2576032 33.75528925 68.7801504 29.1465664 75 25 C82.19757033 23.75449698 87.7348554 25.05050464 93.765625 29.07421875 C97.93577669 32.66842292 100.56106244 37.12212489 103 42 C103.14977039 44.24655587 103.22150174 46.49863768 103.25 48.75 C103.27578125 49.96171875 103.3015625 51.1734375 103.328125 52.421875 C102.90547389 57.03078468 101.25102294 60.15325185 98.6875 63.9375 C97 65 97 65 94.0625 65 C90.183352 63.73333943 89.05627033 62.50327537 87 59 C86.125 55.3125 86.125 55.3125 86 52 C88.35953094 49.64046906 89.77895617 49.50858587 93 49 C87.06688148 44.076774 82.60477707 43 75 43 C72.65618926 50.03143222 73.91987361 56.108135 76.86328125 62.76953125 C79.31753832 67.58527279 82.0788625 70.71109884 87 73 C90.69523952 73.71923208 90.69523952 73.71923208 94 74 C91.72026741 75.75364045 89.4426843 77.34832231 87 78.875 C81.31332203 82.90306356 79.55876479 86.5385964 78.296875 93.20703125 C78.19890625 93.79871094 78.1009375 94.39039062 78 95 C76.92621773 93.3893266 75.86445188 91.76837917 74.88671875 90.09765625 C70.78669893 83.11776501 70.78669893 83.11776501 63.8125 79.3671875 C57.71073708 78.318447 53.49369175 79.44576477 48.13671875 82.46484375 C44.19377893 85.29770545 42.53492582 88.39522253 41 93 C38.51962561 94.07120792 36.19945818 94.91796087 33.625 95.6875 C32.90054688 95.90664062 32.17609375 96.12578125 31.4296875 96.3515625 C22.4426594 98.91700846 14.47898238 99.31386823 6 95 C1.23656258 90.23656258 -0.22339613 85.6662864 -0.24884033 78.98368835 C-0.24164978 78.20685196 -0.23445923 77.43001556 -0.22705078 76.62963867 C-0.22734283 75.79985504 -0.22763489 74.97007141 -0.22793579 74.11514282 C-0.22654661 71.38264371 -0.21100483 68.65042001 -0.1953125 65.91796875 C-0.19158091 64.01939544 -0.18873462 62.12082019 -0.18673706 60.22224426 C-0.17911214 55.23274388 -0.15947342 50.2433605 -0.1373291 45.25390625 C-0.11324284 39.26334297 -0.10408426 33.27274051 -0.09242249 27.28214264 C-0.0730484 18.18801379 -0.03471783 9.09414152 0 0 Z " fill="#D81E66" transform="translate(0,0)"/>
<path d="M0 0 C2 3 2 3 3.625 6 C7.23055074 10.55437989 10.84742835 11.60224563 16.5078125 12.31640625 C23.26722357 12.62186069 28.98196058 11.05492908 35.34765625 8.875 C38 8 38 8 40 8 C39.95359375 9.01578125 39.9071875 10.0315625 39.859375 11.078125 C39.31979511 27.95956148 44.94808543 41.68434301 55.796875 54.70703125 C61.55929483 60.70444338 68.11752409 64.51847981 76 67 C76 67.33 76 67.66 76 68 C50.92 68 25.84 68 0 68 C0 45.56 0 23.12 0 0 Z " fill="#FEFEFE" transform="translate(0,85)"/>
<path d="M0 0 C22.44 0 44.88 0 68 0 C66.03761331 1.3082578 64.03721846 2.56162256 62 3.75 C58.44929998 6.41302501 57.35878918 7.77265588 56 12 C55.41450857 18.51475382 55.86131044 24.62986257 57.48828125 30.953125 C58.23613032 33.94452128 58.60981438 36.943546 59 40 C58.20078125 39.96519531 57.4015625 39.93039063 56.578125 39.89453125 C39.18413618 39.46580617 24.83167912 45.23577426 12 57 C6.76236566 62.07678569 3.54572049 67.16924687 1 74 C0.67 74 0.34 74 0 74 C0 49.58 0 25.16 0 0 Z " fill="#FEFDFE" transform="translate(0,0)"/>
<path d="M0 0 C6.69935905 3.83987653 10.34406514 9.9099078 13 17 C14.20321528 21.61698888 13.74745803 24.5065365 12 29 C10.3125 31 10.3125 31 8 32 C1.50924573 32.12726969 -3.08865564 28.92016602 -8 25 C-8 24.67 -8 24.34 -8 24 C-5.69 23.34 -3.38 22.68 -1 22 C-1.30069352 18.16615766 -1.78310542 15.40042077 -3.625 12 C-5.94464458 9.61083465 -5.94464458 9.61083465 -9.625 10 C-13.25073889 10.68257524 -13.25073889 10.68257524 -15 14 C-17.0198028 21.7943672 -17.07700848 29.93318531 -13 37 C-9.35114735 42.35392399 -5.24787714 46.02698617 1 48 C4.97951421 48.65826551 8.36388483 48.18349476 12.25 47.0625 C17.09057263 43.43207053 18.53556201 38.20608047 19.75 32.4375 C19.8325 31.633125 19.915 30.82875 20 30 C20.53625 30.309375 21.0725 30.61875 21.625 30.9375 C24.3984957 32.17827439 27.00042837 32.5909675 30 33 C29.01 33.495 29.01 33.495 28 34 C28.2165625 34.50144531 28.433125 35.00289062 28.65625 35.51953125 C30.87467868 41.54831659 31.38702776 47.32360156 31.5 53.6875 C31.53029297 54.49485596 31.56058594 55.30221191 31.59179688 56.1340332 C31.59663012 62.01790463 30.15444291 65.77295806 26 70 C19.92784556 73.92159974 13.0487589 74.02374832 6 73 C2.22562753 71.50509405 -0.80094777 69.47899064 -4 67 C-4.70898438 66.47019531 -5.41796875 65.94039063 -6.1484375 65.39453125 C-16.6407655 56.93232801 -24.54605224 43.26255736 -27 30 C-27.95277175 20.91202331 -27.40219504 13.57497871 -22 6 C-15.90041892 -0.26009638 -8.3630786 -2.52989682 0 0 Z " fill="#30A446" transform="translate(66,79)"/>
<path d="M0 0 C12.93123339 8.63420863 23.0959114 22.15718209 26.953125 37.3671875 C28.3376837 45.65915573 28.3924152 54.0491798 24.515625 61.6796875 C20.52125374 66.39099719 16.37830428 70.18671228 10.09765625 70.98828125 C3.95028079 71.27440733 -0.02619714 70.74226763 -4.76171875 66.66796875 C-10.08297694 60.52619909 -12.90787261 52.91231567 -12.75 44.84765625 C-12.484375 42.6796875 -12.484375 42.6796875 -11.046875 40.0546875 C-7.72971222 38.27474649 -5.62009119 38.34807235 -1.9453125 38.921875 C2.40771616 40.26233145 6.03359638 42.78211286 9.515625 45.6796875 C9.515625 46.0096875 9.515625 46.3396875 9.515625 46.6796875 C6.050625 47.1746875 6.050625 47.1746875 2.515625 47.6796875 C1.41463007 51.08276275 1.43461562 52.47311359 2.765625 55.8671875 C4.37373382 58.88366629 4.37373382 58.88366629 7.515625 60.6796875 C10.7149255 60.51972247 12.0600874 60.1677635 14.265625 57.8046875 C17.69468785 51.97528066 17.22110673 45.21063227 16.515625 38.6796875 C14.15120773 31.66119988 9.724543 27.12649889 3.2421875 23.6796875 C-1.39890538 21.97751017 -5.63900235 21.78732485 -10.484375 22.6796875 C-14.32610696 24.60055348 -15.66889872 26.70007138 -17.234375 30.5546875 C-18.33937232 33.88840823 -19.04804817 37.18907286 -19.484375 40.6796875 C-22.82920996 39.61542183 -24.95494464 38.6000057 -26.73828125 35.5 C-28.74866848 30.61869079 -30.11963868 25.96836407 -30.484375 20.6796875 C-30.55914062 19.75027344 -30.63390625 18.82085938 -30.7109375 17.86328125 C-30.99865456 11.81365154 -30.77789291 7.26340907 -27.08984375 2.3046875 C-19.38738008 -5.49148011 -9.1158967 -5.0739425 0 0 Z " fill="#482378" transform="translate(85.484375,3.3203125)"/>
<path d="M0 0 C4.20261675 1.69893018 6.41945133 4.3135019 9 8 C11.13094203 14.39282608 11.17860434 23.31091555 9.12890625 29.7265625 C7.09624062 33.28539347 5.22603572 34.8635256 1.6875 37 C-3.84222794 38.49958724 -7.85727272 38.98895105 -13.25 36.5 C-18.05958209 32.12765265 -19.73609881 28.66594063 -20.3828125 22.1328125 C-20.43682698 20.71403203 -20.47572502 19.29460075 -20.5 17.875 C-20.51853027 17.19405273 -20.53706055 16.51310547 -20.55615234 15.81152344 C-20.47869058 9.56901642 -17.89224059 6.17894371 -13.9375 1.625 C-9.4060129 -0.8817801 -5.06257336 -0.6261403 0 0 Z " fill="#4F2B7D" transform="translate(598,31)"/>
<path d="M0 0 C8.52654784 3.22032708 13.03204941 9.06409882 17 17 C17.14977039 19.24655587 17.22150174 21.49863768 17.25 23.75 C17.27578125 24.96171875 17.3015625 26.1734375 17.328125 27.421875 C16.90547389 32.03078468 15.25102294 35.15325185 12.6875 38.9375 C11 40 11 40 8.0625 40 C4.183352 38.73333943 3.05627033 37.50327537 1 34 C0.125 30.3125 0.125 30.3125 0 27 C2.35953094 24.64046906 3.77895617 24.50858587 7 24 C1.06688148 19.076774 -3.39522293 18 -11 18 C-11.66 20.97 -12.32 23.94 -13 27 C-13.598125 26.236875 -14.19625 25.47375 -14.8125 24.6875 C-16.78101501 22.0936806 -16.78101501 22.0936806 -18.640625 20.6328125 C-20 19 -20 19 -20.21484375 16.73046875 C-19.51010187 10.26868048 -18.20495174 5.86722565 -13.18359375 1.375 C-9.06054066 -1.22126957 -4.67904184 -0.74368877 0 0 Z " fill="#FAF9FB" transform="translate(86,25)"/>
<path d="M0 0 C3.16017582 0.77077459 4.61375238 2.25951025 6.55078125 4.83203125 C8.18314226 7.72490269 8.49941886 10.34478065 8.5625 13.625 C6.20296906 15.98453094 4.78354383 16.11641413 1.5625 16.625 C7.97378319 21.45278073 7.97378319 21.45278073 15.5625 22.6875 C18.83471752 21.86572925 18.83471752 21.86572925 20.5625 18.625 C20.94749891 16.96950469 21.29043135 15.3027567 21.5625 13.625 C22.89583333 14.95833333 24.22916667 16.29166667 25.5625 17.625 C26.14 18.058125 26.7175 18.49125 27.3125 18.9375 C29.49225592 21.8801705 29.01598734 24.05378718 28.5625 27.625 C26.80803106 32.5660044 24.98129029 36.55302511 20.75 39.75 C14.33199888 41.51180423 9.38149587 41.30832577 3.5859375 38.08984375 C-1.2700274 34.57442514 -5.16974545 30.05486288 -7.9375 24.75 C-9.00989927 18.04750455 -9.47742421 10.85684464 -6.4375 4.625 C-4.40444929 1.96100252 -3.25280347 0.83405217 0 0 Z " fill="#F9FCF9" transform="translate(57.4375,87.375)"/>
<path d="M0 0 C2 3 2 3 1.875 6.5 C1 10 1 10 -0.5625 11.875 C-4.11854754 13.51625271 -7.07484512 13.81007315 -11 14 C-13.1385485 11.8614515 -13.42655063 10.86724686 -14 8 C-18.07335597 13.46993517 -19.82899624 17.13117399 -19 24 C-15.99382731 27.00617269 -13.17618402 26.59585316 -9 27 C-9.556875 27.4125 -10.11375 27.825 -10.6875 28.25 C-13.07192205 29.98799756 -13.07192205 29.98799756 -15.3125 32.1875 C-18.85347978 34.57560264 -20.78983321 34.50812358 -25 34 C-30.28845145 32.20730459 -34.43204083 30.13591834 -37 25 C-37.81036809 18.22763808 -37.29513507 12.8258107 -33.625 7.0078125 C-25.17399645 -3.43405247 -12.02660946 -6.29841831 0 0 Z " fill="#FDF9FB" transform="translate(62,52)"/>
<path d="M0 0 C5.08772075 1.61111157 8.49310478 3.18676117 11 8 C11.93201792 14.1205713 11.53981876 19.75214177 8.390625 25.15234375 C3.90928558 31.10648292 -1.68103556 35.35545536 -9 37 C-14.70047177 37.62186965 -19.83826379 36.43081763 -25 34 C-27.45306479 31.97885181 -27.93447661 31.33489733 -28.5625 28.125 C-27.91690427 24.53835707 -26.71641459 23.06975638 -23.79296875 20.91015625 C-20.79405023 19.38782942 -18.26321611 19.56072091 -15 20 C-12.8614515 22.1385485 -12.57344937 23.13275314 -12 26 C-8.17264102 20.09493185 -6.35682969 16.07487342 -7 9 C-9.64 8.01 -12.28 7.02 -15 6 C-10.22106449 1.05627361 -6.96129259 -0.8189756 0 0 Z " fill="#F8FBFB" transform="translate(116,67)"/>
<path d="M0 0 C16 0 16 0 22 5 C23.53214888 8.06429776 23.22938548 10.6165642 23 14 C21.59539303 16.87305972 20.25489001 18.74510999 18 21 C18.33816764 24.85857952 20.60348577 27.9383067 22.5625 31.1875 C26 36.90744467 26 36.90744467 26 38 C23.69 38 21.38 38 19 38 C18.49210937 37.00097656 17.98421875 36.00195312 17.4609375 34.97265625 C16.76673417 33.66867973 16.07135992 32.36532611 15.375 31.0625 C14.87806641 30.0734668 14.87806641 30.0734668 14.37109375 29.06445312 C13.23786424 26.87521213 13.23786424 26.87521213 11 24 C9.02 23.67 7.04 23.34 5 23 C5 27.95 5 32.9 5 38 C3.35 38 1.7 38 0 38 C0 25.46 0 12.92 0 0 Z " fill="#4D297C" transform="translate(440,31)"/>
<path d="M0 0 C16 0 16 0 21 4 C23.50304378 7.75456567 23.45280074 9.54745934 23 14 C19.94736842 19.68421053 19.94736842 19.68421053 16 21 C16.30292969 21.47945068 16.60585938 21.95890137 16.91796875 22.45288086 C18.28096482 24.61296752 19.64052314 26.77519693 21 28.9375 C21.47695313 29.69224609 21.95390625 30.44699219 22.4453125 31.22460938 C23.12207031 32.30258789 23.12207031 32.30258789 23.8125 33.40234375 C24.23144531 34.06741943 24.65039062 34.73249512 25.08203125 35.41772461 C26 37 26 37 26 38 C23.69 38 21.38 38 19 38 C18.49210937 37.00097656 17.98421875 36.00195312 17.4609375 34.97265625 C16.76673417 33.66867973 16.07135992 32.36532611 15.375 31.0625 C14.87806641 30.0734668 14.87806641 30.0734668 14.37109375 29.06445312 C13.23786424 26.87521213 13.23786424 26.87521213 11 24 C9.02 23.67 7.04 23.34 5 23 C5 27.95 5 32.9 5 38 C3.35 38 1.7 38 0 38 C0 25.46 0 12.92 0 0 Z " fill="#492579" transform="translate(303,31)"/>
<path d="M0 0 C15 0 15 0 21 4 C23.59107284 7.41550511 23.50288306 10.83325464 23 15 C21.56104672 17.44461579 20.06607296 18.98311925 18 21 C17.34 21 16.68 21 16 21 C16.6496875 22.05960938 17.299375 23.11921875 17.96875 24.2109375 C18.81273123 25.59881775 19.65646864 26.98684629 20.5 28.375 C20.92925781 29.07367188 21.35851562 29.77234375 21.80078125 30.4921875 C25 35.7734375 25 35.7734375 25 38 C22.2734375 38.3984375 22.2734375 38.3984375 19 38 C17.16955445 35.82672853 15.95233009 34.07307185 14.625 31.625 C14.27050781 31.02171875 13.91601562 30.4184375 13.55078125 29.796875 C11 25.36501569 11 25.36501569 11 23 C9.02 23 7.04 23 5 23 C5 27.95 5 32.9 5 38 C3.35 38 1.7 38 0 38 C0 25.46 0 12.92 0 0 Z " fill="#4C287B" transform="translate(184,31)"/>
<path d="M0 0 C1.65 0 3.3 0 5 0 C6.9191997 2.28114069 8.40315606 4.35411896 9.9375 6.875 C10.54368164 7.82246094 10.54368164 7.82246094 11.16210938 8.7890625 C14.55013458 14.12453526 17.74904035 19.58173391 21 25 C21.33 16.75 21.66 8.5 22 0 C23.65 0 25.3 0 27 0 C27 12.54 27 25.08 27 38 C25.35 38 23.7 38 22 38 C20.50195312 36.47460938 20.50195312 36.47460938 19.28125 34.34375 C18.82363281 33.56773438 18.36601563 32.79171875 17.89453125 31.9921875 C17.43433594 31.16976562 16.97414063 30.34734375 16.5 29.5 C15.57323362 27.90606567 14.64615226 26.31231444 13.71875 24.71875 C13.31591797 24.00654297 12.91308594 23.29433594 12.49804688 22.56054688 C10.41088276 18.99304733 8.19058936 15.50494298 6 12 C5.67 20.58 5.34 29.16 5 38 C3.35 38 1.7 38 0 38 C0 25.46 0 12.92 0 0 Z " fill="#4A2579" transform="translate(646,31)"/>
<path d="M0 0 C1.98 0 3.96 0 6 0 C7.71280242 5.0890579 9.42169983 10.17940363 11.12695312 15.27099609 C11.70790528 17.00378013 12.28993274 18.73620403 12.87304688 20.46826172 C13.70984713 22.95446929 14.54280229 25.44193615 15.375 27.9296875 C15.63748535 28.70682098 15.8999707 29.48395447 16.17041016 30.28463745 C18 35.77225659 18 35.77225659 18 38 C16.02 38 14.04 38 12 38 C11.01 34.04 10.02 30.08 9 26 C5.04 26 1.08 26 -3 26 C-3.99 29.96 -4.98 33.92 -6 38 C-7.98 38 -9.96 38 -12 38 C-9.80345089 29.47459602 -7.13081612 21.15058039 -4.3125 12.8125 C-3.68891602 10.9552832 -3.68891602 10.9552832 -3.05273438 9.06054688 C-2.03791686 6.03942347 -1.02029029 3.0192786 0 0 Z " fill="#4B277B" transform="translate(420,31)"/>
<path d="M0 0 C3.21954645 2.53453657 4.70432435 4.11297305 6 8 C7.01913064 18.90469783 7.01913064 18.90469783 4.953125 23.15234375 C2.36210288 26.26919094 0.23738812 27.83126526 -3.75 28.375 C-8.30278706 27.84967842 -9.77905482 26.22094518 -13 23 C-14.14544249 19.56367253 -14.2397802 16.74568045 -14.3125 13.125 C-14.34988281 11.91070312 -14.38726563 10.69640625 -14.42578125 9.4453125 C-13.92772309 5.41515381 -12.83027718 3.84603011 -10 1 C-6.78070427 -0.60964787 -3.48112288 -0.60686242 0 0 Z " fill="#F8F6F9" transform="translate(597,36)"/>
<path d="M0 0 C1.65 0 3.3 0 5 0 C5 5.61 5 11.22 5 17 C10.28 17 15.56 17 21 17 C21 11.72 21 6.44 21 1 C22.65 1 24.3 1 26 1 C26 13.54 26 26.08 26 39 C24.35 39 22.7 39 21 39 C21 33.39 21 27.78 21 22 C15.72 22 10.44 22 5 22 C5 27.61 5 33.22 5 39 C3.35 39 1.7 39 0 39 C0 26.13 0 13.26 0 0 Z " fill="#4A257A" transform="translate(500,30)"/>
<path d="M0 0 C1.65 0 3.3 0 5 0 C5 5.61 5 11.22 5 17 C10.28 17 15.56 17 21 17 C21 11.72 21 6.44 21 1 C22.65 1 24.3 1 26 1 C26 13.54 26 26.08 26 39 C24.35 39 22.7 39 21 39 C21 33.39 21 27.78 21 22 C15.72 22 10.44 22 5 22 C5 27.61 5 33.22 5 39 C3.35 39 1.7 39 0 39 C0 26.13 0 13.26 0 0 Z " fill="#4A267A" transform="translate(255,30)"/>
<path d="M0 0 C1.65 0 3.3 0 5 0 C5.12418758 4.30491463 5.21461002 8.6088635 5.2746582 12.91503906 C5.29970529 14.37778907 5.33375392 15.84041512 5.37719727 17.30273438 C5.43829356 19.41307219 5.46630435 21.52174752 5.48828125 23.6328125 C5.51446533 24.90012207 5.54064941 26.16743164 5.56762695 27.47314453 C4.8182753 32.12911615 3.28664755 33.68060646 0 37 C-4.15010157 39.71657412 -8.20599175 39.85613963 -13 39 C-16.56404348 37.33524781 -18.85525575 35.30060776 -21 32 C-21.98463035 26.65684421 -21.75783501 21.45453551 -21.5 16.0625 C-21.45982155 14.60100899 -21.42332838 13.13941176 -21.390625 11.67773438 C-21.30296563 8.11626311 -21.16521592 4.55881456 -21 1 C-19.35 1 -17.7 1 -16 1 C-15.9906543 1.86278564 -15.98130859 2.72557129 -15.97167969 3.61450195 C-15.92764278 6.8186184 -15.86602106 10.02177728 -15.79248047 13.2253418 C-15.76427203 14.61128396 -15.74305667 15.99738696 -15.72900391 17.38354492 C-15.70757579 19.37707404 -15.65882986 21.37025046 -15.609375 23.36328125 C-15.58842773 24.56251221 -15.56748047 25.76174316 -15.54589844 26.99731445 C-15.2768449 30.07033809 -15.2768449 30.07033809 -13.14941406 31.89135742 C-10.22064367 33.40198286 -8.25381962 33.40672745 -5 33 C-2.73630186 31.99247811 -2.73630186 31.99247811 -1 30 C-0.35402587 26.81176656 -0.35402587 26.81176656 -0.390625 23.14453125 C-0.37408875 22.48289474 -0.35755249 21.82125824 -0.34051514 21.13957214 C-0.29200712 19.03045399 -0.27066073 16.92205677 -0.25 14.8125 C-0.22184223 13.38082305 -0.19191505 11.94917972 -0.16015625 10.51757812 C-0.08625107 7.01187607 -0.03669212 3.50631125 0 0 Z " fill="#4F2B7D" transform="translate(635,30)"/>
<path d="M0 0 C2.73917882 1.62970523 5.07496057 3.44888392 7 6 C7 7.32 7 8.64 7 10 C5.35 10.33 3.7 10.66 2 11 C1.34 9.68 0.68 8.36 0 7 C-2.31 7 -4.62 7 -7 7 C-7.33 8.32 -7.66 9.64 -8 11 C-7.33613281 11.53109375 -6.67226563 12.0621875 -5.98828125 12.609375 C-3.32552083 14.73958333 -0.66276042 16.86979167 2 19 C2.91394531 19.70640625 3.82789063 20.4128125 4.76953125 21.140625 C7.70253107 23.58564762 7.93386254 24.4268087 8.375 28.25 C7.87855761 33.21442386 6.52492587 34.55704915 3 38 C-1.06331623 39.35443874 -4.75175619 39.53009721 -9 39 C-12.67524052 36.96688822 -13.7388923 35.6465524 -15.3125 31.75 C-15.539375 30.8425 -15.76625 29.935 -16 29 C-14.35 28.67 -12.7 28.34 -11 28 C-10.484375 28.825 -9.96875 29.65 -9.4375 30.5 C-7.15071666 33.35716467 -7.15071666 33.35716467 -3.375 33.5 C-1.704375 33.2525 -1.704375 33.2525 0 33 C2.36980013 30.04622502 2.36980013 30.04622502 2 26 C-0.26396508 24.12912546 -2.43017505 22.53309515 -4.875 20.9375 C-6.16727198 20.07641184 -7.45646866 19.2106863 -8.7421875 18.33984375 C-9.3182373 17.96206787 -9.89428711 17.58429199 -10.48779297 17.19506836 C-13.3090304 14.96549826 -13.98300054 13.13113869 -14.4375 9.625 C-13.89086006 5.09569763 -12.48343405 3.8199228 -9 1 C-5.79745853 -0.60127074 -3.54685436 -0.40701607 0 0 Z " fill="#4F2C7E" transform="translate(373,30)"/>
<path d="M0 0 C6.6 0 13.2 0 20 0 C20 1.65 20 3.3 20 5 C15.38 5 10.76 5 6 5 C6 8.63 6 12.26 6 16 C9.3 16 12.6 16 16 16 C16 17.65 16 19.3 16 21 C12.37 21 8.74 21 5 21 C5 24.96 5 28.92 5 33 C9.95 33 14.9 33 20 33 C20 34.65 20 36.3 20 38 C13.4 38 6.8 38 0 38 C0 25.46 0 12.92 0 0 Z " fill="#502D7E" transform="translate(386,31)"/>
<path d="M0 0 C6.6 0 13.2 0 20 0 C20 1.65 20 3.3 20 5 C15.38 5 10.76 5 6 5 C6 8.63 6 12.26 6 16 C9.3 16 12.6 16 16 16 C16 17.65 16 19.3 16 21 C12.37 21 8.74 21 5 21 C5 24.96 5 28.92 5 33 C9.95 33 14.9 33 20 33 C20 34.65 20 36.3 20 38 C13.4 38 6.8 38 0 38 C0 25.46 0 12.92 0 0 Z " fill="#502D7E" transform="translate(332,31)"/>
<path d="M0 0 C4.01057061 1.96744973 5.62265266 3.10808811 7.375 7.25 C7.58125 8.1575 7.7875 9.065 8 10 C6.35 10.33 4.7 10.66 3 11 C2.443125 10.175 1.88625 9.35 1.3125 8.5 C-0.74131252 5.76771241 -0.74131252 5.76771241 -3.625 5.5625 C-6.17899853 5.80079504 -6.17899853 5.80079504 -8 8 C-8.11896472 9.96018331 -8.11896472 9.96018331 -7 12 C-4.34562744 14.31937698 -4.34562744 14.31937698 -1.125 16.5 C5.87078095 21.42233262 5.87078095 21.42233262 8 25 C8.49677002 28.35319767 8.74097161 30.770536 6.9453125 33.75 C4.6162385 36.61655261 2.80052373 38.78033611 -0.953125 39.23828125 C-5.11808347 39.37286324 -7.64883553 39.16304065 -11.5 37.375 C-14.44830323 34.57411193 -14.81830834 32.99721657 -15 29 C-13.35 28.67 -11.7 28.34 -10 28 C-9.814375 28.639375 -9.62875 29.27875 -9.4375 29.9375 C-8.06801965 32.38164833 -8.06801965 32.38164833 -4.5625 32.875 C-0.89377824 33.35062805 -0.89377824 33.35062805 2 31 C2.82506925 28.63501144 2.82506925 28.63501144 2 26 C-0.27678699 24.0709729 -2.37699752 22.51891644 -4.875 20.9375 C-12.91119044 15.7418244 -12.91119044 15.7418244 -14 12 C-14 7.37855373 -13.48252436 5.53996774 -10.375 2.0625 C-6.4020042 -0.36544188 -4.57443948 -0.73517777 0 0 Z " fill="#4E297C" transform="translate(241,30)"/>
<path d="M0 0 C0.66 0.33 1.32 0.66 2 1 C3.66619446 1.0396713 5.33391013 1.04384447 7 1 C7.08115993 4.06303578 7.14057409 7.12390815 7.1875 10.1875 C7.21263672 11.05181641 7.23777344 11.91613281 7.26367188 12.80664062 C7.3197835 17.68835222 7.25490183 21.067322 4 25 C0.81458315 26.59270842 -2.53297512 26.39055419 -6 26 C-8.5 24.6875 -8.5 24.6875 -10 23 C-10 22.01 -10 21.02 -10 20 C-6.50765756 19.90021879 -3.40562852 20.22157062 0 21 C0.33 20.01 0.66 19.02 1 18 C-0.60875 18.0928125 -0.60875 18.0928125 -2.25 18.1875 C-6.126819 17.99365905 -7.36506068 17.73628314 -10 15 C-11.22414155 11.32757535 -11.46559007 8.8577463 -11 5 C-7.6121525 1.29700389 -5.12652952 -0.85442159 0 0 Z " fill="#2F2B2C" transform="translate(543,88)"/>
<path d="M0 0 C1.135132 1.702698 2.25653447 3.41526987 3.33203125 5.15625 C7.07222646 11.26508085 7.07222646 11.26508085 13 15 C16.69523952 15.71923208 16.69523952 15.71923208 20 16 C17.72026741 17.75364045 15.4426843 19.34832231 13 20.875 C7.31332203 24.90306356 5.55876479 28.5385964 4.296875 35.20703125 C4.19890625 35.79871094 4.1009375 36.39039063 4 37 C2.92621773 35.3893266 1.86445188 33.76837917 0.88671875 32.09765625 C-2.9582469 25.57248653 -6.51960725 22.08755147 -14 20 C-13 18 -13 18 -9.6875 16.1875 C-5.48270174 13.82660918 -2.72816599 11.47160342 -1.31640625 6.6796875 C-0.81176054 4.45924636 -0.37190858 2.24613211 0 0 Z " fill="#F6F7F7" transform="translate(74,58)"/>
<path d="M0 0 C1.921875 1.09765625 1.921875 1.09765625 4.796875 3.09765625 C4.136875 4.41765625 3.476875 5.73765625 2.796875 7.09765625 C0.62813248 6.59161633 -1.20280127 6.09781812 -3.203125 5.09765625 C-7.2639823 4.63793656 -9.53751182 4.7294447 -13.140625 6.72265625 C-16.43095285 12.1068291 -16.0573548 17.9472017 -15.203125 24.09765625 C-13.52072849 27.61895126 -12.48737802 28.90815423 -9.203125 31.09765625 C-5.10392596 30.79953268 -1.74699821 30.22398018 1.796875 28.09765625 C2.786875 29.41765625 3.776875 30.73765625 4.796875 32.09765625 C-0.20357694 35.73434857 -3.79075075 38.04763762 -10.203125 37.09765625 C-15.54051973 35.10921508 -18.65646324 32.19097977 -21.203125 27.09765625 C-21.38155987 24.18712022 -21.4808706 21.32257467 -21.515625 18.41015625 C-21.54462891 17.61931641 -21.57363281 16.82847656 -21.60351562 16.01367188 C-21.66607334 10.18617998 -20.53719591 6.89230906 -17.203125 2.09765625 C-12.61741108 -2.08343585 -5.62629772 -2.3043879 0 0 Z " fill="#4F2B7D" transform="translate(569.203125,31.90234375)"/>
<path d="M0 0 C1.921875 1.09765625 1.921875 1.09765625 4.796875 3.09765625 C4.136875 4.41765625 3.476875 5.73765625 2.796875 7.09765625 C0.62813248 6.59161633 -1.20280127 6.09781812 -3.203125 5.09765625 C-7.44509733 4.61743297 -9.44800686 4.52201546 -12.8984375 7.15234375 C-15.80855652 10.8713772 -15.8451092 12.92211507 -15.765625 17.59765625 C-15.76691406 18.88671875 -15.76820313 20.17578125 -15.76953125 21.50390625 C-15.12695249 25.58095769 -14.15313904 27.25886357 -11.203125 30.09765625 C-6.92036679 31.36662165 -4.9067307 31.39189136 -0.765625 29.66015625 C0.08 29.14453125 0.925625 28.62890625 1.796875 28.09765625 C2.786875 29.41765625 3.776875 30.73765625 4.796875 32.09765625 C-0.20357694 35.73434857 -3.79075075 38.04763762 -10.203125 37.09765625 C-14.88482768 35.35349251 -17.41561691 33.22729786 -20.203125 29.09765625 C-21.45839904 25.33183413 -21.46529735 21.77321299 -21.515625 17.84765625 C-21.54462891 17.10902344 -21.57363281 16.37039062 -21.60351562 15.609375 C-21.66834824 9.95397616 -20.41014764 6.76295537 -17.203125 2.09765625 C-12.61741108 -2.08343585 -5.62629772 -2.3043879 0 0 Z " fill="#4F2B7D" transform="translate(700.203125,31.90234375)"/>
<path d="M0 0 C2.40342402 1.09505118 3.95691016 2.2795033 6 4 C5.34 5.32 4.68 6.64 4 8 C3.34 7.67 2.68 7.34 2 7 C-2.02985632 5.65671456 -4.74421055 5.59468672 -9 6 C-11.37705923 7.42152217 -11.37705923 7.42152217 -13 10 C-13.42806075 12.97280809 -13.60551118 15.47478876 -13.5625 18.4375 C-13.58634766 19.18837891 -13.61019531 19.93925781 -13.63476562 20.71289062 C-13.62366167 24.921288 -13.31843536 26.5822214 -10.68359375 30.0390625 C-8.08279513 32.3541044 -8.08279513 32.3541044 -4.5 31.9375 C-1.53107673 31.1422527 1.20533083 30.27030417 4 29 C4.99 30.32 5.98 31.64 7 33 C1.53959281 37.06626068 -2.13990057 38.99582089 -9 38 C-13.37605354 35.72781835 -16.39138563 33.17597511 -19 29 C-19.58474045 25.67568357 -19.55886309 22.42995911 -19.5 19.0625 C-19.51546875 18.18142578 -19.5309375 17.30035156 -19.546875 16.39257812 C-19.51314358 10.76364792 -18.7577124 7.44918735 -15 3 C-10.65523063 -0.83362004 -5.52028645 -0.83640704 0 0 Z " fill="#4E2A7C" transform="translate(489,31)"/>
<path d="M0 0 C1.65 0 3.3 0 5 0 C5 8.25 5 16.5 5 25 C-7.38192695 25.49527708 -7.38192695 25.49527708 -10.359375 23.109375 C-13.07959972 19.61194322 -13.43454241 17.43233257 -13 13 C-11.4375 10.1875 -11.4375 10.1875 -9 8 C-2.93023256 6.53488372 -2.93023256 6.53488372 0 8 C0 5.36 0 2.72 0 0 Z " fill="#343031" transform="translate(584,81)"/>
<path d="M0 0 C2.625 0.125 2.625 0.125 5.625 1.125 C6.73875 0.8775 7.8525 0.63 9 0.375 C12.625 0.125 12.625 0.125 15.5625 1.75 C18.74983618 6.96564103 18.01773015 12.16422906 17.625 18.125 C15.975 18.125 14.325 18.125 12.625 18.125 C12.295 14.165 11.965 10.205 11.625 6.125 C10.305 6.125 8.985 6.125 7.625 6.125 C7.295 10.085 6.965 14.045 6.625 18.125 C4.975 18.125 3.325 18.125 1.625 18.125 C1.295 14.165 0.965 10.205 0.625 6.125 C-0.695 6.125 -2.015 6.125 -3.375 6.125 C-3.705 10.085 -4.035 14.045 -4.375 18.125 C-6.025 18.125 -7.675 18.125 -9.375 18.125 C-9.375 12.515 -9.375 6.905 -9.375 1.125 C-7.395 1.125 -5.415 1.125 -3.375 1.125 C-2.375 0.125 -2.375 0.125 0 0 Z " fill="#343132" transform="translate(437.375,87.875)"/>
<path d="M0 0 C1.39072087 0.20499738 2.78670965 0.38203871 4.1875 0.5 C4.5175 0.17 4.8475 -0.16 5.1875 -0.5 C11.33685162 -0.04449247 11.33685162 -0.04449247 13.90234375 1.59765625 C15.89756247 4.55106511 15.47146775 7.18250513 15.375 10.6875 C15.34792969 11.95980469 15.32085937 13.23210937 15.29296875 14.54296875 C15.25816406 15.51878906 15.22335937 16.49460937 15.1875 17.5 C13.8675 17.5 12.5475 17.5 11.1875 17.5 C10.8575 13.54 10.5275 9.58 10.1875 5.5 C8.8675 5.5 7.5475 5.5 6.1875 5.5 C5.8575 9.46 5.5275 13.42 5.1875 17.5 C3.5375 17.5 1.8875 17.5 0.1875 17.5 C-0.1425 13.54 -0.4725 9.58 -0.8125 5.5 C-2.1325 5.5 -3.4525 5.5 -4.8125 5.5 C-5.1425 9.46 -5.4725 13.42 -5.8125 17.5 C-7.4625 17.5 -9.1125 17.5 -10.8125 17.5 C-10.8125 11.89 -10.8125 6.28 -10.8125 0.5 C-4.11294843 -0.61659193 -4.11294843 -0.61659193 0 0 Z " fill="#2E2B2C" transform="translate(293.8125,88.5)"/>
<path d="M0 0 C1.65 0 3.3 0 5 0 C5 11.22 5 22.44 5 34 C10.61 34 16.22 34 22 34 C22 35.65 22 37.3 22 39 C14.74 39 7.48 39 0 39 C0 26.13 0 13.26 0 0 Z " fill="#512D7F" transform="translate(722,30)"/>
<path d="M0 0 C2.31 0 4.62 0 7 0 C8.17430074 3.2681432 9.33811256 6.53992515 10.5 9.8125 C10.83386719 10.74126953 11.16773438 11.67003906 11.51171875 12.62695312 C11.82753906 13.51962891 12.14335937 14.41230469 12.46875 15.33203125 C12.76201172 16.15421143 13.05527344 16.9763916 13.35742188 17.82348633 C14 20 14 20 14 23 C12.35 23 10.7 23 9 23 C8.67 21.35 8.34 19.7 8 18 C5.03 18 2.06 18 -1 18 C-1.33 19.65 -1.66 21.3 -2 23 C-3.65 23 -5.3 23 -7 23 C-5.48526781 15.01323028 -2.83197448 7.59877122 0 0 Z " fill="#2D2A2B" transform="translate(176,83)"/>
<path d="M0 0 C2.85801731 1.98818595 4.61901083 3.47604331 5.484375 6.9375 C5.7545711 10.90037614 5.23136937 12.66346274 2.9375 16 C-0.77807226 18.52975133 -2.5882483 18.7878128 -7 18 C-9.9375 15.9375 -9.9375 15.9375 -12 13 C-12.69151325 8.69725091 -12.51557405 6.79054688 -10.125 3.125 C-6.81702459 -0.18297541 -4.63953877 -0.54582809 0 0 Z " fill="#2E2B2C" transform="translate(275,88)"/>
<path d="M0 0 C2.20703125 1.5703125 2.20703125 1.5703125 4 4 C4.390625 7.453125 4.390625 7.453125 4.25 11.25 C4.21390625 12.51328125 4.1778125 13.7765625 4.140625 15.078125 C4.07101562 16.52445313 4.07101562 16.52445313 4 18 C1.72975032 18.08097324 -0.54132075 18.13917704 -2.8125 18.1875 C-4.70935547 18.23970703 -4.70935547 18.23970703 -6.64453125 18.29296875 C-10 18 -10 18 -11.9296875 16.6484375 C-13.43965521 14.32286679 -13.34778158 12.71269629 -13 10 C-10.6870518 7.6870518 -9.52095125 7.50419025 -6.375 6.875 C-5.55773437 6.70742187 -4.74046875 6.53984375 -3.8984375 6.3671875 C-3.27195312 6.24601562 -2.64546875 6.12484375 -2 6 C-3.94603274 5.40929986 -3.94603274 5.40929986 -6 5 C-6.33 5.33 -6.66 5.66 -7 6 C-8.66617115 6.04063832 -10.33388095 6.042721 -12 6 C-9.46977419 0.16101737 -6.15523662 -0.64791964 0 0 Z " fill="#343132" transform="translate(517,88)"/>
<path d="M0 0 C5.61 0 11.22 0 17 0 C17 1.32 17 2.64 17 4 C12.71 4 8.42 4 4 4 C4 5.65 4 7.3 4 9 C7.63 9 11.26 9 15 9 C15 10.32 15 11.64 15 13 C11.37 13 7.74 13 4 13 C4 14.98 4 16.96 4 19 C8.29 19 12.58 19 17 19 C17 20.32 17 21.64 17 23 C11.39 23 5.78 23 0 23 C0 15.41 0 7.82 0 0 Z " fill="#221F20" transform="translate(660,83)"/>
<path d="M0 0 C1.9375 1.125 1.9375 1.125 3 3 C3.6875 6.6875 3.6875 6.6875 4 10 C-0.29 10 -4.58 10 -9 10 C-8.67 10.66 -8.34 11.32 -8 12 C-6.33388095 12.042721 -4.66617115 12.04063832 -3 12 C-2.67 11.67 -2.34 11.34 -2 11 C-0.33382885 10.95936168 1.33388095 10.957279 3 11 C1.25 15.875 1.25 15.875 -1 17 C-7.99869622 17.68839635 -7.99869622 17.68839635 -12 14.9375 C-14.51930235 11.23727467 -14.7066341 9.3968344 -14 5 C-10.02022499 -1.10232168 -6.92820251 -1.56168499 0 0 Z " fill="#322F30" transform="translate(393,89)"/>
<path d="M0 0 C1.65 0 3.3 0 5 0 C5.33 2.31 5.66 4.62 6 7 C7.093125 7.0825 8.18625 7.165 9.3125 7.25 C13 8 13 8 14.71875 9.625 C16.43196158 12.80070927 16.29506695 15.164435 16.1875 18.75 C16.16042969 19.92046875 16.13335938 21.0909375 16.10546875 22.296875 C16.07066406 23.18890625 16.03585937 24.0809375 16 25 C14.35 25 12.7 25 11 25 C10.67 21.04 10.34 17.08 10 13 C8.68 13 7.36 13 6 13 C5.67 16.96 5.34 20.92 5 25 C3.35 25 1.7 25 0 25 C0 16.75 0 8.5 0 0 Z " fill="#322E2F" transform="translate(553,81)"/>
<path d="M0 0 C1.65 0 3.3 0 5 0 C5.33 2.31 5.66 4.62 6 7 C7.093125 7.0825 8.18625 7.165 9.3125 7.25 C13 8 13 8 14.71875 9.625 C16.43196158 12.80070927 16.29506695 15.164435 16.1875 18.75 C16.16042969 19.92046875 16.13335937 21.0909375 16.10546875 22.296875 C16.07066406 23.18890625 16.03585937 24.0809375 16 25 C14.35 25 12.7 25 11 25 C10.67 21.04 10.34 17.08 10 13 C8.68 13 7.36 13 6 13 C5.67 16.96 5.34 20.92 5 25 C3.35 25 1.7 25 0 25 C0 16.75 0 8.5 0 0 Z " fill="#343132" transform="translate(486,81)"/>
<path d="M0 0 C1.98 0 3.96 0 6 0 C6 12.87 6 25.74 6 39 C4.02 39 2.04 39 0 39 C0 26.13 0 13.26 0 0 Z " fill="#5E3D88" transform="translate(214,30)"/>
<path d="M0 0 C2.17578125 1.0390625 2.17578125 1.0390625 4 3 C4.45781902 5.68528464 4.69472304 7.99651714 4.75 10.6875 C4.77964844 11.38939453 4.80929687 12.09128906 4.83984375 12.81445312 C4.91037033 14.54235424 4.95747068 16.2711832 5 18 C2.72975032 18.08097324 0.45867925 18.13917704 -1.8125 18.1875 C-3.70935547 18.23970703 -3.70935547 18.23970703 -5.64453125 18.29296875 C-9 18 -9 18 -10.91796875 16.64453125 C-12.50708362 14.22930613 -12.56405945 12.82029726 -12 10 C-8.59420689 7.1952292 -5.32189851 6.50254634 -1 6 C-4.57644848 4.7619986 -7.33694766 5.25073929 -11 6 C-10.6875 4.125 -10.6875 4.125 -10 2 C-6.28986601 -0.47342266 -4.38939738 -0.38503486 0 0 Z " fill="#2E2B2C" transform="translate(343,88)"/>
<path d="M0 0 C2.875 2.125 2.875 2.125 5 5 C5 6.98 5 8.96 5 11 C1.04 11 -2.92 11 -7 11 C-6.67 11.66 -6.34 12.32 -6 13 C-4.33388095 13.042721 -2.66617115 13.04063832 -1 13 C-0.67 12.67 -0.34 12.34 0 12 C1.66617115 11.95936168 3.33388095 11.957279 5 12 C3.84826645 14.46800047 2.95216435 16.04783565 1 18 C-3.83941768 18.55534301 -5.91355714 18.72429524 -10 16 C-12.20809832 12.68785252 -12.81013892 10.85009577 -12.55078125 6.9375 C-10.9103053 1.16674772 -5.48688806 -1.16742299 0 0 Z " fill="#3B3738" transform="translate(604,88)"/>
<path d="M0 0 C5.56701031 2.88659794 5.56701031 2.88659794 6.875 6.25 C6.91625 6.8275 6.9575 7.405 7 8 C4.625 8.125 4.625 8.125 2 8 C1.34 7.34 0.68 6.68 0 6 C-2.95769177 5.49989476 -2.95769177 5.49989476 -6 6 C-8.11670357 7.46041766 -8.11670357 7.46041766 -9 10 C-8.81541642 15.05107191 -8.81541642 15.05107191 -6 19 C-1.65805064 18.90304884 -1.65805064 18.90304884 2 17 C3.66617115 16.95936168 5.33388095 16.957279 7 17 C5.59505784 20.39527689 4.30238306 22.30647023 1 24 C-2.98030397 24.83396845 -6.40054945 25.01635147 -9.91796875 22.78125 C-13.2250193 19.45063377 -14.40767485 16.55800647 -14.625 11.875 C-14.35018738 7.4645926 -13.33491541 5.04906552 -10 2 C-6.24543433 -0.50304378 -4.45254066 -0.45280074 0 0 Z " fill="#2E2B2C" transform="translate(235,82)"/>
<path d="M0 0 C1.32 0 2.64 0 4 0 C4 2.64 4 5.28 4 8 C5.0725 7.7525 6.145 7.505 7.25 7.25 C11 7 11 7 13.375 8.75 C16.02011691 12.41246957 16.11415398 15.29691157 16.0625 19.6875 C16.05347656 20.68136719 16.04445313 21.67523438 16.03515625 22.69921875 C16.02355469 23.45847656 16.01195312 24.21773437 16 25 C14.35 25 12.7 25 11 25 C10.67 21.04 10.34 17.08 10 13 C8.68 13 7.36 13 6 13 C5.67 16.96 5.34 20.92 5 25 C3.35 25 1.7 25 0 25 C0 16.75 0 8.5 0 0 Z " fill="#322E2F" transform="translate(245,81)"/>
<path d="M0 0 C1.32 0 2.64 0 4 0 C4 2.64 4 5.28 4 8 C5.0725 7.7525 6.145 7.505 7.25 7.25 C11 7 11 7 13.21875 8.53125 C15.64515662 11.89416443 15.4018739 14.14940473 15.25 18.25 C15.21390625 19.51328125 15.1778125 20.7765625 15.140625 22.078125 C15.07101562 23.52445313 15.07101562 23.52445313 15 25 C13.68 25 12.36 25 11 25 C10.67 21.04 10.34 17.08 10 13 C8.68 13 7.36 13 6 13 C5.67 16.96 5.34 20.92 5 25 C3.35 25 1.7 25 0 25 C0 16.75 0 8.5 0 0 Z " fill="#2D292A" transform="translate(313,81)"/>
<path d="M0 0 C2.5604763 3.33022283 2.27467647 5.53686043 2.12109375 9.68359375 C2.085 10.946875 2.04890625 12.21015625 2.01171875 13.51171875 C1.94210938 14.95804688 1.94210938 14.95804688 1.87109375 16.43359375 C0.22109375 16.43359375 -1.42890625 16.43359375 -3.12890625 16.43359375 C-3.45890625 12.47359375 -3.78890625 8.51359375 -4.12890625 4.43359375 C-5.44890625 4.43359375 -6.76890625 4.43359375 -8.12890625 4.43359375 C-8.45890625 8.39359375 -8.78890625 12.35359375 -9.12890625 16.43359375 C-10.77890625 16.43359375 -12.42890625 16.43359375 -14.12890625 16.43359375 C-14.12890625 10.82359375 -14.12890625 5.21359375 -14.12890625 -0.56640625 C-2.94185374 -2.16455661 -2.94185374 -2.16455661 0 0 Z " fill="#383536" transform="translate(206.12890625,89.56640625)"/>
<path d="M0 0 C2.89840168 0.25203493 5.21675405 0.48934545 7.68359375 2.09765625 C9.7231108 5.0449702 9.28446133 7.66457181 9.1875 11.1875 C9.16042969 12.45980469 9.13335938 13.73210937 9.10546875 15.04296875 C9.07066406 16.01878906 9.03585937 16.99460937 9 18 C7.35 18 5.7 18 4 18 C3.67 14.04 3.34 10.08 3 6 C1.68 6 0.36 6 -1 6 C-1.33 9.96 -1.66 13.92 -2 18 C-3.65 18 -5.3 18 -7 18 C-7 12.39 -7 6.78 -7 1 C-5.02 1 -3.04 1 -1 1 C-0.67 0.67 -0.34 0.34 0 0 Z " fill="#363334" transform="translate(637,88)"/>
<path d="M0 0 C1.65 0 3.3 0 5 0 C5.33 3.96 5.66 7.92 6 12 C7.32 12 8.64 12 10 12 C10.33 8.04 10.66 4.08 11 0 C12.65 0 14.3 0 16 0 C16 5.61 16 11.22 16 17 C4.48849372 17.37133891 4.48849372 17.37133891 2.17578125 15.61328125 C-0.24247369 12.29521052 -0.10572491 9.93814139 -0.0625 5.875 C-0.05347656 4.77929688 -0.04445313 3.68359375 -0.03515625 2.5546875 C-0.02355469 1.71164063 -0.01195312 0.86859375 0 0 Z " fill="#332F30" transform="translate(409,89)"/>
<path d="M0 0 C3.4375 0.25 3.4375 0.25 7 1 C9.49118953 4.7367843 9.2065226 6.74451819 9.125 11.1875 C9.10695313 12.45980469 9.08890625 13.73210937 9.0703125 15.04296875 C9.03550781 16.50669922 9.03550781 16.50669922 9 18 C7.68 18 6.36 18 5 18 C4.67 14.04 4.34 10.08 4 6 C2.68 6 1.36 6 0 6 C-0.33 9.96 -0.66 13.92 -1 18 C-2.65 18 -4.3 18 -6 18 C-6 12.39 -6 6.78 -6 1 C-4.35 1 -2.7 1 -1 1 C-0.67 0.67 -0.34 0.34 0 0 Z " fill="#2F2B2C" transform="translate(734,88)"/>
<path d="M0 0 C2.49118953 3.7367843 2.2065226 5.74451819 2.125 10.1875 C2.10695313 11.45980469 2.08890625 12.73210937 2.0703125 14.04296875 C2.03550781 15.50669922 2.03550781 15.50669922 2 17 C0.68 17 -0.64 17 -2 17 C-2.33 13.04 -2.66 9.08 -3 5 C-4.32 5 -5.64 5 -7 5 C-7.33 8.96 -7.66 12.92 -8 17 C-9.65 17 -11.3 17 -13 17 C-13 11.39 -13 5.78 -13 0 C-4.4015748 -1.22834646 -4.4015748 -1.22834646 0 0 Z " fill="#2E2A2B" transform="translate(722,89)"/>
<path d="M0 0 C5.61 0 11.22 0 17 0 C17 1.32 17 2.64 17 4 C15.02 4 13.04 4 11 4 C11 10.27 11 16.54 11 23 C9.35 23 7.7 23 6 23 C6 16.73 6 10.46 6 4 C4.02 4 2.04 4 0 4 C0 2.68 0 1.36 0 0 Z " fill="#2F2B2C" transform="translate(467,83)"/>
<path d="M0 0 C1.32 0 2.64 0 4 0 C4 12.54 4 25.08 4 38 C2.68 38 1.36 38 0 38 C0 25.46 0 12.92 0 0 Z " fill="#451E76" transform="translate(711,31)"/>
<path d="M0 0 C1.32 0 2.64 0 4 0 C4 12.54 4 25.08 4 38 C2.68 38 1.36 38 0 38 C0 25.46 0 12.92 0 0 Z " fill="#451E76" transform="translate(173,31)"/>
<path d="M0 0 C8.36923077 -0.36923077 8.36923077 -0.36923077 11.5625 1.5 C12.036875 1.995 12.51125 2.49 13 3 C12.3902439 9.46341463 12.3902439 9.46341463 10.75 11.71875 C8.47011619 13.38795064 7.1064604 13.30897654 4.3125 13.1875 C2.889375 13.125625 1.46625 13.06375 0 13 C0 8.71 0 4.42 0 0 Z " fill="#F8F7FA" transform="translate(445,36)"/>
<path d="M0 0 C8.21900826 -0.48347107 8.21900826 -0.48347107 11.625 1.625 C13 4 13 4 13 7.0625 C12 10 12 10 10.4375 11.875 C6.85660328 13.52772156 3.92364165 13.19618208 0 13 C0 8.71 0 4.42 0 0 Z " fill="#F8F7F9" transform="translate(308,36)"/>
<path d="M0 0 C8.21900826 -0.48347107 8.21900826 -0.48347107 11.625 1.625 C13 4 13 4 13 7.0625 C12 10 12 10 10.4375 11.875 C6.85660328 13.52772156 3.92364165 13.19618208 0 13 C0 8.71 0 4.42 0 0 Z " fill="#F7F6F9" transform="translate(189,36)"/>
<path d="M0 0 C0 1.65 0 3.3 0 5 C-1.32 5 -2.64 5 -4 5 C-4.33 9.29 -4.66 13.58 -5 18 C-6.65 18 -8.3 18 -10 18 C-10 12.39 -10 6.78 -10 1 C-3 0 -3 0 0 0 Z " fill="#302C2D" transform="translate(698,88)"/>
<path d="M0 0 C1.32 0 2.64 0 4 0 C4 8.25 4 16.5 4 25 C2.68 25 1.36 25 0 25 C0 16.75 0 8.5 0 0 Z " fill="#252122" transform="translate(372,81)"/>
<path d="M0 0 C1.32 0 2.64 0 4 0 C4 1.65 4 3.3 4 5 C2.35 5.66 0.7 6.32 -1 7 C-1.33 10.63 -1.66 14.26 -2 18 C-3.32 18 -4.64 18 -6 18 C-6 12.39 -6 6.78 -6 1 C-4.35 1 -2.7 1 -1 1 C-0.67 0.67 -0.34 0.34 0 0 Z " fill="#2D2A2B" transform="translate(366,88)"/>
<path d="M0 0 C1.65 0 3.3 0 5 0 C5 5.61 5 11.22 5 17 C3.35 17 1.7 17 0 17 C0 11.39 0 5.78 0 0 Z " fill="#383536" transform="translate(622,89)"/>
<path d="M0 0 C1.65 0 3.3 0 5 0 C5 5.61 5 11.22 5 17 C3.35 17 1.7 17 0 17 C0 11.39 0 5.78 0 0 Z " fill="#383536" transform="translate(351,89)"/>
<path d="M0 0 C1.32 0 2.64 0 4 0 C4 5.61 4 11.22 4 17 C2.68 17 1.36 17 0 17 C0 11.39 0 5.78 0 0 Z " fill="#231F20" transform="translate(701,89)"/>
<path d="M0 0 C1.32 0 2.64 0 4 0 C4 5.61 4 11.22 4 17 C2.68 17 1.36 17 0 17 C0 11.39 0 5.78 0 0 Z " fill="#231F20" transform="translate(680,89)"/>
<path d="M0 0 C1.32 0 2.64 0 4 0 C4 5.61 4 11.22 4 17 C2.68 17 1.36 17 0 17 C0 11.39 0 5.78 0 0 Z " fill="#221F20" transform="translate(525,89)"/>
<path d="M0 0 C2.5625 0.1875 2.5625 0.1875 4.5625 2.1875 C4.1875 5.3125 4.1875 5.3125 3.5625 8.1875 C1.1875 8.8125 1.1875 8.8125 -1.4375 9.1875 C-3.4375 7.1875 -3.4375 7.1875 -3.625 4.125 C-3.37828947 0.25986842 -3.37828947 0.25986842 0 0 Z " fill="#F5F4F5" transform="translate(540.4375,92.8125)"/>
<path d="M0 0 C2.5625 0.1875 2.5625 0.1875 4.5625 2.1875 C4.1875 5.3125 4.1875 5.3125 3.5625 8.1875 C1.1875 8.8125 1.1875 8.8125 -1.4375 9.1875 C-3.4375 7.1875 -3.4375 7.1875 -3.625 4.125 C-3.37828947 0.25986842 -3.37828947 0.25986842 0 0 Z " fill="#F1F1F1" transform="translate(271.4375,92.8125)"/>
<path d="M0 0 C4.55555556 0.55555556 4.55555556 0.55555556 6 2 C6.1875 4.4375 6.1875 4.4375 6 7 C5.34 7.66 4.68 8.32 4 9 C-0.55555556 8.44444444 -0.55555556 8.44444444 -2 7 C-2.1875 4.5625 -2.1875 4.5625 -2 2 C-1.34 1.34 -0.68 0.68 0 0 Z " fill="#F8F8F8" transform="translate(578,93)"/>
<path d="M0 0 C0.66 0 1.32 0 2 0 C2.99 3.63 3.98 7.26 5 11 C2.36 11 -0.28 11 -3 11 C-2.01 7.37 -1.02 3.74 0 0 Z " fill="#E7E3ED" transform="translate(422,41)"/>
<path d="M0 0 C4.29 0 8.58 0 13 0 C12.67 0.66 12.34 1.32 12 2 C10.7934375 1.9690625 10.7934375 1.9690625 9.5625 1.9375 C7.06645115 1.70366379 7.06645115 1.70366379 6 3 C4.33382885 3.04063832 2.66611905 3.042721 1 3 C0.67 2.01 0.34 1.02 0 0 Z " fill="#D8D7D7" transform="translate(384,99)"/>
<path d="M0 0 C2.5654594 2.5654594 2.54046087 4.47686668 3 8 C1.35 8 -0.3 8 -2 8 C-1.125 2.25 -1.125 2.25 0 0 Z " fill="#EEEDED" transform="translate(179,89)"/>
<path d="M0 0 C3.96 0 7.92 0 12 0 C12 0.33 12 0.66 12 1 C8.17679443 2.42258812 5.08718695 3.24042276 1 3 C0.67 2.01 0.34 1.02 0 0 Z " fill="#DBDADA" transform="translate(597,99)"/>
<path d="M0 0 C-0.33 0.66 -0.66 1.32 -1 2 C-4.91765889 2.81309902 -8.17907588 3.37553268 -12 2 C-11.67 1.34 -11.34 0.68 -11 0 C-7.01133873 -0.99716532 -3.9676931 -1.0502717 0 0 Z " fill="#E0DFE0" transform="translate(343,93)"/>
<path d="M0 0 C1.65 0 3.3 0 5 0 C4.3125 1.9375 4.3125 1.9375 3 4 C0.375 4.75 0.375 4.75 -2 5 C-1.34 3.35 -0.68 1.7 0 0 Z " fill="#424041" transform="translate(669,76)"/>
<path d="M0 0 C-0.33 0.66 -0.66 1.32 -1 2 C-4.375 2.75 -4.375 2.75 -8 3 C-8.99 2.34 -9.98 1.68 -11 1 C-6.87831311 -0.62950412 -4.29299643 -1.26264601 0 0 Z " fill="#E2E1E1" transform="translate(516,93)"/>
<path d="M0 0 C0.33 0.99 0.66 1.98 1 3 C0 4 0 4 -3.0625 4.0625 C-4.5165625 4.0315625 -4.5165625 4.0315625 -6 4 C-6 3.01 -6 2.02 -6 1 C-4.02 0.67 -2.04 0.34 0 0 Z " fill="#E8E8E8" transform="translate(342,98)"/>
<path d="M0 0 C0.33 0.99 0.66 1.98 1 3 C0 4 0 4 -3.0625 4.0625 C-4.5165625 4.0315625 -4.5165625 4.0315625 -6 4 C-5.67 3.01 -5.34 2.02 -5 1 C-3.35 0.67 -1.7 0.34 0 0 Z " fill="#EFEEEE" transform="translate(515,98)"/>
<path d="M0 0 C1.65 0 3.3 0 5 0 C5 1.32 5 2.64 5 4 C3.35 4 1.7 4 0 4 C0 2.68 0 1.36 0 0 Z " fill="#383536" transform="translate(700,83)"/>
<path d="M0 0 C1.65 0 3.3 0 5 0 C5 1.32 5 2.64 5 4 C3.35 4 1.7 4 0 4 C0 2.68 0 1.36 0 0 Z " fill="#383536" transform="translate(680,83)"/>
<path d="M0 0 C1.65 0 3.3 0 5 0 C5 1.32 5 2.64 5 4 C3.35 4 1.7 4 0 4 C0 2.68 0 1.36 0 0 Z " fill="#383536" transform="translate(622,83)"/>
<path d="M0 0 C1.65 0 3.3 0 5 0 C5 1.32 5 2.64 5 4 C3.35 4 1.7 4 0 4 C0 2.68 0 1.36 0 0 Z " fill="#383536" transform="translate(351,83)"/>
<path d="M0 0 C1.65 0.33 3.3 0.66 5 1 C5 1.66 5 2.32 5 3 C2.69 3 0.38 3 -2 3 C-1.34 2.01 -0.68 1.02 0 0 Z " fill="#DAD9D9" transform="translate(386,92)"/>
</svg>
