<?xml version="1.0" encoding="UTF-8"?>
<svg version="1.1" xmlns="http://www.w3.org/2000/svg" width="4246" height="872">
<path d="M0 0 C1.2041316 0.00394052 1.2041316 0.00394052 2.43258908 0.00796065 C3.28130652 0.0068068 4.13002395 0.00565296 5.0044601 0.00446415 C7.88557148 0.00178982 10.76662843 0.00632631 13.64773706 0.01075396 C15.71925003 0.01031842 17.79076295 0.00944384 19.86227557 0.00816479 C25.58361324 0.00591636 31.30493237 0.00994585 37.02626768 0.01494285 C43.18513517 0.0192422 49.34400154 0.0178013 55.50287011 0.01704058 C66.18315114 0.01651502 76.86342547 0.01963046 87.54370454 0.02527842 C98.74909195 0.03118892 109.95447693 0.03504304 121.15986589 0.03613123 C122.2036819 0.03623434 122.2036819 0.03623434 123.26858511 0.03633953 C126.8023787 0.03667785 130.33617228 0.03697924 133.86996587 0.03726641 C158.92084548 0.03936863 183.97172191 0.04611101 209.02259973 0.05556902 C233.36407091 0.06474861 257.70554122 0.07181769 282.04701379 0.07607684 C283.57683048 0.07634748 285.10664716 0.07661818 286.63646385 0.07688895 C298.48015405 0.07897442 310.32384427 0.08092613 322.1675345 0.08284351 C380.26823305 0.09228532 438.36892348 0.1124017 496.46962121 0.13100848 C496.46962121 84.61100848 496.46962121 169.09100848 496.46962121 256.13100848 C580.94962121 256.13100848 665.42962121 256.13100848 752.46962121 256.13100848 C752.46962121 421.79100848 752.46962121 587.45100848 752.46962121 758.13100848 C750.81962121 758.46100848 749.16962121 758.79100848 747.46962121 759.13100848 C747.03702953 756.83028328 746.60473138 754.52950384 746.17274621 752.22866473 C746.03749536 751.50832552 745.9022445 750.78798632 745.76289514 750.04581866 C744.92970884 745.6022883 744.10462429 741.157358 743.28669885 736.71099505 C729.78556258 663.38470803 709.22852195 592.15620553 678.46962121 524.13100848 C678.19738732 523.52680071 677.92515344 522.92259295 677.64467004 522.30007586 C664.88672492 493.99561505 650.96164674 466.2946571 634.98182824 439.66323504 C633.5928597 437.33737425 632.22650158 435.00048018 630.87196496 432.65444598 C614.04266843 403.53644719 594.82001292 375.88459758 574.46962121 349.13100848 C573.70520715 348.12167254 572.94079309 347.1123366 572.15321496 346.07241473 C562.44474135 333.31085058 552.26056452 320.9284738 541.84217981 308.74184832 C540.43643553 307.09206164 539.04035012 305.43446103 537.64540246 303.77553973 C530.50128372 295.31346877 523.01900638 287.21495951 515.40272668 279.17739519 C512.13667611 275.71995192 508.89798377 272.23704436 505.65712121 268.75600848 C501.61447931 264.39454314 501.61447931 264.39454314 497.46962121 260.13100848 C497.13962121 426.78100848 496.80962121 593.43100848 496.46962121 765.13100848 C494.81962121 765.46100848 493.16962121 765.79100848 491.46962121 766.13100848 C491.21905969 765.03675555 490.96849816 763.94250262 490.71034387 762.81509051 C469.46164983 670.36070701 433.57693195 582.94307896 369.75819543 498.78286394 C368.43909806 497.09188008 367.12791053 495.39496468 365.81727746 493.69741473 C356.76904688 482.02364709 347.19155284 470.86282328 337.13758996 460.04507098 C335.77646221 458.55839264 334.41700592 457.06887674 333.1143966 455.53066668 C327.30984713 448.68870051 320.91333488 442.4243713 314.56361535 436.09463152 C312.53699141 434.0733658 310.51576574 432.04681274 308.49501184 430.01968035 C302.32394683 423.84509766 296.16322915 417.74440792 289.46962121 412.13100848 C288.30084515 411.10998058 287.13418174 410.08652939 285.96962121 409.06069598 C258.90875962 385.39635438 230.11329919 363.94259246 199.46962121 345.13100848 C198.81155481 344.72543719 198.1534884 344.3198659 197.47548059 343.90200457 C162.59443451 322.4650692 125.77915854 304.5328791 87.46962121 290.13100848 C86.44368859 289.73961687 85.41775598 289.34822527 84.36073449 288.94497332 C56.14915331 278.2118592 27.17816207 270.51788433 -2.2305741 263.88491473 C-6.01247045 263.02086501 -9.77335347 262.09682475 -13.53037879 261.13100848 C-13.20037879 259.48100848 -12.87037879 257.83100848 -12.53037879 256.13100848 C154.11962121 255.80100848 320.76962121 255.47100848 492.46962121 255.13100848 C479.25368184 241.82737993 479.25368184 241.82737993 465.46962121 229.13100848 C463.3579376 227.17980263 461.25398575 225.22283234 459.15712121 223.25600848 C454.36312981 218.79596492 449.44451125 214.56791294 444.33680871 210.46694598 C441.05382424 207.7922529 437.85722418 205.02866723 434.65712121 202.25600848 C427.76629344 196.31647751 420.67885161 190.67748673 413.46962121 185.13100848 C412.28722863 184.21762713 412.28722863 184.21762713 411.08094934 183.28579363 C408.44328415 181.25029154 405.80093398 179.22101809 403.15712121 177.19350848 C402.35266564 176.57379168 401.54821008 175.95407488 400.71937707 175.31557879 C386.93866523 164.79512563 372.58023846 155.05513258 358.15712121 145.44350848 C357.38270684 144.92731951 356.60829248 144.41113055 355.81041101 143.87929949 C332.05345466 128.0726765 307.63337561 113.57848455 282.46962121 100.13100848 C281.85064965 99.79971941 281.2316781 99.46843035 280.59394982 99.12710223 C208.93246351 60.82475341 131.7070616 33.2124866 -5.53037879 5.13100848 C-6.09287879 3.19350848 -6.09287879 3.19350848 -6.53037879 1.13100848 C-4.75207672 -0.64729359 -2.36842951 0.00737377 0 0 Z " fill="#000000" transform="translate(13.53037878870964,99.8689915239811)"/>
<path d="M0 0 C182.3939951 0 182.3939951 0 215.1875 30.6875 C232.06646281 48.21774112 237.51710338 70.27599162 237.35351562 94.0612793 C236.7895255 119.49924841 228.23395508 142.90237356 210 161 C197.22548861 172.40459059 182.08889718 178.80113971 166 184 C174.01016448 197.9958951 182.10851837 211.92411523 190.43725586 225.73339844 C195.32211793 233.8423332 200.11118274 242.00359932 204.86914062 250.1875 C210.32884414 259.57695621 215.85215448 268.92796889 221.38671875 278.2734375 C223.02071002 281.03500144 224.65146729 283.79845047 226.28125 286.5625 C227.37492223 288.41671254 228.46867175 290.27087949 229.5625 292.125 C230.35672363 293.4713855 230.35672363 293.4713855 231.16699219 294.8449707 C233.92066678 299.50577943 236.69031887 304.15624041 239.484375 308.79296875 C240.04310303 309.72028809 240.60183105 310.64760742 241.17749023 311.60302734 C242.24782948 313.37675064 243.32018123 315.14926143 244.39477539 316.92041016 C244.86906982 317.70593262 245.34336426 318.49145508 245.83203125 319.30078125 C246.25202393 319.99341064 246.6720166 320.68604004 247.10473633 321.3996582 C248 323 248 323 248 324 C230.18 324 212.36 324 194 324 C190.04 316.74 186.08 309.48 182 302 C177.64451611 294.32282049 177.64451611 294.32282049 173.2578125 286.6640625 C169.53759083 280.19801778 165.82895842 273.72537009 162.125 267.25 C161.78571472 266.65713196 161.44642944 266.06426392 161.09686279 265.45343018 C156.30633405 257.0797371 151.57110699 248.67712419 146.875 240.25 C140.67361328 229.12621839 134.40427798 218.02619112 127.77410889 207.15080261 C126 204 126 204 124.4961853 200.43287659 C122.81315669 196.58461987 121.0670268 192.93795135 118 190 C112.57483039 188.01102649 107.3671106 188.21653293 101.6875 188.4140625 C100.28579622 188.41477351 98.8840748 188.40917706 97.48242188 188.3972168 C92.32105608 188.39693494 87.16025954 188.51814291 82 188.625 C70.45 188.74875 58.9 188.8725 47 189 C47 233.55 47 278.1 47 324 C31.49 324 15.98 324 0 324 C0 217.08 0 110.16 0 0 Z M47 38 C47 75.29 47 112.58 47 151 C61.85 151.0825 76.7 151.165 92 151.25 C96.65738281 151.28641602 101.31476563 151.32283203 106.11328125 151.36035156 C110.35485254 151.37374422 110.35485254 151.37374422 114.59643555 151.3817749 C116.45910486 151.38784427 118.32176028 151.40175749 120.18432617 151.42230225 C139.95871883 151.62917 159.11909551 149.25082132 174.2265625 135.00390625 C185.30274227 122.48831105 189.60108427 107.19930327 189.3125 90.75 C188.110792 76.32950397 183.27500883 63.10218216 172.5390625 53.06640625 C154.51993844 38.40161144 132.50885677 37.66916843 110.37890625 37.8046875 C108.74605446 37.80763773 107.11320075 37.80967211 105.48034668 37.81079102 C99.50770178 37.82116482 93.53509769 37.84908652 87.5625 37.875 C74.176875 37.91625 60.79125 37.9575 47 38 Z " fill="#000000" transform="translate(1047,543)"/>
<path d="M0 0 C8.80155064 8.3656911 13.04779384 16.34558769 18.6875 27.625 C19.0175 14.095 19.3475 0.565 19.6875 -13.375 C34.5375 -13.375 49.3875 -13.375 64.6875 -13.375 C64.75375711 16.52802485 64.80910297 46.43100894 64.84069599 76.33408746 C64.84444767 79.87222054 64.84833068 83.41035347 64.85229492 86.94848633 C64.85308185 87.65280275 64.85386878 88.35711918 64.85467956 89.08277852 C64.8676989 100.45563811 64.89133339 111.82845175 64.91895839 123.20128416 C64.94710961 134.88908164 64.96369669 146.57685522 64.96976548 158.26468521 C64.9736637 164.82188768 64.9827742 171.37898627 65.00469017 177.93615532 C65.02518639 184.119151 65.03130741 190.30200088 65.02682304 196.48502731 C65.0276424 198.74353772 65.03352916 201.00205345 65.04511642 203.26053429 C65.19245427 233.48324136 59.27040244 261.34391646 37.6875 283.625 C15.25754203 304.86685425 -16.87350108 311.34216042 -46.83496094 310.55493164 C-76.75844819 309.2954639 -104.65312502 300.97653109 -125.83984375 279.00390625 C-138.16006582 264.83038582 -144.25759142 248.11917721 -146.3125 229.625 C-131.7925 229.625 -117.2725 229.625 -102.3125 229.625 C-100.6625 234.575 -99.0125 239.525 -97.3125 244.625 C-88.78251104 258.89632768 -76.97092519 267.02310374 -60.8828125 271.08203125 C-41.42241183 275.19296695 -20.35785197 273.49625431 -3.3125 262.625 C9.16508157 253.39088069 16.36104877 239.90862101 18.6875 224.625 C18.9521396 219.73784594 18.9215145 214.85721757 18.8828125 209.96484375 C18.87907474 208.5652334 18.87623138 207.16562039 18.87423706 205.76600647 C18.86666061 202.11146613 18.84706486 198.45708892 18.8248291 194.8026123 C18.80424041 191.06179001 18.79520771 187.32094094 18.78515625 183.58007812 C18.76381224 176.261645 18.72975024 168.9433455 18.6875 161.625 C18.41524597 162.2427832 18.14299194 162.86056641 17.86248779 163.49707031 C17.32485809 164.71281738 17.32485809 164.71281738 16.77636719 165.953125 C16.24423615 167.1582373 16.24423615 167.1582373 15.70135498 168.38769531 C8.53095942 184.21082575 -4.1981492 195.94118288 -20.22265625 202.5625 C-47.07231885 211.79525376 -75.12757905 209.35963917 -100.4609375 197.1015625 C-122.0023771 185.51102413 -136.68063054 163.78276893 -143.6875 140.75 C-144.63628123 137.39112935 -145.49876492 134.01895339 -146.3125 130.625 C-146.49039062 129.89716309 -146.66828125 129.16932617 -146.8515625 128.41943359 C-154.40494413 95.78552785 -150.81413075 54.24055562 -133.21020508 25.31787109 C-128.88764709 18.47129233 -124.0443723 12.36662039 -118.3125 6.625 C-117.55453125 5.85542969 -116.7965625 5.08585937 -116.015625 4.29296875 C-86.19275266 -24.311649 -31.52358661 -27.20983266 0 0 Z M-87.3125 38.625 C-103.53183134 60.14946186 -106.18781136 88.66989889 -102.53857422 114.6875 C-100.2976748 127.85239447 -95.74460574 140.1651736 -87.3125 150.625 C-86.1678125 152.2028125 -86.1678125 152.2028125 -85 153.8125 C-73.33572595 166.01929842 -57.39185912 171.36724333 -40.8125 171.875 C-24.32868865 171.62897296 -8.62424448 166.5940998 3.25 154.875 C19.51226015 137.80123909 23.74958189 114.44452957 23.6875 91.625 C23.015157 70.33981222 17.43028829 49.7538569 2.359375 34.06640625 C-11.95350231 20.98811923 -29.06979061 17.58720762 -47.83251953 18.4296875 C-63.49254059 19.6630028 -76.84509322 27.14103171 -87.3125 38.625 Z " fill="#000000" transform="translate(1710.3125,219.375)"/>
<path d="M0 0 C70.95 0 141.9 0 215 0 C215 12.87 215 25.74 215 39 C159.23 39 103.46 39 46 39 C46 71.34 46 103.68 46 137 C96.82 137 147.64 137 200 137 C200 149.87 200 162.74 200 176 C149.18 176 98.36 176 46 176 C46 212.3 46 248.6 46 286 C103.42 286 160.84 286 220 286 C220 298.87 220 311.74 220 325 C147.4 325 74.8 325 0 325 C0 217.75 0 110.5 0 0 Z " fill="#000000" transform="translate(2645,100)"/>
<path d="M0 0 C14.85 0 29.7 0 45 0 C45 106.92 45 213.84 45 324 C30.15 324 15.3 324 0 324 C-0.33 310.47 -0.66 296.94 -1 283 C-3.64 288.28 -6.28 293.56 -9 299 C-11.97032771 302.67165508 -14.64472865 305.78826967 -18 309 C-18.58910156 309.62003906 -19.17820313 310.24007813 -19.78515625 310.87890625 C-31.32599311 322.2168273 -50.10800908 328.39555027 -66 329 C-67.69962891 329.07734375 -67.69962891 329.07734375 -69.43359375 329.15625 C-92.79919563 329.71202249 -116.35413065 324.39136925 -134.25 308.5625 C-135.83858674 307.04715494 -137.42227828 305.52665407 -139 304 C-139.66386719 303.4328125 -140.32773438 302.865625 -141.01171875 302.28125 C-160.32983379 285.03993028 -168.3684952 254.9620234 -170 230 C-171.3393907 194.88432727 -167.62896921 160.32209254 -145 132 C-144.54496094 131.38125 -144.08992188 130.7625 -143.62109375 130.125 C-131.21611258 114.12812875 -109.63499795 104.97347346 -90.25 101.75 C-68.31534694 99.02035429 -44.72484697 101.36430174 -26 114 C-22.45630758 116.80781521 -19.20377451 119.81273979 -16 123 C-15.37351563 123.59167969 -14.74703125 124.18335938 -14.1015625 124.79296875 C-7.63335846 131.4221462 -5.44636287 138.10727425 -1 147 C-0.505 74.235 -0.505 74.235 0 0 Z M-107 157 C-123.44141264 177.13413634 -126.16252939 204.47582342 -123.75683594 229.53271484 C-121.44082229 247.95763526 -115.05939981 266.26357401 -101 279 C-84.73878711 291.38042563 -66.35933707 293.98623298 -46.4609375 291.5703125 C-30.06008957 287.98953438 -17.08554428 278.58392901 -8.07421875 264.55078125 C6.03736214 241.23852726 6.52021614 211.06190306 0.3125 185.1875 C-4.61512453 168.31356804 -14.03573058 153.21489777 -29.6953125 144.5 C-39.61174948 139.75367119 -49.32812983 137.44508987 -60.3125 137.5625 C-61.31506836 137.57007324 -62.31763672 137.57764648 -63.35058594 137.58544922 C-80.49203264 137.96409775 -95.251122 144.35187344 -107 157 Z " fill="#000000" transform="translate(4201,543)"/>
<path d="M0 0 C14.52 0 29.04 0 44 0 C44 107.25 44 214.5 44 325 C29.48 325 14.96 325 0 325 C-0.33 310.48 -0.66 295.96 -1 281 C-2.65 284.96 -4.3 288.92 -6 293 C-8.25779915 296.51213201 -10.44408357 299.73748032 -13 303 C-13.54527344 303.71027344 -14.09054688 304.42054688 -14.65234375 305.15234375 C-26.29976192 319.43070814 -44.9130034 326.78758101 -62.85693359 328.8190918 C-81.21932896 330.36916413 -99.12549289 328.74741522 -116 321 C-117.05574219 320.51917969 -118.11148438 320.03835938 -119.19921875 319.54296875 C-142.34275122 308.06891345 -156.1854413 287.86419402 -164.3125 263.9375 C-175.74671452 228.73701974 -175.04875032 184.85521885 -158.41430664 151.34985352 C-154.36862117 143.58406795 -149.99623358 136.432741 -144 130 C-143.26523438 129.175 -142.53046875 128.35 -141.7734375 127.5 C-125.15349539 109.74318889 -102.42783989 102.07306866 -78.50390625 100.875 C-56.86959811 100.36066281 -35.23058745 105.64532543 -19.21142578 120.76464844 C-10.50424642 129.2685362 -4.86831467 138.39505598 -1 150 C-0.505 75.75 -0.505 75.75 0 0 Z M-107 156 C-124.07592707 176.57121278 -126.83113846 203.82327169 -124.79785156 229.55859375 C-122.62940143 249.49196934 -115.3017032 267.89076006 -99.66015625 281.06640625 C-84.84896436 291.83225057 -66.83133727 294.56491553 -49.02734375 291.78125 C-33.3212362 288.94819822 -20.36596064 280.96825319 -11 268 C3.83478531 243.92149513 6.13052147 214.41604718 -0.2824707 187.24389648 C-3.00345681 176.59474586 -7.20493552 167.66658647 -14 159 C-14.76957031 158.01 -15.53914063 157.02 -16.33203125 156 C-25.26316461 145.38985402 -39.7091573 139.07728061 -53.34130859 137.77661133 C-73.5534037 136.80863129 -92.57568014 140.57442583 -107 156 Z " fill="#000000" transform="translate(2223,100)"/>
<path d="M0 0 C14.85 0 29.7 0 45 0 C45.33 49.5 45.66 99 46 150 C48.475 143.565 48.475 143.565 51 137 C59.98360753 120.27442175 74.03487927 109.50111286 92.09765625 103.96484375 C114.58485313 98.04296873 139.8403072 99.98114291 160.3125 111.25 C178.78189054 122.76242172 189.44606218 140.1333616 194.375 160.9375 C196.80793588 171.45337133 197.14306005 181.75858032 197.11352539 192.51586914 C197.11324286 193.96545408 197.11340255 195.41503917 197.1139679 196.86462402 C197.11425328 200.7751361 197.10839855 204.68561713 197.10139394 208.59612203 C197.09511716 212.69204502 197.09455319 216.78796882 197.09336853 220.88389587 C197.09026792 228.62907502 197.08207174 236.37423994 197.07201904 244.11941284 C197.06081835 252.94170083 197.0553375 261.76398951 197.05032361 270.58628285 C197.039888 288.72419825 197.02155839 306.86209418 197 325 C182.15 325 167.3 325 152 325 C151.9906543 320.72160156 151.98130859 316.44320313 151.97167969 312.03515625 C151.93782694 297.85774714 151.88243024 283.68048164 151.81609726 269.50318909 C151.7764226 260.91227946 151.7439717 252.3214599 151.72900391 243.73046875 C151.71592699 236.23559587 151.68881002 228.74092213 151.64538693 221.24616146 C151.62290671 217.28401392 151.60708114 213.32211076 151.60811615 209.3598938 C151.60887083 205.61688053 151.59060287 201.87440467 151.55883217 198.13153076 C151.54648837 196.13077523 151.55333375 194.12992876 151.56114197 192.12915039 C151.38559085 176.56323633 148.00170138 162.37130452 137.25 150.6875 C126.28303017 140.38519501 111.82069412 138.27977163 97.3359375 138.71875 C84.4886873 139.38875001 72.51455442 144.3089423 63 153 C45.64114933 173.97884087 45.54079878 198.68091553 45.49388909 224.67201471 C45.48437313 228.21141131 45.45816167 231.75068798 45.43388367 235.29000854 C45.39057252 241.96175297 45.36181016 248.63347367 45.33856028 255.3053149 C45.31131633 262.91388052 45.26741856 270.52232333 45.22227156 278.13080049 C45.12993341 293.75381705 45.06021967 309.3768216 45 325 C30.15 325 15.3 325 0 325 C0 217.75 0 110.5 0 0 Z " fill="#000000" transform="translate(1821,100)"/>
<path d="M0 0 C14.85 0 29.7 0 45 0 C45.33 49.17 45.66 98.34 46 149 C47.65 145.04 49.3 141.08 51 137 C59.99425368 120.42959311 73.05752309 109.70513418 91.17578125 104 C113.39978024 98.12631285 138.47696869 99.54087378 158.89453125 110.5625 C177.7755945 121.9703592 188.58455513 138.83529034 194 160 C196.72253131 172.01500345 197.1477929 184.00522432 197.11352539 196.28393555 C197.11324265 197.68455503 197.11340294 199.08517467 197.1139679 200.48579407 C197.1142525 204.25363083 197.10841063 208.02143516 197.10139394 211.78926444 C197.09510393 215.73970099 197.09455216 219.69013844 197.09336853 223.64057922 C197.09027176 231.1059059 197.08208086 238.57121776 197.07201904 246.03653795 C197.06080629 254.54207051 197.05533449 263.04760382 197.05032361 271.55314195 C197.03989672 289.03543804 197.02157201 306.51771386 197 324 C182.15 324 167.3 324 152 324 C151.97812622 317.70301025 151.97812622 317.70301025 151.95581055 311.27880859 C151.90537403 297.37680363 151.83891087 283.47491353 151.76428509 269.57301903 C151.71944738 261.14797599 151.68000547 252.72297409 151.65356445 244.29785156 C151.63048646 236.94878424 151.59698041 229.59984842 151.55129844 222.25088561 C151.52749741 218.364853 151.50868321 214.47894957 151.50238609 210.59284592 C151.49627514 206.92378334 151.47606319 203.25505072 151.44572449 199.58611107 C151.4329455 197.62075535 151.43449763 195.65532215 151.4367218 193.68992615 C151.2746322 178.1037413 148.13610219 162.36086406 137.3125 150.5 C124.81586166 139.21427623 109.48628055 138.1077951 93.4921875 138.80029297 C80.56160772 139.83646208 68.72441077 146.61589844 60 156 C57.63664851 159.17793069 55.76953972 162.46092055 54 166 C53.54753906 166.90492188 53.09507812 167.80984375 52.62890625 168.7421875 C44.88819783 185.69364985 45.52614139 203.63829092 45.49388909 221.87308502 C45.48439519 225.47388559 45.4581847 229.07456738 45.43388367 232.67529297 C45.39051374 239.46751862 45.3617869 246.25972084 45.33856028 253.05204201 C45.31134863 260.79598701 45.26744828 268.53981075 45.22227156 276.28366852 C45.1298488 292.18906313 45.06017779 308.09444573 45 324 C30.15 324 15.3 324 0 324 C0 217.08 0 110.16 0 0 Z " fill="#000000" transform="translate(2633,543)"/>
<path d="M0 0 C8.35326267 8.02886412 14.74986434 18.32771803 18.4140625 29.3203125 C18.7440625 15.1303125 19.0740625 0.9403125 19.4140625 -13.6796875 C34.2640625 -13.6796875 49.1140625 -13.6796875 64.4140625 -13.6796875 C64.4140625 58.5903125 64.4140625 130.8603125 64.4140625 205.3203125 C49.5640625 205.3203125 34.7140625 205.3203125 19.4140625 205.3203125 C19.0840625 190.8003125 18.7540625 176.2803125 18.4140625 161.3203125 C15.9390625 167.2603125 15.9390625 167.2603125 13.4140625 173.3203125 C3.86635752 190.09522273 -10.45000558 200.83491501 -28.8828125 206.3203125 C-53.26561616 212.9046983 -79.90578648 210.06845056 -102.3359375 198.5078125 C-125.36519366 185.25671781 -140.1109446 162.9105305 -146.94311523 137.63671875 C-155.9266951 101.35234026 -154.31590796 57.9955347 -135.2734375 24.96875 C-121.56720894 3.45758574 -103.25772996 -10.81393921 -78.2734375 -16.4921875 C-50.79074154 -21.73579952 -22.07637534 -18.43202131 0 0 Z M-86.5859375 36.3203125 C-87.14925781 36.86171875 -87.71257813 37.403125 -88.29296875 37.9609375 C-103.12476435 53.45801153 -106.17369415 78.50860523 -105.83203125 98.98828125 C-104.9372089 118.09118024 -101.07476432 135.67763068 -89.5859375 151.3203125 C-89.11542969 151.97386719 -88.64492187 152.62742187 -88.16015625 153.30078125 C-79.11839271 164.83858092 -64.83298175 170.7375079 -50.69921875 172.7265625 C-33.93925293 174.54067934 -17.49588116 171.49263259 -3.85546875 161.1796875 C12.24865198 147.98595003 19.2404889 129.29651338 22.1015625 109.0703125 C24.17689585 85.1377449 21.28242106 59.01746085 6.1953125 39.44140625 C-4.10587748 27.46138309 -18.07262433 19.48991972 -33.97509766 18.11352539 C-36.43260706 18.01758733 -38.87663821 17.99105326 -41.3359375 18.0078125 C-42.20992187 18.01345215 -43.08390625 18.0190918 -43.984375 18.02490234 C-61.12105715 18.34400354 -74.53866803 24.12164108 -86.5859375 36.3203125 Z " fill="#000000" transform="translate(3527.5859375,219.6796875)"/>
<path d="M0 0 C10.12261992 8.60725765 14.68570971 17.61330853 20.359375 29.90625 C20.689375 16.04625 21.019375 2.18625 21.359375 -12.09375 C36.209375 -12.09375 51.059375 -12.09375 66.359375 -12.09375 C66.359375 60.17625 66.359375 132.44625 66.359375 206.90625 C51.509375 206.90625 36.659375 206.90625 21.359375 206.90625 C21.029375 192.71625 20.699375 178.52625 20.359375 163.90625 C19.039375 167.20625 17.719375 170.50625 16.359375 173.90625 C6.72547577 191.25552035 -7.87609924 202.25823258 -26.8203125 207.84375 C-51.81380065 214.32585167 -79.40363185 211.97758617 -102.015625 199.03125 C-125.13610664 184.14865425 -139.53451762 161.68568271 -145.578125 134.90625 C-147.51209272 125.76680093 -148.78965422 116.78119294 -148.84375 107.4453125 C-148.84945007 106.6558725 -148.85515015 105.8664325 -148.86102295 105.05307007 C-148.87041461 103.38744418 -148.87698352 101.7218002 -148.88085938 100.05615234 C-148.89046647 97.57223728 -148.92150416 95.08918691 -148.953125 92.60546875 C-149.05035691 78.03308494 -147.30852472 63.81363123 -143.015625 49.84375 C-142.76546631 49.02285889 -142.51530762 48.20196777 -142.25756836 47.35620117 C-138.30507974 35.07546551 -132.14574915 23.62915329 -123.640625 13.90625 C-123.0734375 13.18566406 -122.50625 12.46507812 -121.921875 11.72265625 C-107.33349985 -6.11101422 -84.75997054 -14.52223684 -62.37890625 -16.78125 C-39.90517328 -18.65993196 -17.86582341 -14.16580081 0 0 Z M-85.640625 38.90625 C-103.01421707 59.83584045 -103.9173292 86.97149813 -102.640625 112.90625 C-100.65670329 131.78412233 -92.44748522 150.6674546 -77.640625 162.90625 C-62.50058847 173.76664552 -44.7246861 176.53755 -26.57421875 173.6953125 C-16.91009282 171.92272887 -8.41234384 167.8412931 -0.640625 161.90625 C0.17535156 161.2978125 0.99132813 160.689375 1.83203125 160.0625 C16.16953685 147.83019229 22.36963254 128.0954995 24.359375 109.90625 C25.78780366 82.80833719 22.927034 58.06260572 4.609375 36.8828125 C-5.51366405 26.15051647 -19.37666083 20.29735847 -34.07421875 19.66796875 C-54.32727678 19.21875515 -71.30383455 23.76071752 -85.640625 38.90625 Z " fill="#000000" transform="translate(1369.640625,218.09375)"/>
<path d="M0 0 C1.59877609 1.52564595 3.18332852 3.06640415 4.75 4.625 C5.37648438 5.21667969 6.00296875 5.80835938 6.6484375 6.41796875 C13.11664154 13.0471462 15.30363713 19.73227425 19.75 28.625 C20.08 15.095 20.41 1.565 20.75 -12.375 C35.6 -12.375 50.45 -12.375 65.75 -12.375 C65.75 59.565 65.75 131.505 65.75 205.625 C50.9 205.625 36.05 205.625 20.75 205.625 C20.42 192.095 20.09 178.565 19.75 164.625 C17.11 169.905 14.47 175.185 11.75 180.625 C-2.10515131 197.57718514 -18.96516221 207.38454432 -40.6875 210.375 C-42.20640677 210.48814017 -43.72798579 210.56711039 -45.25 210.625 C-46.38308594 210.6765625 -47.51617188 210.728125 -48.68359375 210.78125 C-74.59048677 211.39746946 -99.69218304 204.21179684 -118.81201172 186.0703125 C-142.03115925 162.73290106 -149.46847605 129.20685528 -149.5 97.3125 C-149.50100708 96.60457306 -149.50201416 95.89664612 -149.50305176 95.16726685 C-149.49179468 83.43325635 -148.73061396 72.11572211 -146.25 60.625 C-145.98316406 59.33464844 -145.71632813 58.04429687 -145.44140625 56.71484375 C-141.77948194 41.23711035 -135.02037792 27.13246961 -125.25 14.625 C-124.62609375 13.81804688 -124.0021875 13.01109375 -123.359375 12.1796875 C-109.15508469 -4.94901553 -88.48104155 -14.00572818 -66.8125 -17.125 C-43.33534119 -18.96195327 -18.34175896 -16.05248678 0 0 Z M-86.25 38.625 C-103.15232754 60.0400849 -105.73035955 88.14466011 -102.78515625 114.5234375 C-100.26091891 132.40026736 -93.04563144 150.12539866 -78.8203125 161.84765625 C-62.62713131 173.04506878 -45.00770632 175.5619938 -25.72265625 173.19140625 C-10.47587594 169.89646447 2.56794615 161.32244649 11.125 148.30859375 C24.69993306 125.89037497 27.99911234 95.99680751 22.0625 70.4375 C19.1894613 59.22749565 14.84684322 49.7586054 7.75 40.625 C7.27820312 39.98820313 6.80640625 39.35140625 6.3203125 38.6953125 C-1.94152583 28.19297564 -15.25949884 21.88707628 -28.25 19.625 C-50.33789213 17.72449207 -70.74698256 21.59174945 -86.25 38.625 Z " fill="#000000" transform="translate(2132.25,661.375)"/>
<path d="M0 0 C2.53902906 2.22212769 4.95599724 4.51910663 7.34765625 6.8984375 C7.97414063 7.49011719 8.600625 8.08179688 9.24609375 8.69140625 C15.71429779 15.3205837 17.90129338 22.00571175 22.34765625 30.8984375 C22.67765625 17.3684375 23.00765625 3.8384375 23.34765625 -10.1015625 C38.19765625 -10.1015625 53.04765625 -10.1015625 68.34765625 -10.1015625 C68.34765625 61.8384375 68.34765625 133.7784375 68.34765625 207.8984375 C53.49765625 207.8984375 38.64765625 207.8984375 23.34765625 207.8984375 C23.01765625 194.3684375 22.68765625 180.8384375 22.34765625 166.8984375 C19.70765625 172.1784375 17.06765625 177.4584375 14.34765625 182.8984375 C11.37732854 186.57009258 8.7029276 189.68670717 5.34765625 192.8984375 C4.75855469 193.51847656 4.16945313 194.13851562 3.5625 194.77734375 C-7.97833686 206.1152648 -26.76035283 212.29398777 -42.65234375 212.8984375 C-43.78542969 212.95 -44.91851563 213.0015625 -46.0859375 213.0546875 C-69.45153938 213.61045999 -93.0064744 208.28980675 -110.90234375 192.4609375 C-112.49093049 190.94559244 -114.07462203 189.42509157 -115.65234375 187.8984375 C-116.31621094 187.33125 -116.98007813 186.7640625 -117.6640625 186.1796875 C-136.98217754 168.93836778 -145.02083895 138.8604609 -146.65234375 113.8984375 C-147.99173445 78.78276477 -144.28131296 44.22053004 -121.65234375 15.8984375 C-120.96978516 14.9703125 -120.96978516 14.9703125 -120.2734375 14.0234375 C-107.86845633 -1.97343375 -86.2873417 -11.12808904 -66.90234375 -14.3515625 C-44.12005679 -17.18669154 -18.56077322 -14.70647422 0 0 Z M-83.65234375 40.8984375 C-100.20858214 61.17318933 -102.6127677 88.3219423 -100.42529297 113.51318359 C-99.29958009 123.51356414 -96.90603669 132.73663732 -92.65234375 141.8984375 C-91.98912109 143.32929687 -91.98912109 143.32929687 -91.3125 144.7890625 C-84.32492349 158.64807851 -73.66117177 167.43944997 -59.33203125 173.07421875 C-41.37085303 178.59872109 -22.40378844 177.34261337 -5.66601562 168.79199219 C8.52836529 161.09213528 17.32681349 147.47319141 22.5390625 132.46875 C30.20122361 106.17424877 29.58907681 75.35542936 16.34765625 50.8984375 C6.72892175 35.89035639 -5.51554721 26.94739949 -22.75024414 22.48291016 C-27.49769926 21.52678939 -32.13442763 21.40930597 -36.96484375 21.4609375 C-37.96741211 21.46851074 -38.96998047 21.47608398 -40.00292969 21.48388672 C-57.14437639 21.86253525 -71.90346575 28.25031094 -83.65234375 40.8984375 Z " fill="#000000" transform="translate(3685.65234375,659.1015625)"/>
<path d="M0 0 C17.90501877 16.88275992 27.66983358 41.70218031 30.4453125 65.81640625 C30.55488281 66.60660156 30.66445312 67.39679688 30.77734375 68.2109375 C31.98000733 78.39348911 31.4453125 88.53726918 31.4453125 98.81640625 C-49.7346875 99.31140625 -49.7346875 99.31140625 -132.5546875 99.81640625 C-129.06538449 120.75222428 -124.82696187 142.25900943 -106.953125 155.78515625 C-91.54302933 166.02961422 -74.6447684 169.16347542 -56.4296875 165.62890625 C-42.28926211 162.22443653 -30.02386631 155.99570697 -21.5546875 143.81640625 C-18.30824072 138.03123809 -15.17120828 132.28248939 -13.5546875 125.81640625 C0.9653125 125.81640625 15.4853125 125.81640625 30.4453125 125.81640625 C28.07166732 147.17921289 17.80642771 166.08801379 1.6328125 180.19140625 C-24.0119472 200.32435788 -56.02441082 205.52070681 -87.93359375 202.35546875 C-112.70861316 199.33150121 -136.13827391 189.20973991 -152.5546875 169.81640625 C-175.30231384 140.4966473 -180.04278005 102.27115468 -175.73242188 66.21435547 C-171.82462191 38.55152013 -161.28434624 13.08413169 -139.26171875 -5.07421875 C-99.31216041 -34.78544807 -37.50141286 -32.05395992 0 0 Z M-114.5546875 26.81640625 C-123.83138208 38.35717532 -129.12708381 51.25078409 -131.5546875 65.81640625 C-92.9446875 65.81640625 -54.3346875 65.81640625 -14.5546875 65.81640625 C-17.99954985 46.86966333 -24.0565844 30.91181558 -39.89453125 19.06640625 C-62.32548645 4.52445798 -95.89786768 7.0569375 -114.5546875 26.81640625 Z " fill="#000000" transform="translate(2479.5546875,226.18359375)"/>
<path d="M0 0 C21.21863085 20.02991204 29.26837492 47.17593671 32.1015625 75.5078125 C32.1015625 83.4278125 32.1015625 91.3478125 32.1015625 99.5078125 C-22.0184375 99.5078125 -76.1384375 99.5078125 -131.8984375 99.5078125 C-128.41791924 121.55109482 -123.97129729 143.23511106 -105.1484375 157.3828125 C-90.14428165 167.08317372 -72.83469482 169.36194326 -55.4609375 166.4453125 C-40.7863962 163.19270799 -28.44966492 155.73224738 -20.0859375 143.1328125 C-16.7769017 137.77370568 -14.55612572 132.35472658 -11.8984375 126.5078125 C2.6215625 126.5078125 17.1415625 126.5078125 32.1015625 126.5078125 C27.93718551 143.16532048 23.99149 156.37883449 13.1015625 169.5078125 C12.40160156 170.37019531 11.70164062 171.23257813 10.98046875 172.12109375 C-6.27565331 192.39165424 -32.02925362 201.37837888 -57.8984375 203.5078125 C-91.08680657 205.41837271 -120.3087168 198.50290909 -145.94921875 176.76953125 C-166.7967404 157.45562039 -174.63783541 126.7218776 -176.0625 99.35644531 C-177.29069645 65.3251688 -171.53993958 31.95337955 -148.8984375 5.5078125 C-147.96451172 4.40373047 -147.96451172 4.40373047 -147.01171875 3.27734375 C-111.22288054 -35.61681665 -38.1861509 -32.83391412 0 0 Z M-115.8359375 29.8828125 C-123.74090047 40.04417295 -129.8984375 53.54544156 -129.8984375 66.5078125 C-91.6184375 66.5078125 -53.3384375 66.5078125 -13.8984375 66.5078125 C-16.17737327 48.27632634 -23.28236705 32.21539538 -37.8984375 20.5078125 C-48.44825393 13.68041301 -58.79836511 11.15450851 -71.2109375 11.1953125 C-72.17966797 11.17919922 -73.14839844 11.16308594 -74.14648438 11.14648438 C-90.38703104 11.13565012 -105.17946934 17.58220354 -115.8359375 29.8828125 Z " fill="#000000" transform="translate(3318.8984375,225.4921875)"/>
<path d="M0 0 C24.47940844 21.19937487 33.20489081 47.85136964 36.76953125 79.3984375 C36.76953125 87.3184375 36.76953125 95.2384375 36.76953125 103.3984375 C-17.35046875 103.3984375 -71.47046875 103.3984375 -127.23046875 103.3984375 C-123.61898761 126.27115136 -118.94333013 146.05561984 -100.16796875 160.7734375 C-86.78292259 170.1271607 -70.67337439 172.83091322 -54.60546875 170.7734375 C-40.16436453 168.05679413 -27.37358577 162.32125616 -17.859375 150.8125 C-14.3874466 145.66705216 -11.84972057 140.01013269 -9.23046875 134.3984375 C-8.57046875 133.0784375 -7.91046875 131.7584375 -7.23046875 130.3984375 C7.28953125 130.3984375 21.80953125 130.3984375 36.76953125 130.3984375 C32.5137975 147.42137252 28.11110793 159.83541393 17.76953125 173.3984375 C17.21652344 174.13707031 16.66351562 174.87570312 16.09375 175.63671875 C1.52855065 193.67154376 -22.78753319 203.43817299 -45.23046875 206.3984375 C-46.0503125 206.50929688 -46.87015625 206.62015625 -47.71484375 206.734375 C-78.78260922 210.21773052 -111.00496025 204.79715043 -135.98046875 185.0234375 C-158.35754047 165.95316404 -168.29599348 137.9872766 -171.00341797 109.41845703 C-173.57322356 75.23727946 -168.91104866 38.45982164 -146.23046875 11.3984375 C-112.03483975 -28.10963461 -40.43856351 -32.41723422 0 0 Z M-110.23046875 32.3984375 C-115.23657436 38.58898215 -118.81262191 45.1329224 -121.66796875 52.5234375 C-121.91506592 53.15572266 -122.16216309 53.78800781 -122.41674805 54.43945312 C-124.40998757 59.98215128 -124.6085487 64.17923704 -125.23046875 70.3984375 C-86.95046875 70.3984375 -48.67046875 70.3984375 -9.23046875 70.3984375 C-11.26313777 54.13708535 -17.4171401 37.34806858 -30.40625 26.59765625 C-53.95358436 9.05921104 -90.00728485 9.67180337 -110.23046875 32.3984375 Z " fill="#000000" transform="translate(1475.23046875,664.6015625)"/>
<path d="M0 0 C21.27603445 18.86526076 30.54257444 45.50479555 33.359375 73.23828125 C33.44340576 74.04281738 33.52743652 74.84735352 33.61401367 75.67626953 C34.38430155 84.1619273 34.171875 92.29462827 34.171875 100.92578125 C-20.278125 100.92578125 -74.728125 100.92578125 -130.828125 100.92578125 C-124.26633123 134.01880636 -124.26633123 134.01880636 -102.828125 158.92578125 C-85.98512875 168.57007301 -67.89656887 171.52922949 -48.94970703 166.58886719 C-34.9453012 162.21188603 -24.37112994 154.49745615 -16.828125 141.92578125 C-14.51340331 137.3679272 -12.44509826 132.77670103 -10.828125 127.92578125 C3.691875 127.92578125 18.211875 127.92578125 33.171875 127.92578125 C30.983464 145.43306927 23.93686223 160.72334258 12.171875 173.92578125 C11.50671875 174.68503906 10.8415625 175.44429687 10.15625 176.2265625 C-8.75164138 196.50002381 -36.90472169 203.91108067 -63.73046875 205.21484375 C-93.06395818 206.04823355 -121.09863166 198.46653392 -143.328125 178.703125 C-158.10663841 164.54870422 -166.0628361 146.48935983 -170.828125 126.92578125 C-171.00746582 126.20036133 -171.18680664 125.47494141 -171.37158203 124.72753906 C-177.84862586 96.97980613 -175.46080059 64.56750562 -165.828125 37.92578125 C-165.47105469 36.89324219 -165.11398437 35.86070312 -164.74609375 34.796875 C-156.45621723 12.79794472 -139.24848165 -4.57162941 -118.06640625 -14.3203125 C-80.71915837 -30.39590486 -31.53112496 -26.5335447 0 0 Z M-113.015625 29.92578125 C-121.09568797 39.5820372 -128.828125 55.08619052 -128.828125 67.92578125 C-90.218125 67.92578125 -51.608125 67.92578125 -11.828125 67.92578125 C-15.77885034 49.48906301 -21.55944343 32.1618243 -37.6171875 20.984375 C-61.85483235 5.9845922 -93.08931683 9.57136881 -113.015625 29.92578125 Z " fill="#000000" transform="translate(1923.828125,667.07421875)"/>
<path d="M0 0 C21.73162338 18.25085788 30.88545114 45.35185208 34.140625 72.6953125 C34.140625 82.2653125 34.140625 91.8353125 34.140625 101.6953125 C-19.979375 101.6953125 -74.099375 101.6953125 -129.859375 101.6953125 C-126.78247197 119.36770269 -126.78247197 119.36770269 -120.859375 135.6953125 C-120.41851563 136.64535156 -119.97765625 137.59539062 -119.5234375 138.57421875 C-112.49107655 152.5418086 -101.51849919 161.9871086 -86.68359375 166.91796875 C-69.2122359 171.72682105 -50.99263183 170.20807732 -34.859375 161.6953125 C-31.97524514 159.90328 -29.4086476 157.93423887 -26.859375 155.6953125 C-26.26640625 155.19515625 -25.6734375 154.695 -25.0625 154.1796875 C-17.43726387 147.22925103 -13.42720549 138.20952713 -9.859375 128.6953125 C4.660625 128.6953125 19.180625 128.6953125 34.140625 128.6953125 C33.37435706 134.82545604 32.53766896 139.32917306 30.515625 144.9453125 C30.25056152 145.68402588 29.98549805 146.42273926 29.71240234 147.18383789 C25.70034843 157.96257748 19.68083291 167.05202808 12.140625 175.6953125 C11.61082031 176.30890625 11.08101562 176.9225 10.53515625 177.5546875 C-7.94933005 197.45403571 -36.20811355 204.8007401 -62.41015625 205.9140625 C-90.62867913 206.69299287 -119.68466057 200.28276763 -140.859375 180.6953125 C-141.63667969 180.00953125 -142.41398437 179.32375 -143.21484375 178.6171875 C-162.34512057 160.83689579 -172.0917087 131.98188064 -173.06420898 106.38671875 C-173.16740617 102.41356071 -173.18571662 98.44236186 -173.17504883 94.46801758 C-173.17190149 92.02834774 -173.19539639 89.58991066 -173.22070312 87.15039062 C-173.33224145 59.50837565 -166.48989864 32.45582101 -148.859375 10.6953125 C-147.93898438 9.52935547 -147.93898438 9.52935547 -147 8.33984375 C-130.6315325 -11.30908109 -106.20815584 -19.41801546 -81.5703125 -22.06152344 C-52.33770333 -24.68361266 -23.11036539 -18.69606471 0 0 Z M-113.6015625 32.62890625 C-121.29531817 42.21620282 -127.859375 56.17217226 -127.859375 68.6953125 C-89.249375 68.6953125 -50.639375 68.6953125 -10.859375 68.6953125 C-13.56763709 55.51350198 -13.56763709 55.51350198 -18.421875 43.3828125 C-18.92678467 42.41045654 -18.92678467 42.41045654 -19.44189453 41.41845703 C-26.45048875 28.60247166 -36.61327445 19.88933702 -50.546875 15.3828125 C-74.15649769 8.73571079 -97.04242727 14.25049383 -113.6015625 32.62890625 Z " fill="#000000" transform="translate(3389.859375,666.3046875)"/>
<path d="M0 0 C0.62648438 0.53109375 1.25296875 1.0621875 1.8984375 1.609375 C16.07443148 14.56661837 19.68763594 31.62690312 21 50 C6.48 50 -8.04 50 -23 50 C-24.98 42.575 -24.98 42.575 -27 35 C-31.88086788 24.64303645 -39.09907373 18.63476966 -49.8125 14.5625 C-63.18704992 10.05035986 -79.67855957 10.39906073 -92.62890625 16.171875 C-94.83728977 17.35064973 -96.91748247 18.61311332 -99 20 C-99.9075 20.5775 -100.815 21.155 -101.75 21.75 C-106.82868254 26.82868254 -109.70243072 33.13159937 -110.25 40.25 C-109.79543617 47.06845746 -107.5464312 51.90215233 -103 57 C-93.1223696 63.58308868 -82.35073458 65.89456297 -70.875 68.0625 C-69.19812557 68.39597773 -67.52169652 68.7317023 -65.84570312 69.06958008 C-62.48841432 69.74417493 -59.12954942 70.40954878 -55.76855469 71.06542969 C3.10622241 82.56956054 3.10622241 82.56956054 18.69140625 104.77734375 C27.41707026 119.5979492 29.4018548 136.71337228 25.375 153.3125 C21.20486791 168.92366717 11.26465364 181.77000981 -2.68310547 189.9921875 C-10.02753032 194.13011074 -17.54844021 197.45091754 -25.625 199.875 C-26.25599609 200.06594238 -26.88699219 200.25688477 -27.53710938 200.45361328 C-39.74631078 203.84403351 -52.16927016 204.37802463 -64.75 204.3125 C-65.49701172 204.31034485 -66.24402344 204.3081897 -67.01367188 204.30596924 C-78.21792041 204.25415318 -89.12946901 203.93948032 -100 201 C-100.74056641 200.80132324 -101.48113281 200.60264648 -102.24414062 200.39794922 C-123.045783 194.5882855 -140.53523301 183.77022317 -152 165 C-158.61228167 152.81401494 -160.0619541 142.07068849 -161 128 C-146.15 128 -131.3 128 -116 128 C-115.01 132.62 -114.02 137.24 -113 142 C-108.74450623 152.63873442 -102.09961641 160.25580162 -91.546875 165.0078125 C-74.11233022 171.79979774 -53.76687682 172.41849109 -36.09375 165.93359375 C-29.07273892 162.72972875 -23.93573654 158.41980122 -20.125 151.6875 C-17.91217098 144.4343382 -17.36110345 138.44259434 -19.8203125 131.203125 C-24.26297527 122.90623162 -31.33200337 118.91021215 -40 116 C-48.11626665 113.83998135 -56.40130261 112.38439228 -64.64990234 110.82861328 C-71.89214392 109.45716992 -79.11571788 107.99474977 -86.3347168 106.50631714 C-88.73861055 106.01509878 -91.14534552 105.54038968 -93.55273438 105.06665039 C-114.24553363 100.88545143 -133.88327704 93.70797447 -146.875 76.0625 C-155.80935397 62.37717192 -157.23551121 46.89156881 -155 31 C-152.03644287 18.36820453 -146.00316829 9.17130896 -137 0 C-136.39542969 -0.6290625 -135.79085938 -1.258125 -135.16796875 -1.90625 C-122.85749612 -13.70713879 -104.53292955 -19.53581986 -88 -22 C-87.28714844 -22.11085938 -86.57429688 -22.22171875 -85.83984375 -22.3359375 C-55.57845904 -26.1770052 -23.36381421 -20.39315742 0 0 Z " fill="#000000" transform="translate(1698,667)"/>
<path d="M0 0 C80.19 0 160.38 0 243 0 C243 12.87 243 25.74 243 39 C210.66 39 178.32 39 145 39 C145 133.38 145 227.76 145 325 C129.49 325 113.98 325 98 325 C98 230.62 98 136.24 98 39 C65.66 39 33.32 39 0 39 C0 26.13 0 13.26 0 0 Z " fill="#000000" transform="translate(1017,100)"/>
<path d="M0 0 C18.53087822 16.02060705 26.27270529 36.93836565 28.44140625 60.96875 C28.68438845 66.00725822 28.69611409 71.03039627 28.66845703 76.07397461 C28.66789094 77.51459241 28.66821333 78.95521078 28.66934204 80.39582825 C28.66990883 84.25437344 28.65826559 88.11279073 28.64419413 91.97130656 C28.63157258 96.0231463 28.63050736 100.07498995 28.62814331 104.12684631 C28.62196175 111.77622356 28.60559661 119.42554268 28.58544433 127.07489449 C28.56298099 135.79332702 28.55206583 144.51176253 28.54205346 153.23021686 C28.52122688 171.14310075 28.48459295 189.0559051 28.44140625 206.96875 C13.59140625 206.96875 -1.25859375 206.96875 -16.55859375 206.96875 C-16.56793945 202.72064453 -16.57728516 198.47253906 -16.58691406 194.09570312 C-16.62076805 180.01807826 -16.67616546 165.94059801 -16.74249649 151.86309052 C-16.78216974 143.33271503 -16.81462135 134.80243023 -16.82958984 126.27197266 C-16.8426675 118.82983676 -16.86978632 111.3879014 -16.91320682 103.94587851 C-16.93568541 100.01167625 -16.95151271 96.07772004 -16.9504776 92.14344788 C-16.33831622 63.59191618 -16.33831622 63.59191618 -27.55859375 37.96875 C-28.17863281 37.12828125 -28.79867187 36.2878125 -29.4375 35.421875 C-36.45360222 27.30748791 -47.54430414 22.67923115 -58.07568359 21.74560547 C-76.03702479 20.72627299 -88.93816246 23.76609262 -103.74609375 34.21875 C-117.51966585 47.68624272 -122.39626315 67.12373508 -122.71681213 85.87245178 C-122.73726605 88.13115703 -122.75266219 90.38991182 -122.76391602 92.64868164 C-122.77381561 93.88869934 -122.78371521 95.12871704 -122.79391479 96.40631104 C-122.819943 99.77963211 -122.84186983 103.15293154 -122.86191678 106.52629018 C-122.88391532 110.06169523 -122.91123559 113.59705922 -122.93797302 117.13243103 C-122.98771373 123.81510177 -123.03272094 130.49779553 -123.07599539 137.18051094 C-123.12552783 144.79366116 -123.18038614 152.40677016 -123.23567498 160.01988041 C-123.34920883 175.66946684 -123.45540627 191.31909141 -123.55859375 206.96875 C-138.40859375 206.96875 -153.25859375 206.96875 -168.55859375 206.96875 C-168.55859375 135.02875 -168.55859375 63.08875 -168.55859375 -11.03125 C-153.70859375 -11.03125 -138.85859375 -11.03125 -123.55859375 -11.03125 C-123.22859375 3.15875 -122.89859375 17.34875 -122.55859375 31.96875 C-120.57859375 27.34875 -118.59859375 22.72875 -116.55859375 17.96875 C-104.6872229 -0.13022523 -90.51575442 -10.10100351 -69.453125 -14.7109375 C-45.61426909 -19.0345064 -19.33543997 -15.35027295 0 0 Z " fill="#000000" transform="translate(3968.55859375,660.03125)"/>
<path d="M0 0 C16.77836495 15.90227944 26.16763412 36.41989012 26.83998299 59.74694824 C26.87297345 63.59909304 26.87385737 67.45053089 26.86352539 71.30273438 C26.86324295 72.78172809 26.86340236 74.26072194 26.8639679 75.73971558 C26.86425366 79.73499461 26.85839271 83.73024334 26.85139394 87.72551537 C26.84512355 91.90819519 26.84455369 96.09087578 26.84336853 100.27355957 C26.84026606 108.18522691 26.83206732 116.09688035 26.82201904 124.00854158 C26.81082419 133.01943646 26.80533897 142.03033201 26.80032361 151.04123211 C26.78988377 169.5691642 26.77155181 188.09707727 26.75 206.625 C11.9 206.625 -2.95 206.625 -18.25 206.625 C-18.27187378 200.08510254 -18.27187378 200.08510254 -18.29418945 193.41308594 C-18.34458564 178.98819882 -18.41104107 164.56341844 -18.48571491 150.13863754 C-18.53058766 141.3951717 -18.57002175 132.65174582 -18.59643555 123.90820312 C-18.61948488 116.28301705 -18.65295973 108.65795832 -18.69870156 101.03287339 C-18.72254071 96.99935184 -18.74133021 92.96595569 -18.74761391 88.93236542 C-18.75370724 85.12706471 -18.77385804 81.32208446 -18.80427551 77.51690292 C-18.81298829 76.12871663 -18.81679254 74.74048834 -18.81500816 73.35227585 C-18.80173672 58.24797223 -22.01787352 46.88415934 -30.4375 34.375 C-36.85533331 28.0997852 -44.53593573 23.76241199 -53.25 21.625 C-53.97316406 21.44195312 -54.69632813 21.25890625 -55.44140625 21.0703125 C-70.37046919 18.70325662 -86.36573464 20.37907017 -99.25 28.625 C-112.36232558 38.40502028 -120.22029903 52.80123822 -122.87506962 68.89936543 C-124.17081682 78.31906985 -124.40537322 87.80527283 -124.45532227 97.30004883 C-124.46522186 98.49188278 -124.47512146 99.68371674 -124.48532104 100.91166687 C-124.51659095 104.801769 -124.54155515 108.69188329 -124.56640625 112.58203125 C-124.58650502 115.29872841 -124.60795885 118.01541442 -124.62937927 120.73210144 C-124.67898412 127.12068618 -124.72404024 133.50929429 -124.76740164 139.89792413 C-124.81705213 147.17985566 -124.87186568 154.46174559 -124.92708123 161.74363673 C-125.0404058 176.70405353 -125.14666839 191.66451021 -125.25 206.625 C-139.77 206.625 -154.29 206.625 -169.25 206.625 C-169.25 134.355 -169.25 62.085 -169.25 -12.375 C-154.73 -12.375 -140.21 -12.375 -125.25 -12.375 C-124.92 2.475 -124.59 17.325 -124.25 32.625 C-122.6 28.335 -120.95 24.045 -119.25 19.625 C-109.68443283 2.88525746 -96.7984549 -8.8627519 -78.01953125 -14.3125 C-51.84779721 -20.69435308 -21.01898476 -18.3955626 0 0 Z " fill="#000000" transform="translate(4048.25,218.375)"/>
<path d="M0 0 C16.77836495 15.90227944 26.16763412 36.41989012 26.83998299 59.74694824 C26.87297345 63.59909304 26.87385737 67.45053089 26.86352539 71.30273438 C26.86324295 72.78172809 26.86340236 74.26072194 26.8639679 75.73971558 C26.86425366 79.73499461 26.85839271 83.73024334 26.85139394 87.72551537 C26.84512355 91.90819519 26.84455369 96.09087578 26.84336853 100.27355957 C26.84026606 108.18522691 26.83206732 116.09688035 26.82201904 124.00854158 C26.81082419 133.01943646 26.80533897 142.03033201 26.80032361 151.04123211 C26.78988377 169.5691642 26.77155181 188.09707727 26.75 206.625 C12.23 206.625 -2.29 206.625 -17.25 206.625 C-17.26981934 202.65476807 -17.28963867 198.68453613 -17.31005859 194.59399414 C-17.37718467 181.42644521 -17.45472446 168.25897449 -17.53752708 155.09151554 C-17.58744317 147.1138452 -17.63388661 139.13618406 -17.671875 131.15844727 C-17.7050321 124.19721804 -17.74498997 117.23606502 -17.79279006 110.2749204 C-17.81782201 106.59617254 -17.83966898 102.91747369 -17.85334396 99.23866463 C-16.74599761 63.3654642 -16.74599761 63.3654642 -32.40234375 32.3984375 C-45.42187453 21.13031848 -60.79933159 19.65424355 -77.25 20.625 C-91.10046659 22.55373822 -102.63238768 29.15342625 -111.2578125 40.1953125 C-123.14071803 57.83962677 -124.34578637 77.56461773 -124.45532227 98.20825195 C-124.46522186 99.39033234 -124.47512146 100.57241272 -124.48532104 101.79031372 C-124.51658685 105.64795009 -124.54155348 109.50559871 -124.56640625 113.36328125 C-124.58650581 116.05755821 -124.60795926 118.75182395 -124.62937927 121.4460907 C-124.67898075 127.78155131 -124.72403808 134.11703548 -124.76740164 140.45254153 C-124.81705507 147.67401493 -124.8718675 154.89544641 -124.92708123 162.11687911 C-125.04040062 176.95288116 -125.14666481 191.78892463 -125.25 206.625 C-139.77 206.625 -154.29 206.625 -169.25 206.625 C-169.25 134.355 -169.25 62.085 -169.25 -12.375 C-154.73 -12.375 -140.21 -12.375 -125.25 -12.375 C-124.92 2.475 -124.59 17.325 -124.25 32.625 C-122.6 28.335 -120.95 24.045 -119.25 19.625 C-109.68443283 2.88525746 -96.7984549 -8.8627519 -78.01953125 -14.3125 C-51.84779721 -20.69435308 -21.01898476 -18.3955626 0 0 Z " fill="#000000" transform="translate(3807.25,218.375)"/>
<path d="M0 0 C13.08606523 11.75795205 21.04367159 27.20975255 26.35205078 43.75830078 C26.57143311 44.43675049 26.79081543 45.1152002 27.0168457 45.81420898 C28.18362454 49.61036185 28.53955078 52.32575361 28.53955078 56.38330078 C14.01955078 56.38330078 -0.50044922 56.38330078 -15.46044922 56.38330078 C-17.44044922 51.76330078 -19.42044922 47.14330078 -21.46044922 42.38330078 C-23.73077141 38.87824196 -25.91590934 35.64879363 -28.46044922 32.38330078 C-29.60513672 30.80548828 -29.60513672 30.80548828 -30.77294922 29.19580078 C-39.95377321 19.58796172 -52.81136541 13.60971605 -66.12060547 13.18017578 C-84.73301598 12.90793352 -99.20371408 15.66584419 -113.17529297 28.90673828 C-129.00424496 46.06153411 -132.8358563 70.87996642 -132.46044922 93.38330078 C-131.62859033 114.07628821 -126.81477718 136.01824909 -111.87060547 151.27001953 C-97.69429397 163.70014031 -82.23956043 166.2017722 -64.06005859 165.5625 C-50.86951111 164.65323424 -38.37957909 158.06427299 -29.46044922 148.38330078 C-22.59781702 139.21882737 -18.45413077 129.03311825 -14.46044922 118.38330078 C0.38955078 118.38330078 15.23955078 118.38330078 30.53955078 118.38330078 C25.86866632 139.40228084 25.86866632 139.40228084 23.35205078 145.13330078 C23.0565332 145.82319092 22.76101562 146.51308105 22.45654297 147.22387695 C11.69339646 171.43539136 -7.24682088 187.81424894 -31.63232422 197.66455078 C-61.93095546 208.02574074 -98.16654062 205.53511659 -126.83544922 191.57080078 C-133.37306388 188.23147747 -139.04732689 184.37520333 -144.46044922 179.38330078 C-145.36279297 178.57248047 -146.26513672 177.76166016 -147.19482422 176.92626953 C-168.85029684 156.49714274 -177.89446375 126.8126825 -178.74560547 97.69580078 C-179.42934489 62.83808932 -173.79072826 30.07978654 -149.26464844 3.74047852 C-111.97123267 -34.87743336 -39.58036685 -34.33886394 0 0 Z " fill="#000000" transform="translate(2573.46044921875,668.61669921875)"/>
<path d="M0 0 C64.02 0 128.04 0 194 0 C194 64.02 194 128.04 194 194 C190.64638187 192.32319094 189.0699083 191.32016385 186.54050827 188.79219055 C185.87069892 188.12759669 185.20088956 187.46300283 184.51078296 186.77826977 C183.78315415 186.04617951 183.05552534 185.31408926 182.30584717 184.55981445 C181.1369082 183.39555545 181.1369082 183.39555545 179.9443543 182.20777607 C177.32627721 179.59769598 174.71543007 176.98050146 172.10449219 174.36328125 C170.23241855 172.49391667 168.35995953 170.62494553 166.48703003 168.75643921 C161.92462918 164.20293702 157.36765838 159.64403769 152.81260392 155.08318782 C149.11213584 151.37820623 145.40972424 147.6751774 141.70590973 143.97354126 C141.17913305 143.44707105 140.65235638 142.92060084 140.10961677 142.37817699 C139.03955739 141.30875704 137.96949351 140.23934158 136.89942518 139.16993058 C126.86365087 129.13986066 116.83401853 119.10366703 106.80646983 109.06537449 C98.19476239 100.44472625 89.57781727 91.82934262 80.95703125 83.21777344 C70.95199533 73.22342926 60.95019728 63.22586322 50.95358014 53.2230978 C49.8886667 52.15754724 48.82374908 51.09200087 47.75882721 50.02645874 C47.23482621 49.50214919 46.71082521 48.97783964 46.17094539 48.43764192 C42.47079702 44.7357637 38.76832672 41.03621752 35.06496429 37.33755493 C30.55597354 32.83416062 26.0505375 28.32724646 21.54968688 23.81571603 C19.25146421 21.51222072 16.95111319 19.21092432 14.64749527 16.91282272 C12.1557702 14.42651726 9.67021552 11.93420803 7.18621826 9.44018555 C6.44966656 8.70809529 5.71311487 7.97600504 4.95424342 7.22173023 C4.29486506 6.55713637 3.63548669 5.89254251 2.95612717 5.20780945 C2.38112056 4.63247813 1.80611394 4.05714682 1.21368289 3.46438122 C0 2 0 2 0 0 Z " fill="#000000" transform="translate(572,100)"/>
<path d="M0 0 C15.51 0 31.02 0 47 0 C47 106.92 47 213.84 47 324 C31.49 324 15.98 324 0 324 C0 217.08 0 110.16 0 0 Z " fill="#000000" transform="translate(2972,543)"/>
<path d="M0 0 C14.85 0 29.7 0 45 0 C45 106.92 45 213.84 45 324 C30.15 324 15.3 324 0 324 C0 217.08 0 110.16 0 0 Z " fill="#000000" transform="translate(3460,543)"/>
<path d="M0 0 C-0.61731335 5.24737734 -1.77112287 10.0542034 -3.36328125 15.0859375 C-3.5965361 15.82832672 -3.82979095 16.57071594 -4.07011414 17.33560181 C-4.56205232 18.89124245 -5.05720128 20.4458711 -5.55541992 21.99951172 C-6.3154477 24.384249 -7.05129857 26.77566539 -7.78710938 29.16796875 C-8.26936319 30.68276049 -8.75303694 32.19710108 -9.23828125 33.7109375 C-9.45511063 34.42752533 -9.67194 35.14411316 -9.89533997 35.88241577 C-11.49545106 40.74138448 -11.49545106 40.74138448 -13.98144531 42.015625 C-17.11980167 41.99133197 -19.5590692 40.82961497 -22.4375 39.625 C-35.64158118 34.14752484 -52.67781455 33.66086514 -66.17578125 38.671875 C-81.24706399 45.75933853 -90.66914851 56.42863737 -96.546875 71.890625 C-101.54781474 85.96885601 -103.12232005 99.74553401 -103.20532227 114.60009766 C-103.21522186 115.71346497 -103.22512146 116.82683228 -103.23532104 117.97393799 C-103.2666786 121.6206252 -103.29159074 125.26732541 -103.31640625 128.9140625 C-103.33699806 131.45568157 -103.35799509 133.99729739 -103.37937927 136.53890991 C-103.42876229 142.52385434 -103.47408625 148.50881595 -103.51740164 154.49380624 C-103.56698966 161.31376887 -103.62182696 168.13368623 -103.67708123 174.95360494 C-103.79051636 188.96902918 -103.89674465 202.98449725 -104 217 C-118.85 217 -133.7 217 -149 217 C-149 145.06 -149 73.12 -149 -1 C-134.15 -1 -119.3 -1 -104 -1 C-103.67 14.84 -103.34 30.68 -103 47 C-101.02 41.72 -99.04 36.44 -97 31 C-92.9620278 23.28298646 -88.08899116 17.20774808 -82 11 C-81.45859375 10.43410156 -80.9171875 9.86820313 -80.359375 9.28515625 C-59.93464763 -10.15959683 -24.80128451 -9.64494398 0 0 Z " fill="#000000" transform="translate(2393,650)"/>
<path d="M0 0 C1.40452408 4.21357223 -0.13204985 7.26662424 -1.4921875 11.31640625 C-1.75758331 12.12867172 -2.02297913 12.94093719 -2.29641724 13.77781677 C-3.14763895 16.37552676 -4.0113468 18.9689 -4.875 21.5625 C-5.45000047 23.31419671 -6.02422878 25.0661471 -6.59765625 26.81835938 C-10.79347344 39.58694688 -10.79347344 39.58694688 -12 42 C-14.89964929 41.52312006 -17.45060893 40.83300641 -20.21484375 39.80859375 C-35.41065263 34.21181629 -52.98976648 33.15584523 -68 40 C-82.67331068 47.01674305 -91.34153385 59.05855859 -96.75 74.125 C-102.05616768 91.77046799 -102.46649673 109.03290304 -102.51171875 127.3515625 C-102.52859888 129.94901357 -102.54675349 132.54645663 -102.56611633 135.14389038 C-102.60846792 141.23128425 -102.63817213 147.31861369 -102.66143972 153.40610635 C-102.68870819 160.3496367 -102.73260391 167.29303298 -102.77772844 174.23646665 C-102.87000258 188.49091521 -102.93974859 202.74538093 -103 217 C-117.85 217 -132.7 217 -148 217 C-148 145.06 -148 73.12 -148 -1 C-133.15 -1 -118.3 -1 -103 -1 C-102.67 14.51 -102.34 30.02 -102 46 C-100.35 41.71 -98.7 37.42 -97 33 C-89.10449914 16.85011189 -77.86888893 4.82541198 -61 -2 C-41.89998189 -8.39342343 -18.67276173 -8.00261217 0 0 Z " fill="#000000" transform="translate(3214,650)"/>
<path d="M0 0 C1.66618721 5.01163222 0.1493612 8.75062976 -1.45703125 13.546875 C-1.72005539 14.35868225 -1.98307953 15.1704895 -2.2540741 16.00689697 C-2.81092196 17.71658131 -3.37357807 19.42438342 -3.94165039 21.13037109 C-4.81258476 23.75025498 -5.66245889 26.37629783 -6.50976562 29.00390625 C-7.05345547 30.66446639 -7.59833622 32.32463719 -8.14453125 33.984375 C-8.527481 35.16709991 -8.527481 35.16709991 -8.91816711 36.37371826 C-10.76881175 41.88440587 -10.76881175 41.88440587 -13 43 C-15.92685908 41.91783837 -18.7253987 40.61357068 -21.56640625 39.32421875 C-28.74158595 36.55699927 -35.65325796 35.63238621 -43.3125 35.6875 C-44.14136719 35.69313965 -44.97023438 35.6987793 -45.82421875 35.70458984 C-59.15572218 35.96675531 -71.44142179 40.07596714 -81.38671875 49.26171875 C-102.70846514 72.23551329 -102.26997806 104.63543474 -102.4140625 133.91796875 C-102.43281894 136.35704673 -102.4523955 138.79611853 -102.4727478 141.23518372 C-102.52360281 147.58890093 -102.56347505 153.94263909 -102.60089111 160.29644775 C-102.6412267 166.80640643 -102.69218264 173.31628157 -102.7421875 179.82617188 C-102.83839308 192.55072778 -102.92198701 205.27531955 -103 218 C-117.52 218 -132.04 218 -147 218 C-147 145.73 -147 73.46 -147 -1 C-132.48 -1 -117.96 -1 -103 -1 C-102.67 15.17 -102.34 31.34 -102 48 C-100.02 42.72 -98.04 37.44 -96 32 C-87.75905542 15.99354994 -76.12832033 3.77437084 -59 -2.4375 C-39.29543853 -8.19123195 -19.17765921 -6.76472225 0 0 Z " fill="#000000" transform="translate(3140,207)"/>
<path d="M0 0 C14.85 0 29.7 0 45 0 C45 72.27 45 144.54 45 219 C30.15 219 15.3 219 0 219 C0 146.73 0 74.46 0 0 Z " fill="#000000" transform="translate(2903,206)"/>
<path d="M0 0 C14.85 0 29.7 0 45 0 C45 72.27 45 144.54 45 219 C30.15 219 15.3 219 0 219 C0 146.73 0 74.46 0 0 Z " fill="#000000" transform="translate(1482,206)"/>
<path d="M0 0 C0 12.21 0 24.42 0 37 C-17.2233896 45.03758181 -17.2233896 45.03758181 -23.9921875 47.98828125 C-24.77034821 48.3293692 -25.54850891 48.67045715 -26.35025024 49.0218811 C-28.85773067 50.12052183 -31.36630505 51.21663577 -33.875 52.3125 C-36.56376114 53.48875521 -39.25232677 54.66545636 -41.94085693 55.84223938 C-43.79448211 56.65356032 -45.6482019 57.4646651 -47.50201416 58.27555847 C-54.16677113 61.19235657 -60.82309217 64.12787377 -67.4765625 67.0703125 C-70.25476971 68.29704533 -73.03314166 69.52340417 -75.81158447 70.74960327 C-77.5880326 71.53454031 -79.36388288 72.32083192 -81.13909912 73.10855103 C-83.62236273 74.21019016 -86.10781007 75.30676008 -88.59375 76.40234375 C-89.31398346 76.72345123 -90.03421692 77.04455872 -90.77627563 77.37539673 C-95.81289848 79.58713719 -100.72780108 81.24260036 -106 83 C-106 70.46 -106 57.92 -106 45 C-83.8426697 35.25988822 -61.68215674 25.52735813 -39.48706055 15.87353516 C-37.91064054 15.18783471 -36.33422444 14.50212526 -34.7578125 13.81640625 C-33.62539879 13.32388367 -33.62539879 13.32388367 -32.47010803 12.82141113 C-27.82546136 10.79965558 -23.18788438 8.7627041 -18.5546875 6.71484375 C-17.47010254 6.23724609 -16.38551758 5.75964844 -15.26806641 5.26757812 C-13.32825588 4.41269318 -11.39026519 3.55366032 -9.45458984 2.68945312 C-8.21636475 2.14514648 -8.21636475 2.14514648 -6.953125 1.58984375 C-6.25348633 1.27909912 -5.55384766 0.96835449 -4.83300781 0.64819336 C-3 0 -3 0 0 0 Z " fill="#000000" transform="translate(2816,0)"/>
<path d="M0 0 C14.85 0 29.7 0 45 0 C45 18.15 45 36.3 45 55 C30.15 55 15.3 55 0 55 C0 36.85 0 18.7 0 0 Z " fill="#000000" transform="translate(2903,100)"/>
<path d="M0 0 C14.85 0 29.7 0 45 0 C45 18.15 45 36.3 45 55 C30.15 55 15.3 55 0 55 C0 36.85 0 18.7 0 0 Z " fill="#000000" transform="translate(1482,100)"/>
</svg>
