<?xml version="1.0" encoding="UTF-8"?>
<svg version="1.1" xmlns="http://www.w3.org/2000/svg" width="387" height="223">
<path d="M0 0 C127.71 0 255.42 0 387 0 C387 73.59 387 147.18 387 223 C259.29 223 131.58 223 0 223 C0 149.41 0 75.82 0 0 Z " fill="#FCFEFE" transform="translate(0,0)"/>
<path d="M0 0 C0 4.62 0 9.24 0 14 C-2.97 14.12375 -2.97 14.12375 -6 14.25 C-13.61406795 14.85415974 -18.24297281 16.42677462 -23.8125 21.625 C-29.43749158 29.21968559 -29.51807259 38.93976469 -30 48 C-24.06 48 -18.12 48 -12 48 C-12 52.62 -12 57.24 -12 62 C-17.94 62 -23.88 62 -30 62 C-30 90.05 -30 118.1 -30 147 C-35.94 147 -41.88 147 -48 147 C-48 118.95 -48 90.9 -48 62 C-52.62 62 -57.24 62 -62 62 C-62 57.38 -62 52.76 -62 48 C-57.38 48 -52.76 48 -48 48 C-48.04125 46.411875 -48.0825 44.82375 -48.125 43.1875 C-48.07513355 30.22222388 -44.87157775 19.35051627 -35.87109375 9.75 C-25.51901787 0.06789146 -13.4431325 -0.36999447 0 0 Z " fill="#05487D" transform="translate(245,59)"/>
<path d="M0 0 C0.73605469 0.2784375 1.47210938 0.556875 2.23046875 0.84375 C10.91854017 4.41124128 18.88462031 9.610953 26.75 14.6875 C38.10007233 21.97114354 48.31655238 25.5613081 62 24 C70.84853594 21.94553431 78.10473508 17.96385673 84 11 C85.0827695 9.21175061 86.12561001 7.39864959 87.125 5.5625 C89.55188088 1.14937304 89.55188088 1.14937304 93.75 -0.25 C97 0 97 0 99 2 C99 8.65594118 95.89304592 12.80292647 92 18 C91.236875 19.051875 90.47375 20.10375 89.6875 21.1875 C80.8964125 30.3874753 68.73318084 34.96662617 56.12573242 35.29223633 C47.66364951 35.37059769 40.87076494 34.35934153 33 31 C31.38544922 30.33484375 31.38544922 30.33484375 29.73828125 29.65625 C27.68346474 28.8035879 25.6344379 27.93672506 23.59375 27.05078125 C12.18402495 22.42846794 -4.74880892 23.547022 -16 28 C-26.40882954 32.45863577 -35.27714679 37.80950523 -43.6875 45.4375 C-46.6705365 47.4530652 -48.47316554 47.54861869 -52 47 C-54 44 -54 44 -53.890625 41.58203125 C-50.46525972 31.65147664 -35.78634348 24.89693399 -26.99609375 20.49609375 C-17.1592298 16.10814512 -6.67897981 14.06789798 4 13 C-11.59754743 6.38285867 -27.42070363 5.54814598 -43.3984375 11.52734375 C-55.89211177 16.63592857 -67.08923058 23.47560936 -77.0625 32.625 C-80 35 -80 35 -82.8125 35.5 C-85 35 -85 35 -87 33 C-87.47013731 29.4521597 -87.52481638 27.69646221 -85.33984375 24.796875 C-62.56779001 5.39434466 -30.43393398 -12.19459876 0 0 Z " fill="#09AFAD" transform="translate(96,49)"/>
<path d="M0 0 C0 4.62 0 9.24 0 14 C-1.258125 13.67 -2.51625 13.34 -3.8125 13 C-11.66024112 11.29718825 -19.2676131 10.61025607 -26.40625 14.80859375 C-28.86772755 16.64866888 -29.9459775 18.10143813 -31 21 C-31.62423834 25.9158769 -31.64277565 27.90728139 -29.125 32.1875 C-25.43967075 35.98481439 -20.76267315 37.86297855 -16 40 C-13.82079075 40.99491311 -11.64478722 41.99621819 -9.47167969 43.00439453 C-7.97718773 43.69669125 -6.47923567 44.38157887 -4.97753906 45.05810547 C1.08536456 47.84960804 5.57389358 50.84518712 9.25 56.5625 C9.75015625 57.32691406 10.2503125 58.09132812 10.765625 58.87890625 C14.41207674 65.14480275 13.8145566 73.16275143 12.3515625 80.0546875 C9.5328624 88.75170234 4.94733336 93.63520851 -3.0625 97.875 C-9.93737325 101.24001089 -16.81415661 101.18219332 -24.3125 101.1875 C-25.66118164 101.20586914 -25.66118164 101.20586914 -27.03710938 101.22460938 C-32.88626194 101.23729734 -38.39084391 100.75362064 -44 99 C-45 98 -45 98 -45.09765625 94.62109375 C-45.09098369 93.22652923 -45.07902532 91.83198257 -45.0625 90.4375 C-45.05798828 89.72658203 -45.05347656 89.01566406 -45.04882812 88.28320312 C-45.03700864 86.52209987 -45.01907263 84.76103964 -45 83 C-44.33613281 83.20496094 -43.67226562 83.40992188 -42.98828125 83.62109375 C-42.10527344 83.89050781 -41.22226563 84.15992188 -40.3125 84.4375 C-39.44238281 84.70433594 -38.57226562 84.97117187 -37.67578125 85.24609375 C-28.38376588 87.86413604 -18.7431104 88.52768217 -10 84 C-6.01280797 79.80833658 -4.61420972 76.93450214 -4.73046875 71.08984375 C-5.26074704 66.97826569 -7.35223891 64.37024343 -10.484375 61.765625 C-15.00621629 58.68437032 -19.98523005 56.68431051 -25 54.5625 C-34.48241631 50.53165843 -43.43520597 45.30109019 -48.13671875 35.671875 C-50.35363752 28.81046125 -49.98024577 21.17752689 -47 14.625 C-42.36305403 6.57891911 -34.95972868 1.29960401 -26.21484375 -1.58984375 C-17.63256426 -3.17915477 -8.33535347 -2.33974834 0 0 Z " fill="#05477C" transform="translate(171,107)"/>
<path d="M0 0 C2.875 2.4375 2.875 2.4375 5 5 C5.721875 5.78375 6.44375 6.5675 7.1875 7.375 C11.41750605 13.50121565 11.95350581 20.76924761 11 28 C8.26124062 36.50971664 3.37584683 41.32091011 -4.0625 45.875 C-10.70381588 48.38427546 -19.85133713 48.37865546 -26.375 45.5625 C-32.45276731 41.8948818 -37.94877088 35.83409506 -40 29 C-40.83064193 21.27065824 -41.13915166 13.61061962 -36.68359375 6.93359375 C-26.6058527 -4.64061001 -13.48419692 -7.28619763 0 0 Z " fill="#02B0AE" transform="translate(164,14)"/>
<path d="M0 0 C4.875 1.75 4.875 1.75 6 4 C7.0725 3.979375 8.145 3.95875 9.25 3.9375 C12.14790424 3.9857984 14.28612141 4.13155885 17 5 C17 4.01 17 3.02 17 2 C18.32 2 19.64 2 21 2 C21 2.99 21 3.98 21 5 C21.99 5 22.98 5 24 5 C24 4.01 24 3.02 24 2 C24.99 2 25.98 2 27 2 C27 6.62 27 11.24 27 16 C26.01 16 25.02 16 24 16 C23.505 15.01 23.505 15.01 23 14 C23 15.32 23 16.64 23 18 C21.35 17.67 19.7 17.34 18 17 C17.505 13.535 17.505 13.535 17 10 C16.896875 11.0725 16.79375 12.145 16.6875 13.25 C16.00244882 16.98664282 15.26275928 18.14695569 13 21 C12.75101077 24.81039263 12.75101077 24.81039263 13.9609375 27.38671875 C15.11025277 30.27728987 15.40131436 32.71818198 15.625 35.8125 C15.69976562 36.78832031 15.77453125 37.76414063 15.8515625 38.76953125 C15.90054688 39.50558594 15.94953125 40.24164063 16 41 C11.2278272 42.30413629 6.74612283 41.90261853 1.875 41.5625 C0.26826702 41.45904581 -1.33850254 41.35615779 -2.9453125 41.25390625 C-3.65187988 41.20564697 -4.35844727 41.1573877 -5.08642578 41.10766602 C-8.98966516 40.88805278 -12.79603793 41.19176538 -16.6875 41.5 C-18.45673828 41.63921875 -18.45673828 41.63921875 -20.26171875 41.78125 C-21.61716797 41.88953125 -21.61716797 41.88953125 -23 42 C-23.33 40.68 -23.66 39.36 -24 38 C-24.66 38 -25.32 38 -26 38 C-26 39.32 -26 40.64 -26 42 C-28.31 42 -30.62 42 -33 42 C-35.03595109 37.92809781 -35.14719638 35.39758611 -34 31 C-33.34 30.01 -32.68 29.02 -32 28 C-30.68 28.33 -29.36 28.66 -28 29 C-27.67 28.34 -27.34 27.68 -27 27 C-26.34 27.33 -25.68 27.66 -25 28 C-25 26.68 -25 25.36 -25 24 C-24.38125 23.773125 -23.7625 23.54625 -23.125 23.3125 C-20.3909864 21.91485814 -20.3909864 21.91485814 -19 17 C-27.415 17.495 -27.415 17.495 -36 18 C-36.99 16.35 -37.98 14.7 -39 13 C-41.47266765 13.34444881 -41.47266765 13.34444881 -44 14 C-44.33 14.66 -44.66 15.32 -45 16 C-45.99 16 -46.98 16 -48 16 C-48 11.38 -48 6.76 -48 2 C-44.7 2 -41.4 2 -38 2 C-37.67 2.66 -37.34 3.32 -37 4 C-33.97065509 4.65772428 -33.97065509 4.65772428 -31 5 C-30.67 5.99 -30.34 6.98 -30 8 C-29.01 8 -28.02 8 -27 8 C-27 7.34 -27 6.68 -27 6 C-26.34 6 -25.68 6 -25 6 C-25 8.64 -25 11.28 -25 14 C-23.35 14 -21.7 14 -20 14 C-20 11.36 -20 8.72 -20 6 C-19.34 6 -18.68 6 -18 6 C-17.67 8.97 -17.34 11.94 -17 15 C-16.67 12.03 -16.34 9.06 -16 6 C-15.28972656 6.01160156 -14.57945312 6.02320313 -13.84765625 6.03515625 C-12.92855469 6.04417969 -12.00945312 6.05320313 -11.0625 6.0625 C-10.14597656 6.07410156 -9.22945313 6.08570313 -8.28515625 6.09765625 C-6.03406673 6.25949049 -6.03406673 6.25949049 -5 5 C-3.33382885 4.95936168 -1.66611905 4.957279 0 5 C0 3.35 0 1.7 0 0 Z " fill="#F7FCFB" transform="translate(328,165)"/>
<path d="M0 0 C5.61 0 11.22 0 17 0 C17 32.67 17 65.34 17 99 C11.39 99 5.78 99 0 99 C0 66.33 0 33.66 0 0 Z " fill="#01467E" transform="translate(246,107)"/>
<path d="M0 0 C-0.33 0.66 -0.66 1.32 -1 2 C0.32 2.33 1.64 2.66 3 3 C3 3.66 3 4.32 3 5 C3.94101563 4.72285156 4.88203125 4.44570312 5.8515625 4.16015625 C7.71941406 3.61681641 7.71941406 3.61681641 9.625 3.0625 C10.85476562 2.70285156 12.08453125 2.34320313 13.3515625 1.97265625 C27.35478091 -1.76053581 41.65084717 -0.48268777 55 5 C56.06734375 5.23009766 56.06734375 5.23009766 57.15625 5.46484375 C57.7646875 5.64144531 58.373125 5.81804687 59 6 C59.495 6.99 59.495 6.99 60 8 C62.02520515 8.43021613 62.02520515 8.43021613 64.375 8.5625 C67.19477465 8.78753088 69.28663703 9.09554568 72 10 C71.67 10.33 71.34 10.66 71 11 C78.41017023 11.11459026 85.64206267 10.91160286 93 10 C86.06752903 14.62164731 76.08149761 13.70534891 68 13 C63.77892803 12.09688693 59.96367221 10.69174518 56 9 C54.38544922 8.33484375 54.38544922 8.33484375 52.73828125 7.65625 C50.68346474 6.8035879 48.6344379 5.93672506 46.59375 5.05078125 C35.18402495 0.42846794 18.25119108 1.547022 7 6 C-3.40882954 10.45863577 -12.27714679 15.80950523 -20.6875 23.4375 C-23.6705365 25.4530652 -25.47316554 25.54861869 -29 25 C-31 22 -31 22 -30.890625 19.58203125 C-27.85176577 10.77200516 -14.98511955 4.10244674 -7 0 C-2.52935863 -1.26467931 -2.52935863 -1.26467931 0 0 Z " fill="#0CAFAD" transform="translate(73,71)"/>
<path d="M0 0 C0.66 0 1.32 0 2 0 C2.04898437 0.84304687 2.09796875 1.68609375 2.1484375 2.5546875 C2.22320312 3.65039062 2.29796875 4.74609375 2.375 5.875 C2.44460938 6.96554688 2.51421875 8.05609375 2.5859375 9.1796875 C2.73253491 12.13046474 2.73253491 12.13046474 5 14 C5.66 12.35 6.32 10.7 7 9 C8.65 9 10.3 9 12 9 C12 8.01 12 7.02 12 6 C10.35 6 8.7 6 7 6 C7 5.34 7 4.68 7 4 C23.07754785 1.95840662 23.07754785 1.95840662 29 5 C31.09821215 4.60061233 31.09821215 4.60061233 33 4 C33.66 4.33 34.32 4.66 35 5 C35 3.35 35 1.7 35 0 C35.99 0.33 36.98 0.66 38 1 C38.38863565 3.12254855 38.76053209 5.24816828 39.125 7.375 C39.33382812 8.55835938 39.54265625 9.74171875 39.7578125 10.9609375 C39.83773437 11.96382812 39.91765625 12.96671875 40 14 C38 16 38 16 36.00390625 16.23046875 C30.4182932 16.13216196 24.90544209 15.79452062 19.34765625 15.21875 C15.29027156 14.84069086 11.36535528 15.17898176 7.3125 15.5 C5.54326172 15.63921875 5.54326172 15.63921875 3.73828125 15.78125 C2.38283203 15.88953125 2.38283203 15.88953125 1 16 C0.67 14.68 0.34 13.36 0 12 C-0.66 12 -1.32 12 -2 12 C-2 13.32 -2 14.64 -2 16 C-4.31 16 -6.62 16 -9 16 C-11.03684712 11.92630576 -11.0257259 9.41062136 -10 5 C-6.846632 4.29925156 -4.27275026 4 -1 4 C-0.67 2.68 -0.34 1.36 0 0 Z " fill="#DBFBFB" transform="translate(304,191)"/>
<path d="M0 0 C2 2 2 2 2 5.0625 C1.1096949 10.14995769 -1.96504901 13.94845173 -5 18 C-5.763125 19.051875 -6.52625 20.10375 -7.3125 21.1875 C-12.00102506 26.09409599 -17.56543638 29.78550733 -24 32 C-24.99 32 -25.98 32 -27 32 C-27 31.34 -27 30.68 -27 30 C-27.66 29.67 -28.32 29.34 -29 29 C-29 28.34 -29 27.68 -29 27 C-29.75619629 26.98018066 -30.51239258 26.96036133 -31.29150391 26.93994141 C-34.73633718 26.84435428 -38.18059201 26.73481109 -41.625 26.625 C-42.81480469 26.5940625 -44.00460938 26.563125 -45.23046875 26.53125 C-46.96103516 26.47324219 -46.96103516 26.47324219 -48.7265625 26.4140625 C-49.78439941 26.3826416 -50.84223633 26.3512207 -51.93212891 26.31884766 C-55.22348277 25.97677316 -57.94237161 25.25849726 -61 24 C-61.33 23.34 -61.66 22.68 -62 22 C-64.90259811 20.6250851 -66.76138705 20 -70 20 C-70.33 18.35 -70.66 16.7 -71 15 C-69.58847656 15.72316406 -69.58847656 15.72316406 -68.1484375 16.4609375 C-66.89073478 17.0991747 -65.63291608 17.7371834 -64.375 18.375 C-63.75753906 18.69210938 -63.14007813 19.00921875 -62.50390625 19.3359375 C-52.46540835 24.40802065 -42.38243592 25.7140645 -31.3828125 23.16015625 C-20.44820084 19.33947429 -13.62408289 13.1418071 -8.19140625 3.00390625 C-6.12959699 -0.46398933 -3.78613844 -0.28396038 0 0 Z " fill="#07AFAD" transform="translate(193,49)"/>
<path d="M0 0 C2.05078125 0.03255208 4.1015625 0.06510417 6.15234375 0.09765625 C6.81234375 1.74765625 7.47234375 3.39765625 8.15234375 5.09765625 C7.82234375 5.42765625 7.49234375 5.75765625 7.15234375 6.09765625 C8.20035156 6.08025391 8.20035156 6.08025391 9.26953125 6.0625 C10.17960937 6.05347656 11.0896875 6.04445312 12.02734375 6.03515625 C13.38472656 6.01775391 13.38472656 6.01775391 14.76953125 6 C17.15234375 6.09765625 17.15234375 6.09765625 19.15234375 7.09765625 C19.15234375 5.44765625 19.15234375 3.79765625 19.15234375 2.09765625 C20.14234375 2.09765625 21.13234375 2.09765625 22.15234375 2.09765625 C22.48234375 3.41765625 22.81234375 4.73765625 23.15234375 6.09765625 C24.26609375 6.05640625 25.37984375 6.01515625 26.52734375 5.97265625 C30.15234375 6.09765625 30.15234375 6.09765625 32.15234375 8.09765625 C31.82234375 9.08765625 31.49234375 10.07765625 31.15234375 11.09765625 C30.65734375 10.10765625 30.65734375 10.10765625 30.15234375 9.09765625 C28.1277112 8.44552333 28.1277112 8.44552333 26.15234375 8.09765625 C26.15234375 9.08765625 26.15234375 10.07765625 26.15234375 11.09765625 C27.47234375 11.42765625 28.79234375 11.75765625 30.15234375 12.09765625 C28.83234375 12.09765625 27.51234375 12.09765625 26.15234375 12.09765625 C26.64734375 13.08765625 26.64734375 13.08765625 27.15234375 14.09765625 C28.80234375 14.09765625 30.45234375 14.09765625 32.15234375 14.09765625 C32.15234375 14.75765625 32.15234375 15.41765625 32.15234375 16.09765625 C27.53234375 16.42765625 22.91234375 16.75765625 18.15234375 17.09765625 C18.15234375 14.78765625 18.15234375 12.47765625 18.15234375 10.09765625 C16.50234375 10.09765625 14.85234375 10.09765625 13.15234375 10.09765625 C13.15234375 11.08765625 13.15234375 12.07765625 13.15234375 13.09765625 C14.14234375 13.09765625 15.13234375 13.09765625 16.15234375 13.09765625 C16.15234375 14.08765625 16.15234375 15.07765625 16.15234375 16.09765625 C10.21234375 16.09765625 4.27234375 16.09765625 -1.84765625 16.09765625 C-2.17765625 14.44765625 -2.50765625 12.79765625 -2.84765625 11.09765625 C-3.83765625 10.76765625 -4.82765625 10.43765625 -5.84765625 10.09765625 C-3.64656283 0.19273588 -3.64656283 0.19273588 0 0 Z " fill="#DEFCFB" transform="translate(281.84765625,140.90234375)"/>
<path d="M0 0 C3.3 0 6.6 0 10 0 C10.33 0.66 10.66 1.32 11 2 C14.02934491 2.65772428 14.02934491 2.65772428 17 3 C17.33 3.99 17.66 4.98 18 6 C18.99 6 19.98 6 21 6 C21 5.34 21 4.68 21 4 C21.66 4 22.32 4 23 4 C23 6.64 23 9.28 23 12 C24.65 12 26.3 12 28 12 C28 9.36 28 6.72 28 4 C28.66 4 29.32 4 30 4 C30.33 6.97 30.66 9.94 31 13 C31.33 10.03 31.66 7.06 32 4 C35.375 3.875 35.375 3.875 39 4 C41 6 41 6 41.1953125 7.9453125 C41.13020833 9.96354167 41.06510417 11.98177083 41 14 C40.34 14 39.68 14 39 14 C39 11.36 39 8.72 39 6 C37.68 6 36.36 6 35 6 C35 8.97 35 11.94 35 15 C27.41 15.33 19.82 15.66 12 16 C11.01 14.35 10.02 12.7 9 11 C6.52733235 11.34444881 6.52733235 11.34444881 4 12 C3.67 12.66 3.34 13.32 3 14 C2.01 14 1.02 14 0 14 C0 9.38 0 4.76 0 0 Z " fill="#98D7D4" transform="translate(280,167)"/>
<path d="M0 0 C4.29 0 8.58 0 13 0 C12.67 0.99 12.34 1.98 12 3 C11.34 2.67 10.68 2.34 10 2 C8.46331135 1.77532169 6.92031946 1.59203195 5.375 1.4375 C3.93125 1.293125 2.4875 1.14875 1 1 C1 3.97 1 6.94 1 10 C1.91523438 9.96519531 2.83046875 9.93039063 3.7734375 9.89453125 C4.96195313 9.86746094 6.15046875 9.84039062 7.375 9.8125 C9.15003906 9.76029297 9.15003906 9.76029297 10.9609375 9.70703125 C12.46527344 9.85205078 12.46527344 9.85205078 14 10 C16.51746345 13.77619518 16.22843219 16.68770669 16.13525391 21.05151367 C16.12579239 21.87125168 16.11633087 22.69098969 16.10658264 23.53556824 C16.07288965 26.24659458 16.0247787 28.95716501 15.9765625 31.66796875 C15.95039695 33.54696967 15.92512981 35.4259833 15.90072632 37.30500793 C15.83405997 42.25190301 15.75517041 47.19853104 15.67376709 52.14520264 C15.59286206 57.19240057 15.52347258 62.23975521 15.453125 67.28710938 C15.31337792 77.19159413 15.16072228 87.09583497 15 97 C19.95 97 24.9 97 30 97 C30 97.33 30 97.66 30 98 C24.39 98 18.78 98 13 98 C13 69.62 13 41.24 13 12 C8.71 12 4.42 12 0 12 C0 8.04 0 4.08 0 0 Z " fill="#0A3F68" transform="translate(184,108)"/>
<path d="M0 0 C5.61 0 11.22 0 17 0 C17 32.67 17 65.34 17 99 C11.39 99 5.78 99 0 99 C0 66.33 0 33.66 0 0 Z M2 2 C0.90350342 6.38598632 0.86743127 10.41894807 0.88647461 14.89941406 C0.88632858 15.79732666 0.88618256 16.69523926 0.8860321 17.62036133 C0.88672824 20.58547387 0.89450671 23.55052344 0.90234375 26.515625 C0.90420899 28.57257045 0.90563239 30.62951635 0.90663147 32.6864624 C0.9104483 38.09844185 0.92027149 43.51039444 0.93133545 48.92236328 C0.94156748 54.44563432 0.94613293 59.96890971 0.95117188 65.4921875 C0.96189448 76.3281368 0.97896093 87.16406616 1 98 C5.95 98 10.9 98 16 98 C16 66.32 16 34.64 16 2 C11.38 2 6.76 2 2 2 Z " fill="#0B3B6A" transform="translate(246,107)"/>
<path d="M0 0 C0.66 0.66 1.32 1.32 2 2 C5.59679066 1.67673447 5.59679066 1.67673447 9 1 C11 4 11 4 11 8 C9.02 8 7.04 8 5 8 C5.33 8.66 5.66 9.32 6 10 C7.32 10 8.64 10 10 10 C10 10.66 10 11.32 10 12 C7.77404152 12.27711526 5.54388779 12.52066929 3.3125 12.75 C2.07113281 12.88921875 0.82976562 13.0284375 -0.44921875 13.171875 C-4.64249675 12.96890005 -6.06241918 11.8982633 -9 9 C-9 9.99 -9 10.98 -9 12 C-9.66 12 -10.32 12 -11 12 C-11.33 9.69 -11.66 7.38 -12 5 C-12.99 5 -13.98 5 -15 5 C-15.33 7.31 -15.66 9.62 -16 12 C-16.66 12 -17.32 12 -18 12 C-18 8.7 -18 5.4 -18 2 C-15.56281065 1.66424944 -13.12529385 1.33130715 -10.6875 1 C-9.99720703 0.90460938 -9.30691406 0.80921875 -8.59570312 0.7109375 C-5.70352927 0.31972558 -2.92235023 0 0 0 Z " fill="#C0F0EE" transform="translate(335,145)"/>
<path d="M0 0 C0.495 6.93 0.495 6.93 1 14 C-0.5675 14.04125 -2.135 14.0825 -3.75 14.125 C-4.63171875 14.14820313 -5.5134375 14.17140625 -6.421875 14.1953125 C-9.14619795 13.9889244 -10.62134946 13.26629622 -13 12 C-14.99961564 11.96079185 -17.00049364 11.95556653 -19 12 C-20 11 -20 11 -20.1875 7.5625 C-20 4 -20 4 -18 2 C-15.67724823 1.59952556 -13.34260643 1.2602896 -11 1 C-11 1.66 -11 2.32 -11 3 C-10.01 2.34 -9.02 1.68 -8 1 C-2.2 0 -2.2 0 0 0 Z " fill="#D5FBFA" transform="translate(378,169)"/>
<path d="M0 0 C0.66 0 1.32 0 2 0 C2.04898437 0.84304687 2.09796875 1.68609375 2.1484375 2.5546875 C2.22320312 3.65039062 2.29796875 4.74609375 2.375 5.875 C2.44460938 6.96554688 2.51421875 8.05609375 2.5859375 9.1796875 C2.73253491 12.13046474 2.73253491 12.13046474 5 14 C5.66 12.35 6.32 10.7 7 9 C8.65 9 10.3 9 12 9 C12 8.01 12 7.02 12 6 C10.35 6 8.7 6 7 6 C7 5.34 7 4.68 7 4 C9.375 3.875 9.375 3.875 12 4 C14 6 14 6 14.1953125 8.1640625 C14.13020833 10.44270833 14.06510417 12.72135417 14 15 C7.565 15.495 7.565 15.495 1 16 C0.67 14.68 0.34 13.36 0 12 C-0.66 12 -1.32 12 -2 12 C-2 13.32 -2 14.64 -2 16 C-4.31 16 -6.62 16 -9 16 C-11.03684712 11.92630576 -11.0257259 9.41062136 -10 5 C-6.846632 4.29925156 -4.27275026 4 -1 4 C-0.67 2.68 -0.34 1.36 0 0 Z " fill="#CFF8F9" transform="translate(304,191)"/>
<path d="M0 0 C0.99 0 1.98 0 3 0 C3 1.65 3 3.3 3 5 C4.27875 4.79375 5.5575 4.5875 6.875 4.375 C9.0546875 4.0234375 9.0546875 4.0234375 11 4 C13 6 13 6 13.1953125 7.9453125 C13.13020833 9.96354167 13.06510417 11.98177083 13 14 C1.22613065 15.32663317 1.22613065 15.32663317 -4 15 C-6 13 -6 13 -6.1875 9.5 C-6 6 -6 6 -5 4 C-3.68 4 -2.36 4 -1 4 C-0.67 2.68 -0.34 1.36 0 0 Z " fill="#C0F2F0" transform="translate(330,167)"/>
<path d="M0 0 C1.06734375 0.23009766 1.06734375 0.23009766 2.15625 0.46484375 C3.06890625 0.72974609 3.06890625 0.72974609 4 1 C4.495 1.99 4.495 1.99 5 3 C7.02520515 3.43021613 7.02520515 3.43021613 9.375 3.5625 C12.19477465 3.78753088 14.28663703 4.09554568 17 5 C16.67 5.33 16.34 5.66 16 6 C23.41017023 6.11459026 30.64206267 5.91160286 38 5 C31.06752903 9.62164731 21.08149761 8.70534891 13 8 C8.77892803 7.09688693 4.96367221 5.69174518 1 4 C-0.07636719 3.5565625 -1.15273437 3.113125 -2.26171875 2.65625 C-4.31653526 1.8035879 -6.3655621 0.93672506 -8.40625 0.05078125 C-13.95693215 -2.19791378 -19.07174077 -2.22872013 -25 -2.25 C-25.93956543 -2.25394775 -26.87913086 -2.25789551 -27.84716797 -2.26196289 C-34.23944081 -2.20851948 -39.72340994 -1.54671415 -45.8203125 0.44140625 C-48 1 -48 1 -51 0 C-48.95990245 -0.65077296 -46.91784331 -1.29539824 -44.875 -1.9375 C-43.16957031 -2.47697266 -43.16957031 -2.47697266 -41.4296875 -3.02734375 C-27.62654344 -6.94190283 -13.16430723 -5.40676904 0 0 Z " fill="#25A9A8" transform="translate(128,76)"/>
<path d="M0 0 C1.32 0 2.64 0 4 0 C4.66 0.66 5.32 1.32 6 2 C8.32275177 2.40047444 10.65739357 2.7397104 13 3 C13 3.99 13 4.98 13 6 C11.68 6.33 10.36 6.66 9 7 C9 9.97 9 12.94 9 16 C5.7 15.67 2.4 15.34 -1 15 C-0.67 10.05 -0.34 5.1 0 0 Z " fill="#ABE1E0" transform="translate(279,191)"/>
<path d="M0 0 C3.3 0 6.6 0 10 0 C10.33 0.66 10.66 1.32 11 2 C14.02934491 2.65772428 14.02934491 2.65772428 17 3 C17 3.99 17 4.98 17 6 C15.35 5.67 13.7 5.34 12 5 C11.34 6.98 10.68 8.96 10 11 C8.824375 10.9071875 8.824375 10.9071875 7.625 10.8125 C6.325625 10.9053125 6.325625 10.9053125 5 11 C4.01 12.485 4.01 12.485 3 14 C2.01 14 1.02 14 0 14 C0 9.38 0 4.76 0 0 Z " fill="#D8FBFB" transform="translate(280,167)"/>
<path d="M0 0 C0.99 0 1.98 0 3 0 C3 0.99 3 1.98 3 3 C3.99 3 4.98 3 6 3 C6 2.01 6 1.02 6 0 C6.99 0 7.98 0 9 0 C9 4.62 9 9.24 9 14 C8.01 14 7.02 14 6 14 C5.67 13.34 5.34 12.68 5 12 C5 13.32 5 14.64 5 16 C3.35 15.67 1.7 15.34 0 15 C-0.19601608 13.25093341 -0.38147403 11.50068154 -0.5625 9.75 C-0.66691406 8.77546875 -0.77132813 7.8009375 -0.87890625 6.796875 C-0.98974468 4.2368648 -0.77738092 2.41851841 0 0 Z " fill="#ACDDDC" transform="translate(346,167)"/>
<path d="M0 0 C0.33 1.32 0.66 2.64 1 4 C-0.65 4.33 -2.3 4.66 -4 5 C-4.33 6.65 -4.66 8.3 -5 10 C-3.35 10 -1.7 10 0 10 C0 10.66 0 11.32 0 12 C-3.14624993 12.26218749 -4.61837017 12.24754367 -7.3125 10.5 C-7.869375 10.005 -8.42625 9.51 -9 9 C-9 9.99 -9 10.98 -9 12 C-9.66 12 -10.32 12 -11 12 C-11.33 9.69 -11.66 7.38 -12 5 C-12.99 5 -13.98 5 -15 5 C-15.33 7.31 -15.66 9.62 -16 12 C-16.66 12 -17.32 12 -18 12 C-18 8.7 -18 5.4 -18 2 C-15.56281065 1.66424944 -13.12529385 1.33130715 -10.6875 1 C-9.99720703 0.90460938 -9.30691406 0.80921875 -8.59570312 0.7109375 C-5.70352927 0.31972558 -2.92235023 0 0 0 Z " fill="#E0FBFB" transform="translate(335,145)"/>
<path d="M0 0 C3 1 3 1 4.25 2.9375 C4.4975 3.618125 4.745 4.29875 5 5 C4.67 5.66 4.34 6.32 4 7 C6.31 7.66 8.62 8.32 11 9 C11 9.99 11 10.98 11 12 C9.35 12.33 7.7 12.66 6 13 C6 14.32 6 15.64 6 17 C4.35 17.33 2.7 17.66 1 18 C1 13 1 8 1 3 C0.34 3 -0.32 3 -1 3 C-1.33 4.65 -1.66 6.3 -2 8 C-4.64 7.67 -7.28 7.34 -10 7 C-9.67 6.34 -9.34 5.68 -9 5 C-7.02 5.495 -7.02 5.495 -5 6 C-4.67 5.34 -4.34 4.68 -4 4 C-3.34 4.33 -2.68 4.66 -2 5 C-2 3.68 -2 2.36 -2 1 C-1.34 0.67 -0.68 0.34 0 0 Z " fill="#E9FDFC" transform="translate(305,188)"/>
<path d="M0 0 C1.32 0.66 2.64 1.32 4 2 C3.34 2 2.68 2 2 2 C2 3.65 2 5.3 2 7 C-0.475 6.505 -0.475 6.505 -3 6 C-3.0270043 7.45823212 -3.04639787 8.91660675 -3.0625 10.375 C-3.07410156 11.18710938 -3.08570313 11.99921875 -3.09765625 12.8359375 C-3.14466334 15.04937142 -3.14466334 15.04937142 -2 17 C-3.58226965 17.19627391 -5.16589271 17.38165538 -6.75 17.5625 C-7.63171875 17.66691406 -8.5134375 17.77132812 -9.421875 17.87890625 C-11.88432451 17.99456676 -13.66538064 17.73638695 -16 17 C-15.01 17 -14.02 17 -13 17 C-13 14.03 -13 11.06 -13 8 C-11.68 8 -10.36 8 -9 8 C-9 10.64 -9 13.28 -9 16 C-8.34 16 -7.68 16 -7 16 C-7.144375 14.72125 -7.28875 13.4425 -7.4375 12.125 C-7.55931641 11.04605469 -7.55931641 11.04605469 -7.68359375 9.9453125 C-7.91292961 7.92595684 -7.91292961 7.92595684 -9 6 C-4.545 5.505 -4.545 5.505 0 5 C0 3.35 0 1.7 0 0 Z " fill="#D4FAFA" transform="translate(328,165)"/>
<path d="M0 0 C0.99 0 1.98 0 3 0 C3.33 1.32 3.66 2.64 4 4 C5.11375 3.95875 6.2275 3.9175 7.375 3.875 C11 4 11 4 13 6 C12.67 6.99 12.34 7.98 12 9 C11.67 8.34 11.34 7.68 11 7 C8.97536745 6.34786708 8.97536745 6.34786708 7 6 C7 6.99 7 7.98 7 9 C8.32 9.33 9.64 9.66 11 10 C9.68 10 8.36 10 7 10 C7.33 10.66 7.66 11.32 8 12 C9.65 12 11.3 12 13 12 C13 12.66 13 13.32 13 14 C8.71 14 4.42 14 0 14 C0 9.38 0 4.76 0 0 Z " fill="#9DD4D4" transform="translate(301,143)"/>
<path d="M0 0 C0 0.33 0 0.66 0 1 C-0.96421875 1.19335938 -1.9284375 1.38671875 -2.921875 1.5859375 C-4.81679687 1.97652344 -4.81679687 1.97652344 -6.75 2.375 C-8.00296875 2.63023438 -9.2559375 2.88546875 -10.546875 3.1484375 C-15.28939814 4.31797375 -17.26669452 4.90004179 -20 9 C-20.66 9 -21.32 9 -22 9 C-22.33 9.99 -22.66 10.98 -23 12 C-23.7115625 12.61875 -23.7115625 12.61875 -24.4375 13.25 C-28.15856187 17.41758929 -28.37098515 23.28592059 -28.26953125 28.64453125 C-27.8127417 32.6364747 -26.47674473 36.28176774 -25 40 C-24.34 40 -23.68 40 -23 40 C-23.33 40.99 -23.66 41.98 -24 43 C-29.80374581 36.22896322 -30.6398421 30.51064553 -30.3671875 21.734375 C-29.62252342 14.16098283 -26.35699398 9.85385907 -20.625 5.0625 C-13.98311738 0.32769259 -7.93598951 -0.32391794 0 0 Z " fill="#2DADA9" transform="translate(154,10)"/>
<path d="M0 0 C2.9719385 1.12451727 5.33440687 2.22293791 8 4 C8 3.34 8 2.68 8 2 C10.64 2 13.28 2 16 2 C16 2.33 16 2.66 16 3 C13.69 3 11.38 3 9 3 C9 6.3 9 9.6 9 13 C9.66 13.33 10.32 13.66 11 14 C7.37 14.33 3.74 14.66 0 15 C0 14.34 0 13.68 0 13 C1.98 13 3.96 13 6 13 C6 12.34 6 11.68 6 11 C4.35 11.33 2.7 11.66 1 12 C0.31292445 9.50935112 0 7.62113708 0 5 C1.65 5.33 3.3 5.66 5 6 C4.67 5.34 4.34 4.68 4 4 C2.35 4 0.7 4 -1 4 C-0.67 2.68 -0.34 1.36 0 0 Z " fill="#D3FAFA" transform="translate(308,144)"/>
<path d="M0 0 C3.375 -0.125 3.375 -0.125 7 0 C9 2 9 2 9.1953125 4.1640625 C9.13020833 6.44270833 9.06510417 8.72135417 9 11 C6.03 11 3.06 11 0 11 C0 7.37 0 3.74 0 0 Z " fill="#96D8D5" transform="translate(321,195)"/>
<path d="M0 0 C0.66 0 1.32 0 2 0 C2 4.62 2 9.24 2 14 C-0.64 14 -3.28 14 -6 14 C-7.38125018 11.23749964 -7.19079306 9.05268901 -7 6 C-6.34 5.34 -5.68 4.68 -5 4 C-2.375 4.375 -2.375 4.375 0 5 C0 3.35 0 1.7 0 0 Z " fill="#6BC1BD" transform="translate(339,191)"/>
<path d="M0 0 C0.91587891 -0.01224609 1.83175781 -0.02449219 2.77539062 -0.03710938 C8.10883415 -0.04859561 12.51895496 0.43231858 17.5625 2.1875 C17.5625 2.5175 17.5625 2.8475 17.5625 3.1875 C16.65894775 3.18226318 15.75539551 3.17702637 14.82446289 3.17163086 C11.48298511 3.15462314 8.14155308 3.14206667 4.80004883 3.13256836 C3.35179927 3.12752899 1.90355483 3.12069747 0.45532227 3.11206055 C-1.62224588 3.09997753 -3.69974697 3.09426789 -5.77734375 3.08984375 C-7.02894287 3.08460693 -8.28054199 3.07937012 -9.57006836 3.07397461 C-12.33482294 2.85862965 -12.33482294 2.85862965 -13.4375 4.1875 C-15.0771875 4.4040625 -15.0771875 4.4040625 -16.75 4.625 C-20.27288349 4.96918214 -20.27288349 4.96918214 -22.5625 6.25 C-24.94568085 7.44159043 -26.80977096 7.33348495 -29.4375 7.1875 C-21.65852705 0.08495948 -9.91115772 0.00694545 0 0 Z " fill="#D4FBFB" transform="translate(102.4375,72.8125)"/>
<path d="M0 0 C0.66 0.66 1.32 1.32 2 2 C1.625 5.625 1.625 5.625 1 9 C0.855625 8.38125 0.71125 7.7625 0.5625 7.125 C0.06847775 4.96741678 0.06847775 4.96741678 -1 3 C-3.52733235 2.34444881 -3.52733235 2.34444881 -6 2 C-5.896875 2.721875 -5.79375 3.44375 -5.6875 4.1875 C-6.12584438 8.13259942 -8.15159084 9.35504864 -11 12 C-12.63566305 14.45349457 -13.11153908 15.33076555 -12.625 18.25 C-12.41875 18.8275 -12.2125 19.405 -12 20 C-12.99 20 -13.98 20 -15 20 C-15 19.34 -15 18.68 -15 18 C-15.66 17.67 -16.32 17.34 -17 17 C-17 17.66 -17 18.32 -17 19 C-20 21 -20 21 -22.1875 20.625 C-23.0846875 20.315625 -23.0846875 20.315625 -24 20 C-23.50371094 19.67128906 -23.00742188 19.34257813 -22.49609375 19.00390625 C-16.38908508 14.72784135 -11.2147952 9.5750879 -7.9296875 2.7890625 C-6.16433674 -0.60812509 -3.49097008 -0.26182276 0 0 Z " fill="#1BABA8" transform="translate(193,49)"/>
<path d="M0 0 C0.66 0 1.32 0 2 0 C2 4.62 2 9.24 2 14 C-0.31 14 -2.62 14 -5 14 C-6 13 -6 13 -6.125 9.5625 C-6 6 -6 6 -5 4 C-3.68 4 -2.36 4 -1 4 C-0.67 2.68 -0.34 1.36 0 0 Z " fill="#41A9A2" transform="translate(330,167)"/>
<path d="M0 0 C0.33 0 0.66 0 1 0 C1 4.95 1 9.9 1 15 C6.61 15 12.22 15 18 15 C18 18.96 18 22.92 18 27 C12.72 27 7.44 27 2 27 C2 26.67 2 26.34 2 26 C6.62 25.67 11.24 25.34 16 25 C16 22.03 16 19.06 16 16 C10.72 16 5.44 16 0 16 C-2.29771645 11.40456709 -1.24581251 4.82752346 0 0 Z " fill="#0E406C" transform="translate(214,93)"/>
<path d="M0 0 C1.41152344 0.72316406 1.41152344 0.72316406 2.8515625 1.4609375 C4.10926522 2.0991747 5.36708392 2.7371834 6.625 3.375 C7.55119141 3.85066406 7.55119141 3.85066406 8.49609375 4.3359375 C15.02076619 7.6326141 20.54127982 9.32045003 27.9375 9.1875 C28.95360352 9.1865332 28.95360352 9.1865332 29.99023438 9.18554688 C34.42522028 9.14727758 38.63628547 8.71116599 43 8 C42.34 9.32 41.68 10.64 41 12 C36.95779519 11.8896357 32.91648085 11.75911994 28.875 11.625 C27.16183594 11.57859375 27.16183594 11.57859375 25.4140625 11.53125 C24.30546875 11.49257812 23.196875 11.45390625 22.0546875 11.4140625 C21.03874512 11.3826416 20.02280273 11.3512207 18.97607422 11.31884766 C15.72645969 10.97069371 13.02223766 10.2375945 10 9 C9.67 8.34 9.34 7.68 9 7 C6.09740189 5.6250851 4.23861295 5 1 5 C0.67 3.35 0.34 1.7 0 0 Z " fill="#22A7A5" transform="translate(122,64)"/>
<path d="M0 0 C0.99 0 1.98 0 3 0 C3.144375 1.093125 3.28875 2.18625 3.4375 3.3125 C3.88288104 6.93122987 3.88288104 6.93122987 5 10 C4.77738247 12.69424292 4.49139452 15.32579582 4.125 18 C4.03347656 18.72445312 3.94195312 19.44890625 3.84765625 20.1953125 C3.44649213 23.25772029 2.97901597 26.06295209 2 29 C0.8553125 29.6496875 0.8553125 29.6496875 -0.3125 30.3125 C-3.58344496 32.36634916 -4.93035924 34.78848847 -7 38 C-7.66 38 -8.32 38 -9 38 C-9 37.34 -9 36.68 -9 36 C-9.66 35.67 -10.32 35.34 -11 35 C-10.48050781 34.68289062 -9.96101562 34.36578125 -9.42578125 34.0390625 C-3.50200617 30.07527955 -0.12064198 25.85509849 2 19 C2.87727978 12.36037721 1.92019055 6.3606312 0 0 Z " fill="#D5F8F8" transform="translate(172,23)"/>
<path d="M0 0 C3 0.1875 3 0.1875 5 1.1875 C5 4.1575 5 7.1275 5 10.1875 C5.66 10.5175 6.32 10.8475 7 11.1875 C6.01 11.1875 5.02 11.1875 4 11.1875 C4 8.8775 4 6.5675 4 4.1875 C2.35 4.1875 0.7 4.1875 -1 4.1875 C-1 5.1775 -1 6.1675 -1 7.1875 C-0.01 7.1875 0.98 7.1875 2 7.1875 C2 8.1775 2 9.1675 2 10.1875 C-0.31 9.8575 -2.62 9.5275 -5 9.1875 C-5.125 5.8125 -5.125 5.8125 -5 2.1875 C-3 0.1875 -3 0.1875 0 0 Z " fill="#CCF9F8" transform="translate(296,146.8125)"/>
<path d="M0 0 C1.43678101 -0.00193359 1.43678101 -0.00193359 2.90258789 -0.00390625 C8.88862601 0.08755505 14.26350954 0.88807937 20.0625 2.375 C20.0625 3.035 20.0625 3.695 20.0625 4.375 C20.7225 4.375 21.3825 4.375 22.0625 4.375 C21.7325 5.035 21.4025 5.695 21.0625 6.375 C20.42828125 6.08625 19.7940625 5.7975 19.140625 5.5 C3.6329506 -0.66879866 -11.73128322 1.69130378 -26.9375 7.375 C-28.26407676 7.73428121 -29.59452985 8.08290399 -30.9375 8.375 C-30.9375 7.715 -30.9375 7.055 -30.9375 6.375 C-29.9475 6.375 -28.9575 6.375 -27.9375 6.375 C-27.9375 5.715 -27.9375 5.055 -27.9375 4.375 C-18.59652003 1.33816471 -9.8434045 -0.01270834 0 0 Z " fill="#25A4A4" transform="translate(75.9375,54.625)"/>
<path d="M0 0 C4.55555556 0.55555556 4.55555556 0.55555556 6 2 C6.125 5.5 6.125 5.5 6 9 C5 10 5 10 2 10.125 C-1 10 -1 10 -2 9 C-2.1875 5.5625 -2.1875 5.5625 -2 2 C-1.34 1.34 -0.68 0.68 0 0 Z " fill="#42A59F" transform="translate(360,171)"/>
<path d="M0 0 C0.99 0.33 1.98 0.66 3 1 C3.8125 2.875 3.8125 2.875 4 5 C3.01 6.485 3.01 6.485 2 8 C0.68 7.67 -0.64 7.34 -2 7 C-1.67 8.32 -1.34 9.64 -1 11 C-1.99 10.67 -2.98 10.34 -4 10 C-4 10.99 -4 11.98 -4 13 C-5.32 12.67 -6.64 12.34 -8 12 C-8 11.01 -8 10.02 -8 9 C-7.34 8.67 -6.68 8.34 -6 8 C-5.87625 7.360625 -5.7525 6.72125 -5.625 6.0625 C-5 4 -5 4 -3 2.875 C-2.34 2.58625 -1.68 2.2975 -1 2 C-0.67 1.34 -0.34 0.68 0 0 Z " fill="#04B0AF" transform="translate(29,62)"/>
<path d="M0 0 C1.32 0.66 2.64 1.32 4 2 C2.7764437 2.96548612 1.54585189 3.92205898 0.3125 4.875 C-0.71423828 5.67550781 -0.71423828 5.67550781 -1.76171875 6.4921875 C-8.37252541 10.94554068 -15.26354794 10.71601475 -23 10 C-27.8159974 8.58866541 -31.45313958 6.45700573 -34 2 C-32.68 2.33 -31.36 2.66 -30 3 C-30 3.66 -30 4.32 -30 5 C-19.14047572 7.99573084 -12.22911118 9.19573901 -2 4 C-2 3.34 -2 2.68 -2 2 C-1.34 2 -0.68 2 0 2 C0 1.34 0 0.68 0 0 Z " fill="#22A7A4" transform="translate(165,51)"/>
<path d="M0 0 C4.55555556 0.55555556 4.55555556 0.55555556 6 2 C6.125 5.5 6.125 5.5 6 9 C5 10 5 10 2.5625 10.1875 C0 10 0 10 -2 8 C-2.25 5 -2.25 5 -2 2 C-1.34 1.34 -0.68 0.68 0 0 Z " fill="#46A8A2" transform="translate(292,171)"/>
<path d="M0 0 C1.53202706 0.25195908 3.05257128 0.57596777 4.5625 0.9375 C5.38878906 1.13214844 6.21507812 1.32679688 7.06640625 1.52734375 C8.02353516 1.76130859 8.02353516 1.76130859 9 2 C8.01 2.495 8.01 2.495 7 3 C7 5.64 7 8.28 7 11 C5.35 11 3.7 11 2 11 C2 8.36 2 5.72 2 3 C1.34 3 0.68 3 0 3 C0 3.66 0 4.32 0 5 C-0.99 5 -1.98 5 -3 5 C-3.66 3.68 -4.32 2.36 -5 1 C-3.68 1 -2.36 1 -1 1 C-0.67 0.67 -0.34 0.34 0 0 Z " fill="#EEFDFE" transform="translate(301,168)"/>
<path d="M0 0 C5.07043935 4.40327628 6.53749824 7.93123456 7.2890625 14.54296875 C7.68037803 21.84409279 5.76197242 26.80618113 2 33 C1.67 33 1.34 33 1 33 C1 31.35 1 29.7 1 28 C1.66 28 2.32 28 3 28 C3.66 22.06 4.32 16.12 5 10 C4.34 10 3.68 10 3 10 C2.690625 8.906875 2.38125 7.81375 2.0625 6.6875 C1.41662103 4.44592006 0.7376883 2.2130649 0 0 Z " fill="#27AAA6" transform="translate(168,19)"/>
<path d="M0 0 C1.4540625 0.0309375 1.4540625 0.0309375 2.9375 0.0625 C3.2675 1.0525 3.5975 2.0425 3.9375 3.0625 C1.9575 3.0625 -0.0225 3.0625 -2.0625 3.0625 C-2.0625 3.7225 -2.0625 4.3825 -2.0625 5.0625 C-0.0825 5.7225 1.8975 6.3825 3.9375 7.0625 C3.98004356 9.06204746 3.97830783 11.06291636 3.9375 13.0625 C2.9375 14.0625 2.9375 14.0625 -0.625 14.125 C-1.759375 14.104375 -2.89375 14.08375 -4.0625 14.0625 C-4.3925 13.4025 -4.7225 12.7425 -5.0625 12.0625 C-2.7525 12.0625 -0.4425 12.0625 1.9375 12.0625 C1.9375 10.7425 1.9375 9.4225 1.9375 8.0625 C1.15375 8.10375 0.37 8.145 -0.4375 8.1875 C-3.0625 8.0625 -3.0625 8.0625 -5.0625 6.0625 C-4.33395709 0.0884481 -4.33395709 0.0884481 0 0 Z " fill="#46A49F" transform="translate(284.0625,142.9375)"/>
<path d="M0 0 C0.33 1.32 0.66 2.64 1 4 C0.34 4 -0.32 4 -1 4 C-1.0825 4.53625 -1.165 5.0725 -1.25 5.625 C-2.29863814 8.94568746 -3.82813886 11.28517358 -6 14 C-8.625 14.625 -8.625 14.625 -11 15 C-11.268125 15.66 -11.53625 16.32 -11.8125 17 C-13 19 -13 19 -14.89453125 19.484375 C-16.9226016 19.72589651 -18.96183632 19.86850557 -21 20 C-19.36464582 18.90976388 -17.71688207 17.83470827 -16.01953125 16.84375 C-9.24742002 12.72055307 -3.58596457 7.17192914 0 0 Z " fill="#D3F9F8" transform="translate(192,60)"/>
<path d="M0 0 C2.375 -0.125 2.375 -0.125 5 0 C7 2 7 2 7.1953125 3.9453125 C7.13020833 5.96354167 7.06510417 7.98177083 7 10 C4.69 10 2.38 10 0 10 C-0.33 8.35 -0.66 6.7 -1 5 C0.98 5 2.96 5 5 5 C5 4.01 5 3.02 5 2 C3.02 2 1.04 2 -1 2 C-0.67 1.34 -0.34 0.68 0 0 Z " fill="#5CB2AF" transform="translate(336,171)"/>
<path d="M0 0 C2.375 -0.125 2.375 -0.125 5 0 C7 2 7 2 7.1953125 3.9453125 C7.13020833 5.96354167 7.06510417 7.98177083 7 10 C4.69 10 2.38 10 0 10 C-0.5625 8.0625 -0.5625 8.0625 -1 6 C0 5 0 5 2.5625 4.9375 C3.7690625 4.9684375 3.7690625 4.9684375 5 5 C5 4.01 5 3.02 5 2 C3.35 2 1.7 2 0 2 C0 1.34 0 0.68 0 0 Z " fill="#52B0AD" transform="translate(311,195)"/>
<path d="M0 0 C2.625 0.375 2.625 0.375 5 1 C5.33 2.65 5.66 4.3 6 6 C4.02 6 2.04 6 0 6 C0.33 6.66 0.66 7.32 1 8 C2.32 8 3.64 8 5 8 C5 8.66 5 9.32 5 10 C3.00045254 10.04254356 0.99958364 10.04080783 -1 10 C-2 9 -2 9 -2.1875 5.5625 C-2 2 -2 2 0 0 Z " fill="#3D9E9D" transform="translate(340,147)"/>
<path d="M0 0 C-5.87502087 5.54741748 -12.71028461 4.44988225 -20.375 4.25 C-21.68339844 4.23195313 -22.99179688 4.21390625 -24.33984375 4.1953125 C-27.56064689 4.14829348 -30.77994474 4.08258181 -34 4 C-34.33 3.01 -34.66 2.02 -35 1 C-34.34257812 1.15984375 -33.68515625 1.3196875 -33.0078125 1.484375 C-29.2901694 2.12168525 -25.63607834 2.2328681 -21.875 2.25 C-20.75146118 2.25592163 -20.75146118 2.25592163 -19.60522461 2.26196289 C-14.08766104 2.2044821 -9.24745155 1.3598116 -4.00390625 -0.44140625 C-2 -1 -2 -1 0 0 Z " fill="#C7F6F6" transform="translate(171,81)"/>
<path d="M0 0 C2.97 0 5.94 0 9 0 C9 0.66 9 1.32 9 2 C6.69 2 4.38 2 2 2 C2 3.32 2 4.64 2 6 C3.98 6 5.96 6 8 6 C8 6.66 8 7.32 8 8 C6.02 8 4.04 8 2 8 C2 9.98 2 11.96 2 14 C1.34 14 0.68 14 0 14 C0 9.38 0 4.76 0 0 Z " fill="#40A29D" transform="translate(280,167)"/>
<path d="M0 0 C0.99 0.33 1.98 0.66 3 1 C3 3.31 3 5.62 3 8 C3.66 8 4.32 8 5 8 C5 7.34 5 6.68 5 6 C6.98 6 8.96 6 11 6 C10.360625 6.309375 9.72125 6.61875 9.0625 6.9375 C7.06389179 7.8345163 7.06389179 7.8345163 6 9 C5.855625 10.134375 5.71125 11.26875 5.5625 12.4375 C5 16 5 16 3 18 C2.01 17.67 1.02 17.34 0 17 C0.66 17 1.32 17 2 17 C2 13.7 2 10.4 2 7 C1.34 6.67 0.68 6.34 0 6 C0.66 6 1.32 6 2 6 C2 5.01 2 4.02 2 3 C1.01 3 0.02 3 -1 3 C-0.67 2.01 -0.34 1.02 0 0 Z " fill="#D1F9F9" transform="translate(353,164)"/>
<path d="M0 0 C0.33 0 0.66 0 1 0 C1.66 2.97 2.32 5.94 3 9 C3.66 7.68 4.32 6.36 5 5 C6.65 5.33 8.3 5.66 10 6 C10 6.99 10 7.98 10 9 C8.35 9.33 6.7 9.66 5 10 C5 11.32 5 12.64 5 14 C3.35 14.33 1.7 14.66 0 15 C0 10 0 5 0 0 Z " fill="#B7ECEB" transform="translate(306,191)"/>
<path d="M0 0 C1.32 0.66 2.64 1.32 4 2 C3.67 3.98 3.34 5.96 3 8 C-2.75 9.125 -2.75 9.125 -5 8 C-4.67 6.35 -4.34 4.7 -4 3 C-2.68 2.67 -1.36 2.34 0 2 C0 1.34 0 0.68 0 0 Z " fill="#04B1B0" transform="translate(49,85)"/>
<path d="M0 0 C0.33 0.66 0.66 1.32 1 2 C4.58646443 3.74199701 8.06693147 4.45119974 12 5 C11.67 5.99 11.34 6.98 11 8 C13.64 8.33 16.28 8.66 19 9 C19 9.99 19 10.98 19 12 C12.17004979 10.11928907 5.57468754 7.46906058 0 3 C0 2.01 0 1.02 0 0 Z " fill="#1C4E77" transform="translate(132,151)"/>
<path d="M0 0 C0.99 0 1.98 0 3 0 C3 4.62 3 9.24 3 14 C1.72125 13.690625 0.4425 13.38125 -0.875 13.0625 C-5.88758722 11.93885167 -10.88510956 11.40577419 -16 11 C-16 10.67 -16 10.34 -16 10 C-3.33029613 9.81548975 -3.33029613 9.81548975 2 11 C1.34 7.37 0.68 3.74 0 0 Z " fill="#104069" transform="translate(168,107)"/>
<path d="M0 0 C1.00799891 3.13599662 0.89516729 4.8669145 0 8 C-0.3496418 10.33094534 -0.68554487 12.66404762 -1 15 C-2.65 15 -4.3 15 -6 15 C-4.68 14.67 -3.36 14.34 -2 14 C-2.144375 12.700625 -2.28875 11.40125 -2.4375 10.0625 C-2.55931641 8.96615234 -2.55931641 8.96615234 -2.68359375 7.84765625 C-2.81886614 5.98859771 -2.81886614 5.98859771 -4 5 C-6.67058851 4.85884839 -9.32432238 4.95752893 -12 5 C-11.67 4.01 -11.34 3.02 -11 2 C-3.57142857 1.85714286 -3.57142857 1.85714286 0 3 C0 2.01 0 1.02 0 0 Z " fill="#DCFCFC" transform="translate(345,167)"/>
<path d="M0 0 C0.66 0.99 1.32 1.98 2 3 C1.360625 2.835 0.72125 2.67 0.0625 2.5 C-8.89751704 1.03714008 -16.8840171 2.12258523 -24.5625 7.1875 C-25.7690625 8.0846875 -25.7690625 8.0846875 -27 9 C-26.34 7.68 -25.68 6.36 -25 5 C-24.34 5 -23.68 5 -23 5 C-23 4.01 -23 3.02 -23 2 C-15.50783058 0.10581721 -7.71321768 -1.04262972 0 0 Z " fill="#D0F9F9" transform="translate(157,9)"/>
<path d="M0 0 C0.66 0 1.32 0 2 0 C2.07347656 1.26457031 2.07347656 1.26457031 2.1484375 2.5546875 C2.22320312 3.65039062 2.29796875 4.74609375 2.375 5.875 C2.44460938 6.96554688 2.51421875 8.05609375 2.5859375 9.1796875 C2.73253491 12.13046474 2.73253491 12.13046474 5 14 C7.21072977 14.24253813 7.21072977 14.24253813 9.625 14.125 C10.44226563 14.10695312 11.25953125 14.08890625 12.1015625 14.0703125 C12.72804688 14.04710937 13.35453125 14.02390625 14 14 C14 14.33 14 14.66 14 15 C11.85473901 15.19393875 9.70876323 15.37998676 7.5625 15.5625 C5.77005859 15.71912109 5.77005859 15.71912109 3.94140625 15.87890625 C2.97074219 15.91886719 2.00007813 15.95882812 1 16 C0 15 0 15 -0.09765625 11.62109375 C-0.09098369 10.22652923 -0.07902532 8.83198257 -0.0625 7.4375 C-0.05798828 6.72658203 -0.05347656 6.01566406 -0.04882812 5.28320312 C-0.03700864 3.52209987 -0.01907263 1.76103964 0 0 Z " fill="#7EC8C4" transform="translate(304,191)"/>
<path d="M0 0 C-1.97365069 5.32885686 -6.49619315 8.16133849 -11.25 10.8125 C-14 12 -14 12 -16 12 C-15.67 10.68 -15.34 9.36 -15 8 C-15 8.66 -15 9.32 -15 10 C-11.37206002 8.13433512 -11.37206002 8.13433512 -9 5 C-8.34 5 -7.68 5 -7 5 C-6.67 4.01 -6.34 3.02 -6 2 C-3.85412616 0.684787 -2.52986895 0 0 0 Z " fill="#104572" transform="translate(179,194)"/>
<path d="M0 0 C2.875 -0.125 2.875 -0.125 6 0 C8 2 8 2 8.1953125 3.9453125 C8.13020833 5.96354167 8.06510417 7.98177083 8 10 C7.34 10 6.68 10 6 10 C6 7.36 6 4.72 6 2 C4.68 2 3.36 2 2 2 C2 4.64 2 7.28 2 10 C1.34 10 0.68 10 0 10 C0 6.7 0 3.4 0 0 Z " fill="#439C99" transform="translate(313,171)"/>
<path d="M0 0 C0.66 0.33 1.32 0.66 2 1 C-1.0545348 6.27601466 -3.48080222 8.36038367 -9 11 C-9.33 10.01 -9.66 9.02 -10 8 C-8.71064081 6.85157077 -7.41843421 5.70633773 -6.125 4.5625 C-5.04605469 3.60537109 -5.04605469 3.60537109 -3.9453125 2.62890625 C-2 1 -2 1 0 0 Z " fill="#0B4573" transform="translate(137,109)"/>
<path d="M0 0 C8.50825713 0.43108503 16.69433011 0.98709647 25 3 C25 3.33 25 3.66 25 4 C8.29157175 4.55353075 8.29157175 4.55353075 0 1 C0 0.67 0 0.34 0 0 Z " fill="#D3F9F9" transform="translate(133,70)"/>
<path d="M0 0 C2.875 -0.125 2.875 -0.125 6 0 C8 2 8 2 8.1953125 3.9453125 C8.13020833 5.96354167 8.06510417 7.98177083 8 10 C7.34 10 6.68 10 6 10 C6 7.36 6 4.72 6 2 C4.68 2 3.36 2 2 2 C2 4.64 2 7.28 2 10 C1.34 10 0.68 10 0 10 C0 6.7 0 3.4 0 0 Z " fill="#3F9893" transform="translate(369,171)"/>
<path d="M0 0 C-10.13836478 8 -10.13836478 8 -16 8 C-16 6.35 -16 4.7 -16 3 C-14.02 3.66 -12.04 4.32 -10 5 C-9.79375 4.38125 -9.5875 3.7625 -9.375 3.125 C-7.25535372 -0.15081698 -3.63044833 -1.81522417 0 0 Z " fill="#1FABAA" transform="translate(182,73)"/>
<path d="M0 0 C2.475 0.99 2.475 0.99 5 2 C2.63202009 4.61724095 0.10399646 6.32861729 -3 8 C-3.66 8 -4.32 8 -5 8 C-5.66 9.32 -6.32 10.64 -7 12 C-7.66 11.67 -8.32 11.34 -9 11 C-7.87672229 9.54033966 -6.75131706 8.08231636 -5.625 6.625 C-4.99851563 5.81289062 -4.37203125 5.00078125 -3.7265625 4.1640625 C-2 2 -2 2 0 0 Z " fill="#154D7B" transform="translate(211,67)"/>
<path d="M0 0 C0.99 0.33 1.98 0.66 3 1 C1.730447 1.64834654 0.45930294 2.29357815 -0.8125 2.9375 C-1.52019531 3.29714844 -2.22789062 3.65679687 -2.95703125 4.02734375 C-6.16201599 5.55323515 -8.67979266 6.1200034 -12.1875 6.0625 C-14.0746875 6.0315625 -14.0746875 6.0315625 -16 6 C-15.67 5.34 -15.34 4.68 -15 4 C-13.02 4 -11.04 4 -9 4 C-8.67 3.01 -8.34 2.02 -8 1 C-6.865625 1.020625 -5.73125 1.04125 -4.5625 1.0625 C-1.18424326 1.41577477 -1.18424326 1.41577477 0 0 Z " fill="#E2FDFD" transform="translate(169,67)"/>
<path d="M0 0 C-1.875 1.0625 -1.875 1.0625 -4 2 C-4.66 1.67 -5.32 1.34 -6 1 C-6 4.3 -6 7.6 -6 11 C-6.99 11 -7.98 11 -9 11 C-9.22786458 8.98177083 -9.45572917 6.96354167 -9.68359375 4.9453125 C-9.91292961 2.92595684 -9.91292961 2.92595684 -11 1 C-7.32589215 -0.17571451 -3.83070817 -0.07366746 0 0 Z " fill="#D4F9F9" transform="translate(327,194)"/>
<path d="M0 0 C0.33 0 0.66 0 1 0 C1 3.63 1 7.26 1 11 C0.34 9.68 -0.32 8.36 -1 7 C-1.99 7 -2.98 7 -4 7 C-4.25030977 9.41619823 -4.25030977 9.41619823 -4 12 C-3.01 12.66 -2.02 13.32 -1 14 C-2.65 14 -4.3 14 -6 14 C-7.38125018 11.23749964 -7.19079306 9.05268901 -7 6 C-6.34 5.34 -5.68 4.68 -5 4 C-2.375 4.375 -2.375 4.375 0 5 C0 3.35 0 1.7 0 0 Z " fill="#3B9F9B" transform="translate(339,191)"/>
<path d="M0 0 C2.33294775 -0.04241723 4.66702567 -0.04092937 7 0 C8 1 8 1 8.09765625 3.06640625 C8.08605469 3.89011719 8.07445312 4.71382812 8.0625 5.5625 C8.05347656 6.38878906 8.04445313 7.21507812 8.03515625 8.06640625 C8.02355469 8.70449219 8.01195312 9.34257812 8 10 C7.67 10 7.34 10 7 10 C6.67 7.69 6.34 5.38 6 3 C5.01 3 4.02 3 3 3 C2.67 5.31 2.34 7.62 2 10 C1.34 10 0.68 10 0 10 C0 6.7 0 3.4 0 0 Z " fill="#459E9B" transform="translate(317,147)"/>
<path d="M0 0 C4.29 0 8.58 0 13 0 C12.67 0.99 12.34 1.98 12 3 C11.34 2.67 10.68 2.34 10 2 C8.46331135 1.77532169 6.92031946 1.59203195 5.375 1.4375 C3.93125 1.293125 2.4875 1.14875 1 1 C1.33 3.97 1.66 6.94 2 10 C5.63 10.33 9.26 10.66 13 11 C13 11.33 13 11.66 13 12 C8.71 12 4.42 12 0 12 C0 8.04 0 4.08 0 0 Z " fill="#0C3F6A" transform="translate(184,108)"/>
<path d="M0 0 C2.625 0.375 2.625 0.375 5 1 C5.33 2.32 5.66 3.64 6 5 C5.34 4.34 4.68 3.68 4 3 C1.93125966 2.3574765 1.93125966 2.3574765 0 2 C0 2.99 0 3.98 0 5 C1.32 5.33 2.64 5.66 4 6 C2.68 6 1.36 6 0 6 C0.33 6.66 0.66 7.32 1 8 C2.65 8 4.3 8 6 8 C6 8.66 6 9.32 6 10 C3.125 10.125 3.125 10.125 0 10 C-2 8 -2 8 -2.25 5 C-2 2 -2 2 0 0 Z " fill="#42A0A0" transform="translate(308,147)"/>
<path d="M0 0 C0.99 0.33 1.98 0.66 3 1 C3.33 2.65 3.66 4.3 4 6 C1.525 7.485 1.525 7.485 -1 9 C-3 7 -3 7 -3.3125 4.5 C-3.209375 3.675 -3.10625 2.85 -3 2 C-2.01 1.34 -1.02 0.68 0 0 Z " fill="#05B1AF" transform="translate(14,74)"/>
<path d="M0 0 C0 3 0 3 -1.875 5.125 C-4 7 -4 7 -6 8 C-6 10.31 -6 12.62 -6 15 C-4.68 15.33 -3.36 15.66 -2 16 C-4.375 16.125 -4.375 16.125 -7 16 C-9 14 -9 14 -9.40625 11.1484375 C-8.88418592 7.10244092 -7.63024629 6.14658729 -4.5 3.625 C-3.6646875 2.93664062 -2.829375 2.24828125 -1.96875 1.5390625 C-1.3190625 1.03117187 -0.669375 0.52328125 0 0 Z " fill="#36ACA6" transform="translate(18,68)"/>
<path d="M0 0 C-1.12148438 0.70576172 -1.12148438 0.70576172 -2.265625 1.42578125 C-3.74289063 2.35970703 -3.74289063 2.35970703 -5.25 3.3125 C-6.22453125 3.92738281 -7.1990625 4.54226562 -8.203125 5.17578125 C-10.54733713 6.70475759 -12.78784032 8.28820977 -15 10 C-15 8.68 -15 7.36 -15 6 C-10.74935061 1.87436971 -5.97139191 -1.88773035 0 0 Z " fill="#D3F9F9" transform="translate(64,73)"/>
<path d="M0 0 C2.00720923 0.28674418 4.0085944 0.61866701 6 1 C5.67 2.32 5.34 3.64 5 5 C4.67 4.34 4.34 3.68 4 3 C3.01 3 2.02 3 1 3 C1 4.65 1 6.3 1 8 C2.65 8 4.3 8 6 8 C6 8.66 6 9.32 6 10 C3.125 10.1875 3.125 10.1875 0 10 C-2 7 -2 7 -1.6875 3.875 C-1 1 -1 1 0 0 Z " fill="#42999A" transform="translate(295,195)"/>
<path d="M0 0 C-0.33 0.99 -0.66 1.98 -1 3 C-2.0725 3.12375 -3.145 3.2475 -4.25 3.375 C-7.82385483 3.78173316 -7.82385483 3.78173316 -10.125 5.0625 C-12.50818085 6.25409043 -14.37227096 6.14598495 -17 6 C-12.34234228 1.74735599 -6.18257992 0 0 0 Z " fill="#CAF5F6" transform="translate(90,74)"/>
<path d="M0 0 C0.66 0 1.32 0 2 0 C2 4.62 2 9.24 2 14 C-0.31 14 -2.62 14 -5 14 C-3.68 13.34 -2.36 12.68 -1 12 C-1.020625 10.948125 -1.04125 9.89625 -1.0625 8.8125 C-1.01103198 5.67295096 -0.73482813 3.03116604 0 0 Z " fill="#35A19B" transform="translate(330,167)"/>
<path d="M0 0 C2.625 0.375 2.625 0.375 5 1 C4.360625 1.226875 3.72125 1.45375 3.0625 1.6875 C0.72806339 2.85250896 0.72806339 2.85250896 0.25 5.625 C0.1675 6.40875 0.085 7.1925 0 8 C1.65 8 3.3 8 5 8 C5 8.66 5 9.32 5 10 C2.69 9.67 0.38 9.34 -2 9 C-2.125 5.625 -2.125 5.625 -2 2 C-1.34 1.34 -0.68 0.68 0 0 Z " fill="#4BA39F" transform="translate(293,147)"/>
<path d="M0 0 C0.66 0.66 1.32 1.32 2 2 C1.625 5.625 1.625 5.625 1 9 C0.855625 8.38125 0.71125 7.7625 0.5625 7.125 C0.06847775 4.96741678 0.06847775 4.96741678 -1 3 C-3.52733235 2.34444881 -3.52733235 2.34444881 -6 2 C-6.33 3.65 -6.66 5.3 -7 7 C-7.66 7 -8.32 7 -9 7 C-8.39816251 4.97954558 -7.72693904 2.97888961 -7 1 C-4.48718205 -0.25640898 -2.78302919 -0.20872719 0 0 Z " fill="#28A6A4" transform="translate(193,49)"/>
<path d="M0 0 C0.66 0 1.32 0 2 0 C2 0.99 2 1.98 2 3 C2.66 3 3.32 3 4 3 C4 3.66 4 4.32 4 5 C3.34 5 2.68 5 2 5 C2.66 7.64 3.32 10.28 4 13 C2.68 12.67 1.36 12.34 0 12 C-0.19573608 10.56359829 -0.38127816 9.12580496 -0.5625 7.6875 C-0.66691406 6.88699219 -0.77132813 6.08648437 -0.87890625 5.26171875 C-1 3 -1 3 0 0 Z " fill="#3FA6A3" transform="translate(346,168)"/>
<path d="M0 0 C2.0625 0.4375 2.0625 0.4375 4 1 C4 3.31 4 5.62 4 8 C2.33333333 8 0.66666667 8 -1 8 C-1.04241723 5.66705225 -1.04092937 3.33297433 -1 1 C-0.67 0.67 -0.34 0.34 0 0 Z " fill="#C0EFEF" transform="translate(320,149)"/>
<path d="M0 0 C2.00720923 0.28674418 4.0085944 0.61866701 6 1 C5.34 1.66 4.68 2.32 4 3 C3.01 3 2.02 3 1 3 C0.67 4.65 0.34 6.3 0 8 C1.65 8 3.3 8 5 8 C5 8.66 5 9.32 5 10 C2.625 10.125 2.625 10.125 0 10 C-0.66 9.34 -1.32 8.68 -2 8 C-1.42307692 1.42307692 -1.42307692 1.42307692 0 0 Z " fill="#45A3A2" transform="translate(330,147)"/>
<path d="M0 0 C0.66 0.33 1.32 0.66 2 1 C2 3.64 2 6.28 2 9 C1.34 8.67 0.68 8.34 0 8 C0 6.68 0 5.36 0 4 C-0.99 4 -1.98 4 -3 4 C-3.33 5.98 -3.66 7.96 -4 10 C-4.33 10 -4.66 10 -5 10 C-5 7.69 -5 5.38 -5 3 C-3.35 2.67 -1.7 2.34 0 2 C0 1.34 0 0.68 0 0 Z " fill="#BDF1F2" transform="translate(292,195)"/>
<path d="M0 0 C2.31 0 4.62 0 7 0 C7 0.66 7 1.32 7 2 C5.68 2.33 4.36 2.66 3 3 C2.67 5.31 2.34 7.62 2 10 C1.34 10 0.68 10 0 10 C0 6.7 0 3.4 0 0 Z " fill="#57ABA8" transform="translate(285,195)"/>
<path d="M0 0 C-1 3 -1 3 -3 5 C-3.556875 5.70125 -4.11375 6.4025 -4.6875 7.125 C-7.83573854 9.67762585 -10.06036749 9.30304865 -14 9 C-13.42507813 8.74476562 -12.85015625 8.48953125 -12.2578125 8.2265625 C-8.99056679 6.45162279 -6.52191069 3.97308725 -3.8046875 1.4609375 C-2 0 -2 0 0 0 Z " fill="#D2F9F8" transform="translate(26,76)"/>
<path d="M0 0 C2.97 0.495 2.97 0.495 6 1 C2.58983503 3.86453858 -0.90694544 5.34703566 -5 7 C-5.33 6.01 -5.66 5.02 -6 4 C-4.68 4 -3.36 4 -2 4 C-1.34 2.68 -0.68 1.36 0 0 Z " fill="#18ACA8" transform="translate(71,76)"/>
<path d="M0 0 C0.33 0 0.66 0 1 0 C1.07347656 1.08667969 1.07347656 1.08667969 1.1484375 2.1953125 C1.55206152 7.41458867 2.01275807 12.09813658 4 17 C3.01 17 2.02 17 1 17 C-2 12.77777778 -2 12.77777778 -2 10 C-1.34 10 -0.68 10 0 10 C0 6.7 0 3.4 0 0 Z " fill="#C8F2F2" transform="translate(123,32)"/>
<path d="M0 0 C0.33 0 0.66 0 1 0 C1.103125 1.299375 1.20625 2.59875 1.3125 3.9375 C1.848308 8.90160353 3.24930225 13.34248334 5 18 C5.66 18 6.32 18 7 18 C6.67 18.99 6.34 19.98 6 21 C1.58578006 15.85007673 -0.28948502 12.01362812 -0.125 5.1875 C-0.10695313 4.21167969 -0.08890625 3.23585937 -0.0703125 2.23046875 C-0.04710938 1.49441406 -0.02390625 0.75835937 0 0 Z " fill="#22A6A2" transform="translate(124,32)"/>
<path d="M0 0 C1.32 0.33 2.64 0.66 4 1 C3.52949219 1.39832031 3.05898437 1.79664062 2.57421875 2.20703125 C1.95160156 2.73683594 1.32898438 3.26664062 0.6875 3.8125 C0.07261719 4.33457031 -0.54226562 4.85664062 -1.17578125 5.39453125 C-2.85424679 6.87172469 -4.43882034 8.40039131 -6 10 C-6.33 8.68 -6.66 7.36 -7 6 C-6.21625 5.7525 -5.4325 5.505 -4.625 5.25 C-1.67682892 3.84610901 -1.0975223 2.99324263 0 0 Z " fill="#DBEDF6" transform="translate(131,110)"/>
<path d="M0 0 C0.66 0 1.32 0 2 0 C1.80664062 0.52207031 1.61328125 1.04414062 1.4140625 1.58203125 C-0.7287785 7.63926991 -1.99288223 13.66108225 -3 20 C-3.33 20 -3.66 20 -4 20 C-4.51778074 12.30520289 -3.7505733 6.78117047 0 0 Z " fill="#D6EAF4" transform="translate(201,76)"/>
<path d="M0 0 C1.99954746 -0.04254356 4.00041636 -0.04080783 6 0 C7 1 7 1 7.09765625 3.06640625 C7.08605469 3.89011719 7.07445312 4.71382812 7.0625 5.5625 C7.05347656 6.38878906 7.04445313 7.21507812 7.03515625 8.06640625 C7.01775391 9.02353516 7.01775391 9.02353516 7 10 C6.67 10 6.34 10 6 10 C5.67 7.69 5.34 5.38 5 3 C4.01 3 3.02 3 2 3 C1.67 5.31 1.34 7.62 1 10 C0.67 10 0.34 10 0 10 C0 6.7 0 3.4 0 0 Z " fill="#359894" transform="translate(322,195)"/>
<path d="M0 0 C-2.9417345 1.96115634 -5.89097329 3.46229008 -9.0625 5 C-11.23163505 6.07403709 -11.23163505 6.07403709 -14 8 C-14.33 6.68 -14.66 5.36 -15 4 C-13.44219668 3.32243118 -11.87849904 2.65840543 -10.3125 2 C-9.44238281 1.62875 -8.57226562 1.2575 -7.67578125 0.875 C-4.9427998 -0.01870488 -2.85299066 -0.16449676 0 0 Z " fill="#14456C" transform="translate(235,72)"/>
<path d="M0 0 C0.33 0.66 0.66 1.32 1 2 C1.66 2.33 2.32 2.66 3 3 C2.67 4.32 2.34 5.64 2 7 C-0.31 7.33 -2.62 7.66 -5 8 C-4.34 6.35 -3.68 4.7 -3 3 C-2.01 3 -1.02 3 0 3 C0 2.01 0 1.02 0 0 Z " fill="#0EB2B6" transform="translate(181,66)"/>
<path d="M0 0 C0.91058531 3.07322544 1.08886184 5.80097361 1 9 C0.2575 9.28875 -0.485 9.5775 -1.25 9.875 C-3.56900199 10.82368263 -5.76932676 11.86559779 -8 13 C-7.59007812 12.48050781 -7.18015625 11.96101562 -6.7578125 11.42578125 C-3.92363424 7.7576223 -1.40171967 4.48550294 0 0 Z " fill="#D8EBF4" transform="translate(182,188)"/>
<path d="M0 0 C0.66 0.33 1.32 0.66 2 1 C2 1.66 2 2.32 2 3 C1.01 3 0.02 3 -1 3 C-1 4.65 -1 6.3 -1 8 C-3.97 8 -6.94 8 -10 8 C-10 7.34 -10 6.68 -10 6 C-8.02 6 -6.04 6 -4 6 C-3.71125 5.38125 -3.4225 4.7625 -3.125 4.125 C-2 2 -2 2 0 0 Z " fill="#E6FEFE" transform="translate(302,140)"/>
<path d="M0 0 C2.18994248 3.28491373 2.35277339 4.83095639 2.625 8.6875 C2.69976562 9.68136719 2.77453125 10.67523438 2.8515625 11.69921875 C2.92503906 12.83810547 2.92503906 12.83810547 3 14 C2.01 14 1.02 14 0 14 C0 9.38 0 4.76 0 0 Z " fill="#EAFDFD" transform="translate(341,192)"/>
<path d="M0 0 C0.33 0 0.66 0 1 0 C1 1.98 1 3.96 1 6 C1.66 6 2.32 6 3 6 C3.33 4.02 3.66 2.04 4 0 C4.33 0 4.66 0 5 0 C5 2.64 5 5.28 5 8 C3.35 8 1.7 8 0 8 C0 5.36 0 2.72 0 0 Z " fill="#AFE7E8" transform="translate(303,171)"/>
<path d="M0 0 C0.66 0.33 1.32 0.66 2 1 C2 1.66 2 2.32 2 3 C0.7934375 4.0828125 0.7934375 4.0828125 -0.4375 5.1875 C-3.47854071 8.52522761 -3.73954147 10.57220493 -4 15 C-4.33 15 -4.66 15 -5 15 C-5.42277492 8.86976372 -4.99795398 5.96715495 -1 1 C-0.67 0.67 -0.34 0.34 0 0 Z " fill="#C9DFED" transform="translate(144,121)"/>
<path d="M0 0 C0 3.41099168 -0.49145406 6.63088314 -1 10 C0.65 10 2.3 10 4 10 C4 10.33 4 10.66 4 11 C1.125 11.1875 1.125 11.1875 -2 11 C-4 8 -4 8 -3.8125 5.5 C-2.95559826 2.86337925 -2.11007147 1.74310252 0 0 Z " fill="#35AAA4" transform="translate(46,85)"/>
<path d="M0 0 C0.66 0.33 1.32 0.66 2 1 C1.525625 2.11375 1.05125 3.2275 0.5625 4.375 C-1.26185255 9.17683359 -1.69708844 13.90272966 -2 19 C-2.33 19 -2.66 19 -3 19 C-3.20787761 12.61353776 -3.23003917 7.03422365 -1 1 C-0.67 0.67 -0.34 0.34 0 0 Z " fill="#DDFCFC" transform="translate(125,23)"/>
<path d="M0 0 C1.23556641 0.01740234 1.23556641 0.01740234 2.49609375 0.03515625 C3.32238281 0.04417969 4.14867187 0.05320313 5 0.0625 C5.63808594 0.07410156 6.27617187 0.08570313 6.93359375 0.09765625 C2.41259556 3.11165504 -0.9267269 3.21873972 -6.31640625 3.16015625 C-7.3940625 3.15113281 -8.47171875 3.14210937 -9.58203125 3.1328125 C-10.401875 3.12121094 -11.22171875 3.10960937 -12.06640625 3.09765625 C-12.06640625 2.76765625 -12.06640625 2.43765625 -12.06640625 2.09765625 C-11.10927734 2.00677734 -11.10927734 2.00677734 -10.1328125 1.9140625 C-8.89337891 1.78837891 -8.89337891 1.78837891 -7.62890625 1.66015625 C-6.80519531 1.57894531 -5.98148438 1.49773437 -5.1328125 1.4140625 C-2.72569953 1.04548755 -2.43674783 0.11515822 0 0 Z " fill="#D2EAF7" transform="translate(153.06640625,191.90234375)"/>
<path d="M0 0 C4.61286713 1.31796204 8.14865412 3.13388214 12 6 C12.33 6.66 12.66 7.32 13 8 C11.68 7.67 10.36 7.34 9 7 C9 6.34 9 5.68 9 5 C8.01 5.33 7.02 5.66 6 6 C5.67 5.01 5.34 4.02 5 3 C3.35 2.67 1.7 2.34 0 2 C0 1.34 0 0.68 0 0 Z " fill="#11456F" transform="translate(162,151)"/>
<path d="M0 0 C2.97 0.495 2.97 0.495 6 1 C6 1.99 6 2.98 6 4 C4.02 4.33 2.04 4.66 0 5 C0 3.35 0 1.7 0 0 Z " fill="#E9FDFC" transform="translate(331,149)"/>
<path d="M0 0 C-2.57410819 2.47114386 -3.87597385 2.98892624 -7.5 3.3125 C-10.7423483 3.02300462 -12.24078074 2.51878078 -15 1 C-12.87630763 0.63807496 -10.7509887 0.28568253 -8.625 -0.0625 C-6.84996094 -0.35833984 -6.84996094 -0.35833984 -5.0390625 -0.66015625 C-2 -1 -2 -1 0 0 Z " fill="#C0F4F4" transform="translate(161,60)"/>
<path d="M0 0 C1.32 0 2.64 0 4 0 C4 1.98 4 3.96 4 6 C2.68 6 1.36 6 0 6 C0 4.02 0 2.04 0 0 Z " fill="#CAFBFA" transform="translate(360,173)"/>
<path d="M0 0 C1.32 0 2.64 0 4 0 C4 1.98 4 3.96 4 6 C2.68 6 1.36 6 0 6 C0 4.02 0 2.04 0 0 Z " fill="#C9FAFA" transform="translate(326,173)"/>
<path d="M0 0 C0 3.96 0 7.92 0 12 C-0.33 12 -0.66 12 -1 12 C-1.33 9.36 -1.66 6.72 -2 4 C-3.98 3.34 -5.96 2.68 -8 2 C-8 1.67 -8 1.34 -8 1 C-1.125 0 -1.125 0 0 0 Z " fill="#C8F7F4" transform="translate(378,169)"/>
<path d="M0 0 C3.23490776 0.55774272 4.97855006 1.37211508 7 4 C7 4.99 7 5.98 7 7 C3.17053157 5.54744301 1.87949705 3.57104439 0 0 Z M7 3 C9 4 9 4 9 4 Z " fill="#0B436E" transform="translate(125,145)"/>
<path d="M0 0 C1.46491133 0.37074916 2.92195569 0.77267189 4.375 1.1875 C5.59316406 1.51814453 5.59316406 1.51814453 6.8359375 1.85546875 C9 3 9 3 10.2890625 5.61328125 C10.64097656 6.79470703 10.64097656 6.79470703 11 8 C9.16399255 6.85845641 7.33125195 5.71165684 5.5 4.5625 C4.4790625 3.92441406 3.458125 3.28632812 2.40625 2.62890625 C1.6121875 2.09136719 0.818125 1.55382813 0 1 C0 0.67 0 0.34 0 0 Z " fill="#C9F6F7" transform="translate(111,56)"/>
<path d="M0 0 C0.99 0 1.98 0 3 0 C3 2.31 3 4.62 3 7 C2.01 7.33 1.02 7.66 0 8 C0 5.36 0 2.72 0 0 Z " fill="#E3FEFE" transform="translate(324,197)"/>
<path d="M0 0 C0.99 0 1.98 0 3 0 C3 1.98 3 3.96 3 6 C1.68 6 0.36 6 -1 6 C-1.042721 4.33388095 -1.04063832 2.66617115 -1 1 C-0.67 0.67 -0.34 0.34 0 0 Z " fill="#C8F7F7" transform="translate(335,197)"/>
<path d="M0 0 C0.99 0 1.98 0 3 0 C3 1.98 3 3.96 3 6 C1.68 6 0.36 6 -1 6 C-1.042721 4.33388095 -1.04063832 2.66617115 -1 1 C-0.67 0.67 -0.34 0.34 0 0 Z " fill="#CFF8FA" transform="translate(293,173)"/>
<path d="M0 0 C1.32 0.66 2.64 1.32 4 2 C3.34 2 2.68 2 2 2 C2 3.65 2 5.3 2 7 C-0.64 7 -3.28 7 -6 7 C-5.67 6.34 -5.34 5.68 -5 5 C-3.35 5 -1.7 5 0 5 C0 3.35 0 1.7 0 0 Z " fill="#DBFDFB" transform="translate(328,165)"/>
<path d="M0 0 C2.97 0.495 2.97 0.495 6 1 C6 1.99 6 2.98 6 4 C3.69 4 1.38 4 -1 4 C-0.67 2.68 -0.34 1.36 0 0 Z " fill="#85D1CF" transform="translate(296,197)"/>
<path d="M0 0 C1.98 0.495 1.98 0.495 4 1 C2.02 5.455 2.02 5.455 0 10 C-0.33 10 -0.66 10 -1 10 C-1.08004482 6.4780279 -1.04005702 3.38018531 0 0 Z " fill="#0B426F" transform="translate(216,81)"/>
<path d="M0 0 C4.38889325 0.66498383 7.9811485 2.18757677 12 4 C12 4.33 12 4.66 12 5 C7.25081338 4.53439347 3.89217595 3.83067342 0 1 C0 0.67 0 0.34 0 0 Z " fill="#D0FAFB" transform="translate(122,77)"/>
<path d="M0 0 C3.63 0.33 7.26 0.66 11 1 C11 1.66 11 2.32 11 3 C11.66 3.33 12.32 3.66 13 4 C8.428721 3.45144652 4.32564205 2.58255197 0 1 C0 0.67 0 0.34 0 0 Z " fill="#BCF3F2" transform="translate(133,70)"/>
<path d="M0 0 C0.99 0 1.98 0 3 0 C3 1.98 3 3.96 3 6 C1.68 6.33 0.36 6.66 -1 7 C-0.67 4.69 -0.34 2.38 0 0 Z " fill="#C4F3F2" transform="translate(288,150)"/>
<path d="M0 0 C1.32 0 2.64 0 4 0 C4 0.99 4 1.98 4 3 C4.66 3.33 5.32 3.66 6 4 C4.02 4 2.04 4 0 4 C0 2.68 0 1.36 0 0 Z " fill="#87D2D1" transform="translate(340,149)"/>
<path d="M0 0 C0.66 1.32 1.32 2.64 2 4 C1 5 1 5 -2.5625 5.0625 C-3.696875 5.041875 -4.83125 5.02125 -6 5 C-6.33 4.34 -6.66 3.68 -7 3 C-4.69 3 -2.38 3 0 3 C0 2.01 0 1.02 0 0 Z " fill="#4DA8A6" transform="translate(286,152)"/>
<path d="M0 0 C2.31 0.33 4.62 0.66 7 1 C7 1.99 7 2.98 7 4 C4.69 3.67 2.38 3.34 0 3 C0 2.01 0 1.02 0 0 Z " fill="#92D9DA" transform="translate(308,149)"/>
<path d="M0 0 C0.99 0.33 1.98 0.66 3 1 C2.505 1.37125 2.01 1.7425 1.5 2.125 C-0.59755514 4.74694393 -0.21743835 6.73842472 0 10 C-0.66 10 -1.32 10 -2 10 C-2.1953125 3.9453125 -2.1953125 3.9453125 -2 2 C-1.34 1.34 -0.68 0.68 0 0 Z " fill="#DCFCFD" transform="translate(43,85)"/>
<path d="M0 0 C-4.455 2.97 -4.455 2.97 -9 6 C-7 1 -7 1 -4.5 -0.375 C-2 -1 -2 -1 0 0 Z " fill="#21AAA6" transform="translate(65,84)"/>
<path d="M0 0 C-1 3 -1 3 -2.8125 4.25 C-5.33943414 5.11637742 -6.52221994 4.88492145 -9 4 C-2.25 0 -2.25 0 0 0 Z " fill="#D1F8F8" transform="translate(73,80)"/>
<path d="M0 0 C0.33 1.32 0.66 2.64 1 4 C0.34 4 -0.32 4 -1 4 C-1.33 5.32 -1.66 6.64 -2 8 C-3.32 8.33 -4.64 8.66 -6 9 C-4.02 6.03 -2.04 3.06 0 0 Z " fill="#C9F4F3" transform="translate(192,60)"/>
<path d="M0 0 C1.11375 0.3403125 1.11375 0.3403125 2.25 0.6875 C2.25 1.3475 2.25 2.0075 2.25 2.6875 C-0.72 2.6875 -3.69 2.6875 -6.75 2.6875 C-4.29511132 0.41445492 -3.41240272 -0.38777304 0 0 Z " fill="#C1D6E3" transform="translate(242.75,56.3125)"/>
<path d="M0 0 C0.33 0 0.66 0 1 0 C1.33 3.3 1.66 6.6 2 10 C1.01 10.66 0.02 11.32 -1 12 C-0.67 8.04 -0.34 4.08 0 0 Z " fill="#CDE3EC" transform="translate(184,176)"/>
<path d="M0 0 C1.32 0.33 2.64 0.66 4 1 C3.67 2.32 3.34 3.64 3 5 C2.34 5 1.68 5 1 5 C0.67 5.99 0.34 6.98 0 8 C0 5.36 0 2.72 0 0 Z " fill="#B3EBEA" transform="translate(325,149)"/>
<path d="M0 0 C0.99 0.33 1.98 0.66 3 1 C2 3 2 3 -0.375 4.125 C-3 5 -3 5 -6 5 C-1.60546875 0.99609375 -1.60546875 0.99609375 0 0 Z " fill="#1BA5A5" transform="translate(55,78)"/>
<path d="M0 0 C2.31 0.66 4.62 1.32 7 2 C3.375 5 3.375 5 0 5 C0 3.35 0 1.7 0 0 Z " fill="#11A8A8" transform="translate(166,76)"/>
<path d="M0 0 C0.99 0.33 1.98 0.66 3 1 C-1.75 5.875 -1.75 5.875 -4 7 C-4 5.68 -4 4.36 -4 3 C-2.68 3 -1.36 3 0 3 C0 2.01 0 1.02 0 0 Z " fill="#1BABA6" transform="translate(25,72)"/>
<path d="M0 0 C0 3 0 3 -1.75 5.125 C-3.95974524 6.96645436 -5.20090866 7.60012981 -8 8 C-5.33333333 5.33333333 -2.66666667 2.66666667 0 0 Z " fill="#25A9A7" transform="translate(18,68)"/>
<path d="M0 0 C2.9719385 1.12451727 5.33440687 2.22293791 8 4 C8 4.66 8 5.32 8 6 C5 6 5 6 3.4375 4.5625 C2.963125 4.046875 2.48875 3.53125 2 3 C1.34 2.67 0.68 2.34 0 2 C0 1.34 0 0.68 0 0 Z " fill="#2EAAA7" transform="translate(160,13)"/>
<path d="M0 0 C2.97 0.495 2.97 0.495 6 1 C5.67 2.32 5.34 3.64 5 5 C4.67 4.34 4.34 3.68 4 3 C2.35 3 0.7 3 -1 3 C-0.67 2.01 -0.34 1.02 0 0 Z " fill="#4AA5A3" transform="translate(295,195)"/>
<path d="M0 0 C0.99 0.33 1.98 0.66 3 1 C3 3.64 3 6.28 3 9 C2.67 8.34 2.34 7.68 2 7 C1.34 6.67 0.68 6.34 0 6 C0.66 6 1.32 6 2 6 C2 5.01 2 4.02 2 3 C1.01 3 0.02 3 -1 3 C-0.67 2.01 -0.34 1.02 0 0 Z " fill="#E4FEFD" transform="translate(353,164)"/>
<path d="M0 0 C1.98 0 3.96 0 6 0 C5.67 1.32 5.34 2.64 5 4 C2.525 3.01 2.525 3.01 0 2 C0 1.34 0 0.68 0 0 Z " fill="#BEF1F3" transform="translate(340,153)"/>
<path d="M0 0 C4.21912747 0.4794463 6.79663178 1.16625119 10 4 C8.02 4 6.04 4 4 4 C3.67 3.34 3.34 2.68 3 2 C2.01 1.34 1.02 0.68 0 0 Z " fill="#0D416D" transform="translate(144,144)"/>
<path d="M0 0 C0.99 0.33 1.98 0.66 3 1 C2.34 2.32 1.68 3.64 1 5 C-0.65 5 -2.3 5 -4 5 C-2.68 3.35 -1.36 1.7 0 0 Z " fill="#1BAAA9" transform="translate(17,78)"/>
<path d="M0 0 C0.33 0.99 0.66 1.98 1 3 C-0.75 4.5625 -0.75 4.5625 -3 6 C-4.32 5.67 -5.64 5.34 -7 5 C-4.69 3.35 -2.38 1.7 0 0 Z " fill="#27ACA9" transform="translate(26,62)"/>
<path d="M0 0 C4.455 1.98 4.455 1.98 9 4 C9 4.33 9 4.66 9 5 C6.36 4.67 3.72 4.34 1 4 C0.67 2.68 0.34 1.36 0 0 Z " fill="#D2FAFA" transform="translate(133,56)"/>
<path d="M0 0 C2.64 0 5.28 0 8 0 C8 0.66 8 1.32 8 2 C8.66 2 9.32 2 10 2 C9.67 2.66 9.34 3.32 9 4 C6.03 3.01 3.06 2.02 0 1 C0 0.67 0 0.34 0 0 Z " fill="#31B1AD" transform="translate(88,57)"/>
</svg>
