<?xml version="1.0" encoding="UTF-8"?>
<svg version="1.1" xmlns="http://www.w3.org/2000/svg" width="1231" height="165">
<path d="M0 0 C92.48708101 0 92.48708101 0 107.9375 14.0625 C118.93633371 26.06682411 121.64516954 40.57284016 121.3125 56.26171875 C120.70670757 68.91015988 115.3869758 80.08317066 106.3125 88.8125 C99.46859155 94.64631353 91.6699219 97.88068576 83 100 C85.81791132 104.34128333 88.83772257 108.45036028 92.0625 112.5 C93.04691622 113.74475907 94.03129008 114.98955164 95.015625 116.234375 C95.51384766 116.86279297 96.01207031 117.49121094 96.52539062 118.13867188 C98.79496972 121.00345185 101.05441835 123.87615365 103.3125 126.75 C103.75432617 127.31219238 104.19615234 127.87438477 104.65136719 128.45361328 C108.54986961 133.4184789 112.43382001 138.39463763 116.3125 143.375 C116.88718018 144.11202148 117.46186035 144.84904297 118.05395508 145.60839844 C120.86100437 149.21658993 123.65307576 152.83594454 126.41796875 156.4765625 C126.91449951 157.12963379 127.41103027 157.78270508 127.92260742 158.45556641 C129 160 129 160 129 161 C124.48398015 161.29958288 119.97386833 161.51560141 115.45019531 161.65917969 C113.91694359 161.7190673 112.384364 161.80062817 110.85351562 161.90527344 C98.53581161 162.72538167 98.53581161 162.72538167 94.34671021 159.87509155 C90.93851836 156.68800241 88.49875556 152.92765824 86 149 C84.57572809 147.09420888 83.14004508 145.19683094 81.6875 143.3125 C80.95402344 142.3225 80.22054687 141.3325 79.46484375 140.3125 C76.60069181 136.44796179 73.67553761 132.63066272 70.75 128.8125 C70.20722412 128.10391846 69.66444824 127.39533691 69.10522461 126.6652832 C67.98431073 125.20207298 66.86329677 123.73893942 65.7421875 122.27587891 C63.92988419 119.90840532 62.1208 117.53850126 60.3125 115.16796875 C59.71598633 114.38639404 59.11947266 113.60481934 58.50488281 112.79956055 C57.35265922 111.28971163 56.2009498 109.77947016 55.04980469 108.26879883 C54.53321289 107.59228271 54.01662109 106.9157666 53.484375 106.21875 C53.02772461 105.61998047 52.57107422 105.02121094 52.10058594 104.40429688 C51.06487506 103.02475304 51.06487506 103.02475304 50 102 C42.41 101.67 34.82 101.34 27 101 C27 120.8 27 140.6 27 161 C18.09 161 9.18 161 0 161 C0 107.87 0 54.74 0 0 Z M27 26 C27 43.16 27 60.32 27 78 C35.7553125 78.061875 35.7553125 78.061875 44.6875 78.125 C46.50080811 78.14320801 48.31411621 78.16141602 50.18237305 78.18017578 C69.72439966 78.71198617 69.72439966 78.71198617 86.7109375 70.46484375 C92.64721639 64.10868172 94.63093991 57.43625722 94.34375 48.80859375 C93.55598382 42.37218601 91.50162303 36.95254202 86.625 32.5625 C80.59293298 27.99978264 74.85200244 25.86520563 67.30151367 25.88647461 C65.93198547 25.88665588 65.93198547 25.88665588 64.53479004 25.88684082 C63.58873901 25.89195679 62.64268799 25.89707275 61.66796875 25.90234375 C60.34859314 25.90385437 60.34859314 25.90385437 59.00256348 25.90539551 C55.7308623 25.91060994 52.45917978 25.92457117 49.1875 25.9375 C38.2046875 25.9684375 38.2046875 25.9684375 27 26 Z " fill="#000000" transform="translate(772,2)"/>
<path d="M0 0 C34.65 0 69.3 0 105 0 C105 8.58 105 17.16 105 26 C79.26 26 53.52 26 27 26 C27 39.2 27 52.4 27 66 C51.09 66 75.18 66 100 66 C100 74.58 100 83.16 100 92 C75.91 92 51.82 92 27 92 C27 106.19 27 120.38 27 135 C52.74 135 78.48 135 105 135 C105 143.58 105 152.16 105 161 C70.35 161 35.7 161 0 161 C0 107.87 0 54.74 0 0 Z " fill="#000000" transform="translate(638,2)"/>
<path d="M0 0 C11.22 0 22.44 0 34 0 C36.96075529 6.51366165 39.82786287 12.86644175 42.3203125 19.5390625 C42.6162883 20.32143784 42.9122641 21.10381317 43.21720886 21.90989685 C43.85524599 23.59701356 44.49175787 25.28470775 45.12686157 26.97293091 C46.88442947 31.64281573 48.65553697 36.30756511 50.42578125 40.97265625 C50.7977916 41.95360764 51.16980194 42.93455902 51.55308533 43.94523621 C55.75241923 55.00518786 60.02956628 66.03471312 64.3125 77.0625 C65.10305893 79.09984126 65.89358616 81.13719482 66.68408203 83.17456055 C70.44310094 92.85931106 74.20969641 102.54106988 77.9863739 112.21894836 C79.73834371 116.71002326 81.48743116 121.20221791 83.23617554 125.69454956 C84.06952861 127.83291828 84.90431483 129.97072912 85.7406311 132.10794067 C86.90350061 135.07972484 88.06159147 138.05333207 89.21875 141.02734375 C89.55851364 141.89189178 89.89827728 142.75643982 90.24833679 143.64718628 C92.47874891 149.39813465 94.21548768 155.05162561 96 161 C86.43 161 76.86 161 67 161 C64.85918773 155.35997911 62.72141123 149.71899864 60.59130859 144.07495117 C59.86554549 142.15468266 59.13801451 140.23508135 58.40869141 138.31616211 C57.36156787 135.56016146 56.32079513 132.80183536 55.28125 130.04296875 C54.95314331 129.18350143 54.62503662 128.32403412 54.2869873 127.43852234 C53.98667603 126.63791885 53.68636475 125.83731537 53.37695312 125.01245117 C53.11047974 124.3085173 52.84400635 123.60458344 52.56945801 122.87931824 C52 121 52 121 52 118 C29.23 118.33 6.46 118.66 -17 119 C-22.28 132.86 -27.56 146.72 -33 161 C-42.57 161 -52.14 161 -62 161 C-57.61091635 148.24476213 -53.00175808 135.63300977 -48.0375061 123.09204102 C-46.07113131 118.12332369 -44.1180295 113.14938824 -42.1640625 108.17578125 C-41.74971451 107.12174103 -41.33536652 106.06770081 -40.90846252 104.98171997 C-35.81609925 92.01115293 -30.8184477 79.00409547 -25.8125 66 C-17.32232127 43.95346752 -8.71274932 21.9596845 0 0 Z M17 29 C14.32304477 34.1852266 11.99656195 39.32145884 10.01171875 44.8046875 C9.74738037 45.52246368 9.48304199 46.24023987 9.21069336 46.97976685 C8.36550624 49.27668824 7.52643903 51.57579012 6.6875 53.875 C5.53357343 57.01908589 4.37651181 60.16201212 3.21875 63.3046875 C2.79827644 64.44765289 2.79827644 64.44765289 2.36930847 65.6137085 C-0.04244233 72.15364809 -2.54668734 78.65500633 -5.17114258 85.11279297 C-6.29621475 87.92638335 -7 89.93360823 -7 93 C9.17 93 25.34 93 42 93 C36.87615058 78.47389527 36.87615058 78.47389527 31.4765625 64.05859375 C31.08552338 63.03943375 30.69448425 62.02027374 30.29159546 60.9702301 C29.07153179 57.7918283 27.84833919 54.61464231 26.625 51.4375 C25.78494614 49.25073175 24.94510101 47.06388329 24.10546875 44.87695312 C22.07271243 39.58371057 20.03740309 34.2914556 18 29 C17.67 29 17.34 29 17 29 Z " fill="#000000" transform="translate(517,2)"/>
<path d="M0 0 C1.22436768 0.00612305 2.44873535 0.01224609 3.71020508 0.01855469 C12.7600017 0.17480325 20.63023213 1.13778506 29.125 4.4375 C29.9396875 4.73785156 30.754375 5.03820312 31.59375 5.34765625 C33.85073537 6.26554995 35.97048257 7.29997506 38.125 8.4375 C39.06859375 8.92992187 40.0121875 9.42234375 40.984375 9.9296875 C57.72782464 19.15133362 68.67198309 33.03913898 76.125 50.4375 C76.125 51.0975 76.125 51.7575 76.125 52.4375 C71.21764551 53.31705429 66.99692719 53.62451616 62.125 52.4375 C58.61184436 48.73030378 56.41127534 44.65209943 54.05712891 40.15087891 C47.64175576 28.35855603 33.50843542 20.34080783 21.125 16.4375 C0.60474967 10.98163151 -17.84196081 13.03203674 -36.20263672 23.45166016 C-39.69919242 25.51284146 -42.84930417 27.7350035 -45.875 30.4375 C-46.5246875 30.99566406 -47.174375 31.55382812 -47.84375 32.12890625 C-59.16205367 42.55480521 -66.97210014 58.51793702 -68.05200195 73.97021484 C-68.55165554 95.80766445 -65.74351493 114.46854885 -51 131.4375 C-37.26374923 145.5500864 -19.59082392 152.57453364 0 152.875 C16.90276074 152.76007631 32.62404043 147.49732853 44.9453125 135.6484375 C46.02425781 134.55402344 46.02425781 134.55402344 47.125 133.4375 C47.69992187 132.87289062 48.27484375 132.30828125 48.8671875 131.7265625 C59.00641616 120.95691548 61.57587114 106.45770874 64.125 92.4375 C40.365 92.4375 16.605 92.4375 -7.875 92.4375 C-7.875 88.8075 -7.875 85.1775 -7.875 81.4375 C20.175 81.4375 48.225 81.4375 77.125 81.4375 C77.125 108.4975 77.125 135.5575 77.125 163.4375 C73.165 163.4375 69.205 163.4375 65.125 163.4375 C64.795 151.2275 64.465 139.0175 64.125 126.4375 C62.475 129.7375 60.825 133.0375 59.125 136.4375 C48.63024829 152.08536333 33.87766198 160.77355721 15.77587891 164.98388672 C-6.90347889 168.86473464 -29.69939708 164.43238534 -48.66796875 151.5390625 C-50.8021826 149.90175941 -52.84202544 148.19765114 -54.875 146.4375 C-55.865 145.715625 -56.855 144.99375 -57.875 144.25 C-73.01991882 131.28059438 -80.91908377 110.08551816 -82.59936523 90.72167969 C-84.12177253 67.63635929 -78.32036212 45.08509102 -62.875 27.4375 C-46.2791388 8.87038081 -24.83129753 -0.21257031 0 0 Z " fill="#000000" transform="translate(1003.875,-0.4375)"/>
<path d="M0 0 C5.61 0 11.22 0 17 0 C20.4941565 3.54013224 22.50764873 5.87547796 24.84521484 10.0234375 C26.55389797 12.94806722 28.49784829 15.69418605 30.43310547 18.47216797 C32.1081363 20.87804834 33.75712721 23.30021175 35.40234375 25.7265625 C39.26845006 31.40916944 43.19411134 37.0495887 47.125 42.6875 C52.03463961 49.73241932 56.92730259 56.78788889 61.78222656 63.87060547 C65.78559826 69.70379362 69.83014944 75.50802518 73.875 81.3125 C78.78109888 88.35408657 83.6642855 95.40988902 88.5 102.5 C93.46318899 109.77574393 98.47055949 117.01989272 103.5 124.25 C104.17095703 125.21486328 104.84191406 126.17972656 105.53320312 127.17382812 C108.99140711 132.13954384 112.4823599 137.07530386 116 142 C116 95.14 116 48.28 116 0 C120.29 0 124.58 0 129 0 C129 53.13 129 106.26 129 161 C111 161 111 161 106.34765625 156.75 C105.18782646 154.87182401 104.09433473 152.95142698 103.0625 151 C101.83385441 148.95671783 100.60468494 146.91375059 99.375 144.87109375 C98.80007813 143.86288574 98.22515625 142.85467773 97.6328125 141.81591797 C95.46927991 138.08473003 93.05364816 134.57927755 90.5625 131.0625 C89.68479242 129.79003082 88.80853427 128.51656087 87.93359375 127.2421875 C83.65661771 121.04753338 79.34639649 114.87592168 75.04321289 108.69946289 C70.30443117 101.89162775 65.60752891 95.05664319 60.93408203 88.20385742 C55.98394543 80.95495459 50.96578189 73.75410288 45.94580078 66.5534668 C42.33014782 61.36286286 38.7296624 56.16289961 35.16552734 50.93676758 C27.85815741 40.22679765 20.43842646 29.62632352 13 19 C13 65.86 13 112.72 13 161 C8.71 161 4.42 161 0 161 C0 107.87 0 54.74 0 0 Z " fill="#000000" transform="translate(300,2)"/>
<path d="M0 0 C1.77225952 0.01135986 1.77225952 0.01135986 3.58032227 0.02294922 C20.94094533 0.34878049 36.65608734 4.73281265 49.4921875 17.01171875 C55.42671488 23.38774211 61.75 31.32728988 61.75 40.4375 C57.27948479 41.03445307 53.19440304 41.31154827 48.75 40.4375 C46.45626674 38.15247161 45.3238702 36.05180291 43.99609375 33.11328125 C40.182724 24.92469731 32.70037511 20.46514442 24.57421875 17.13671875 C8.99728681 11.80215302 -8.92702703 11.07261731 -24.2109375 17.7265625 C-32.41853324 21.84136251 -37.71407335 26.87683548 -41.25 35.4375 C-43.11051008 41.52644207 -43.30744871 48.77900782 -40.8125 54.6875 C-35.57574577 63.72453768 -23.71239924 67.33270935 -14.19607544 70.01681519 C-9.70244132 71.18432157 -5.17998755 72.22676466 -0.65402222 73.26055908 C49.462793 84.76690907 49.462793 84.76690907 59.41796875 99.203125 C65.77848295 109.87237463 65.83495395 122.23822578 62.8828125 134.11328125 C59.31973408 144.56907345 52.2872637 152.70192074 42.7421875 158.15625 C30.9097537 163.97267529 19.09210734 165.99067893 5.9375 165.875 C4.71208496 165.86670166 3.48666992 165.85840332 2.22412109 165.84985352 C-16.21342207 165.50697134 -33.22261572 160.4723102 -46.77734375 147.296875 C-53.58791381 139.42114469 -61.25 127.08972556 -61.25 116.4375 C-56.63 116.4375 -52.01 116.4375 -47.25 116.4375 C-46.54875 118.4175 -45.8475 120.3975 -45.125 122.4375 C-40.82198321 133.55061338 -33.90234189 141.90937931 -23.0625 147.1875 C-5.88652174 154.29722871 14.06905208 155.09837399 31.515625 148.37109375 C39.45438626 144.77012869 45.82257867 139.4842792 49.0859375 131.2265625 C50.8102968 123.98425342 51.53041949 114.51250075 47.8125 107.8125 C42.4682206 101.11746867 35.51043682 98.15220058 27.58203125 95.5390625 C26.7952298 95.27855103 26.00842834 95.01803955 25.19778442 94.74963379 C15.86150928 91.73063669 6.3389552 89.57076345 -3.22363281 87.40576172 C-40.78804249 78.84707911 -40.78804249 78.84707911 -51.03515625 65.421875 C-56.88481739 55.86680149 -57.60378883 45.53785632 -55.77734375 34.609375 C-52.77130584 23.16123061 -46.18110022 14.50318196 -36.046875 8.55859375 C-24.37025056 2.29289127 -13.26361999 -0.11977468 0 0 Z " fill="#000000" transform="translate(61.25,-0.4375)"/>
<path d="M0 0 C5.32628571 -0.77299324 10.7443864 -1.49978996 16 0 C20.19286364 3.69023474 22.31057114 8.24250811 24.6875 13.1875 C25.39159276 14.53054252 26.10245934 15.87005415 26.81982422 17.20605469 C28.25119817 19.88166398 29.65511281 22.56887188 31.03955078 25.26904297 C33.62985523 30.26746792 36.59671237 35.00762272 39.625 39.75 C40.66250609 41.40608227 41.69763913 43.06365343 42.73046875 44.72265625 C43.25302246 45.56199707 43.77557617 46.40133789 44.31396484 47.26611328 C49.40013057 55.51327282 54.33924312 63.8512841 59.30810547 72.16943359 C61.86648413 76.4496417 64.4328934 80.72502253 67 85 C71.67598776 78.20253036 75.9550289 71.18668087 80.17379761 64.09997559 C82.14988892 60.78108699 84.13396965 57.46697702 86.1171875 54.15234375 C86.52257248 53.4744278 86.92795746 52.79651184 87.34562683 52.09805298 C90.07418591 47.53791729 92.81605188 42.98606205 95.5703125 38.44140625 C96.11867516 37.53575172 96.11867516 37.53575172 96.67811584 36.61180115 C98.47086836 33.6545316 100.27234283 30.70315321 102.09057617 27.76147461 C105.22894782 22.66460619 108.26923702 17.5883508 110.98046875 12.25 C116.94983887 0.77957259 116.94983887 0.77957259 120.91845703 -0.72949219 C125.41352359 -1.49778968 129.54782445 -0.97335012 134 0 C132.70425552 4.31861618 131.04600171 7.89193859 128.68359375 11.7265625 C128.01086426 12.82581055 127.33813477 13.92505859 126.64501953 15.05761719 C125.90919277 16.24675289 125.17335254 17.43588025 124.4375 18.625 C123.66975065 19.87622317 122.90267301 21.12785872 122.13623047 22.37988281 C120.54616519 24.97595826 118.95324825 27.5702475 117.35791016 30.16308594 C113.76019197 36.01316869 110.19114132 41.88062037 106.625 47.75 C105.59681152 49.44044434 105.59681152 49.44044434 104.54785156 51.16503906 C98.02819083 61.8992103 91.62379047 72.70156265 85.24267578 83.51855469 C84.85550888 84.17350922 84.46834198 84.82846375 84.06944275 85.50326538 C83.02119782 87.27666478 81.97476526 89.0511351 80.9284668 90.82568359 C79 94 79 94 76.79125977 96.54199219 C73.90980199 102.10461559 74.39644379 107.7571415 74.390625 113.9296875 C74.37563043 115.28876708 74.3589006 116.64782852 74.34051514 118.00686646 C74.2969715 121.56767653 74.27687186 125.12824086 74.26177979 128.68927002 C74.24216137 132.32945204 74.20019691 135.96937047 74.16015625 139.609375 C74.0849953 146.73950733 74.03668642 153.86955073 74 161 C69.71 161 65.42 161 61 161 C61.05873291 159.32905273 61.11746582 157.65810547 61.17797852 155.93652344 C63.52366746 113.30025862 63.52366746 113.30025862 45.47753906 76.17382812 C41.22354771 70.9130268 38.03740091 64.9200124 34.68658447 59.0637207 C32.73703517 55.67304321 30.73478306 52.31396236 28.734375 48.953125 C28.34311432 48.2938501 27.95185364 47.6345752 27.54873657 46.95532227 C22.66054855 38.72603422 17.68250382 30.55117434 12.69335938 22.3828125 C0 1.57734609 0 1.57734609 0 0 Z " fill="#000000" transform="translate(138,2)"/>
<path d="M0 0 C5.22251392 -0.75302555 9.79156644 -1.01403131 15 0 C18.97236439 3.37628222 21.06113004 7.66080231 23.375 12.25 C24.07388324 13.52716383 24.77892868 14.80097276 25.48974609 16.0715332 C26.96191554 18.71394421 28.40658032 21.36880559 29.83398438 24.03564453 C32.86060421 29.63932709 36.21029077 35.04037623 39.55761719 40.45617676 C41.32946594 43.33016245 43.07871075 46.21779089 44.828125 49.10546875 C45.34300476 49.95439194 45.34300476 49.95439194 45.86828613 50.82046509 C48.35873876 54.93041353 50.83143674 59.05078723 53.296875 63.17578125 C53.64297821 63.75450485 53.98908142 64.33322845 54.34567261 64.92948914 C55.98967809 67.6792084 57.63093468 70.43050761 59.26806641 73.18432617 C59.84733887 74.15474854 60.42661133 75.1251709 61.0234375 76.125 C61.52794434 76.97320312 62.03245117 77.82140625 62.55224609 78.6953125 C63.93251401 80.89256868 65.41113466 82.95000355 67 85 C67.40089844 84.31824707 67.80179688 83.63649414 68.21484375 82.93408203 C76.28814812 69.21999103 84.44488115 55.5694124 92.82470703 42.03955078 C96.57371534 35.9753848 100.27990709 29.88917472 103.9375 23.76953125 C104.35025177 23.07917282 104.76300354 22.38881439 105.18826294 21.67753601 C107.2094604 18.29454465 109.22614795 14.90894327 111.23779297 11.52026367 C111.96836582 10.29472414 112.69899445 9.06921787 113.4296875 7.84375 C114.07147949 6.76287109 114.71327148 5.68199219 115.37451172 4.56835938 C117 2 117 2 119 0 C121.58064129 -0.14497985 124.04943884 -0.18677545 126.625 -0.125 C127.33140625 -0.11597656 128.0378125 -0.10695312 128.765625 -0.09765625 C130.51056098 -0.07407603 132.25532295 -0.03820461 134 0 C130.43024301 7.53018223 126.30053749 14.5703377 121.875 21.625 C120.44181548 23.93097104 119.01020002 26.23780451 117.58203125 28.546875 C117.02463509 29.44785416 117.02463509 29.44785416 116.45597839 30.36703491 C112.06700983 37.48209534 107.81538456 44.67808658 103.5625 51.875 C95.34651028 65.77133836 87.00876435 79.58964106 78.59960938 93.36987305 C78.07173828 94.23781494 77.54386719 95.10575684 77 96 C76.48092575 96.75394043 75.9618515 97.50788086 75.42704773 98.28466797 C73.75975009 101.45713837 73.60519001 103.50694894 73.56762695 107.07543945 C73.54783279 108.27630692 73.52803864 109.47717438 73.50764465 110.71443176 C73.50125473 112.00105209 73.49486481 113.28767242 73.48828125 114.61328125 C73.47142442 115.95136657 73.45327282 117.28943616 73.43388367 118.62748718 C73.38648579 122.13728924 73.35661091 125.64702747 73.33044434 129.15704346 C73.30058685 132.7434957 73.25407448 136.32972827 73.20898438 139.91601562 C73.12306774 146.9438998 73.0572116 153.9718241 73 161 C68.71 161 64.42 161 60 161 C60.08809937 158.50143433 60.08809937 158.50143433 60.17797852 155.95239258 C62.39154334 112.848181 62.39154334 112.848181 44.37402344 75.06494141 C40.67994579 70.29576712 37.7003996 65.13311831 34.65762329 59.93841553 C32.94743889 57.03862773 31.18286957 54.17229098 29.42578125 51.30078125 C23.67580264 41.85981992 18.05082266 32.34416537 12.41845703 22.83276367 C12.03806274 22.19048325 11.65766846 21.54820282 11.26574707 20.88645935 C10.52868577 19.64120893 9.79225737 18.39558364 9.05651855 17.14955139 C6.42034287 12.68953749 3.73068363 8.26425648 1.00268555 3.85986328 C0 2 0 2 0 0 Z " fill="#000000" transform="translate(1097,2)"/>
</svg>
